solid 10_degRamp
facet normal 0.0 0.0 -1.0
  outer loop
    vertex 68.92421332863218 -3.952364076593909 0.0
    vertex 38.92421332863217 -48.95236407659391 0.0
    vertex 38.92421332863217 -3.952364076593909 0.0
  endloop
endfacet
facet normal 0.0 0.0 -1.0
  outer loop
    vertex 38.92421332863217 -48.95236407659391 0.0
    vertex 68.92421332863218 -3.952364076593909 0.0
    vertex 68.92421332863218 -48.95236407659391 0.0
  endloop
endfacet
facet normal -1.0 0.0 0.0
  outer loop
    vertex 38.92421332863217 -3.952364076593909 0.0
    vertex 38.92421332863217 -48.95236407659391 0.0
    vertex 38.92421332863217 -48.95236407659391 7.999999999999999
  endloop
endfacet
facet normal 1.0 -0.0 -0.0
  outer loop
    vertex 68.92421332863218 -3.952364076593909 0.0
    vertex 68.92421332863218 -48.95236407659391 7.999999999999999
    vertex 68.92421332863218 -48.95236407659391 0.0
  endloop
endfacet
facet normal 0.0 -1.0 0.0
  outer loop
    vertex 68.92421332863218 -48.95236407659391 7.999999999999999
    vertex 38.92421332863217 -48.95236407659391 0.0
    vertex 68.92421332863218 -48.95236407659391 0.0
  endloop
endfacet
facet normal 0.0 -1.0 0.0
  outer loop
    vertex 38.92421332863217 -48.95236407659391 0.0
    vertex 68.92421332863218 -48.95236407659391 7.999999999999999
    vertex 38.92421332863217 -48.95236407659391 7.999999999999999
  endloop
endfacet
facet normal -0.0 0.17503333471749452 0.9845625077859067
  outer loop
    vertex 68.92421332863218 -48.95236407659391 7.999999999999999
    vertex 38.92421332863217 -3.952364076593909 0.0
    vertex 38.92421332863217 -48.95236407659391 7.999999999999999
  endloop
endfacet
facet normal -0.0 0.17503333471749452 0.9845625077859067
  outer loop
    vertex 38.92421332863217 -3.952364076593909 0.0
    vertex 68.92421332863218 -48.95236407659391 7.999999999999999
    vertex 68.92421332863218 -3.952364076593909 0.0
  endloop
endfacet
endsolid 10_degRamp
