solid 15_degRamp
facet normal 0.0 0.0 -1.0
  outer loop
    vertex 68.92421332863218 -3.952364076593909 0.0
    vertex 38.92421332863217 -48.95236407659391 0.0
    vertex 38.92421332863217 -3.952364076593909 0.0
  endloop
endfacet
facet normal 0.0 0.0 -1.0
  outer loop
    vertex 38.92421332863217 -48.95236407659391 0.0
    vertex 68.92421332863218 -3.952364076593909 0.0
    vertex 68.92421332863218 -48.95236407659391 0.0
  endloop
endfacet
facet normal 0.0 -1.0 0.0
  outer loop
    vertex 68.92421332863218 -48.95236407659391 11.999999999999998
    vertex 38.92421332863217 -48.95236407659391 0.0
    vertex 68.92421332863218 -48.95236407659391 0.0
  endloop
endfacet
facet normal 0.0 -1.0 0.0
  outer loop
    vertex 38.92421332863217 -48.95236407659391 0.0
    vertex 68.92421332863218 -48.95236407659391 11.999999999999998
    vertex 38.92421332863217 -48.95236407659391 11.999999999999998
  endloop
endfacet
facet normal -1.0 0.0 0.0
  outer loop
    vertex 38.92421332863217 -3.952364076593909 0.0
    vertex 38.92421332863217 -48.95236407659391 0.0
    vertex 38.92421332863217 -48.95236407659391 11.999999999999998
  endloop
endfacet
facet normal 1.0 -0.0 -0.0
  outer loop
    vertex 68.92421332863218 -3.952364076593909 0.0
    vertex 68.92421332863218 -48.95236407659391 11.999999999999998
    vertex 68.92421332863218 -48.95236407659391 0.0
  endloop
endfacet
facet normal -0.0 0.25766265056033233 0.9662349396012463
  outer loop
    vertex 68.92421332863218 -48.95236407659391 11.999999999999998
    vertex 38.92421332863217 -3.952364076593909 0.0
    vertex 38.92421332863217 -48.95236407659391 11.999999999999998
  endloop
endfacet
facet normal -0.0 0.25766265056033233 0.9662349396012463
  outer loop
    vertex 38.92421332863217 -3.952364076593909 0.0
    vertex 68.92421332863218 -48.95236407659391 11.999999999999998
    vertex 68.92421332863218 -3.952364076593909 0.0
  endloop
endfacet
endsolid 15_degRamp
