solid 20_degRamp
facet normal 0.0 0.0 -1.0
  outer loop
    vertex 68.92421332863218 -3.952364076593909 0.0
    vertex 38.92421332863217 -48.95236407659391 0.0
    vertex 38.92421332863217 -3.952364076593909 0.0
  endloop
endfacet
facet normal 0.0 0.0 -1.0
  outer loop
    vertex 38.92421332863217 -48.95236407659391 0.0
    vertex 68.92421332863218 -3.952364076593909 0.0
    vertex 68.92421332863218 -48.95236407659391 0.0
  endloop
endfacet
facet normal 0.0 -1.0 0.0
  outer loop
    vertex 68.92421332863218 -48.95236407659391 16.5
    vertex 38.92421332863217 -48.95236407659391 0.0
    vertex 68.92421332863218 -48.95236407659391 0.0
  endloop
endfacet
facet normal 0.0 -1.0 0.0
  outer loop
    vertex 38.92421332863217 -48.95236407659391 0.0
    vertex 68.92421332863218 -48.95236407659391 16.5
    vertex 38.92421332863217 -48.95236407659391 16.5
  endloop
endfacet
facet normal -1.0 0.0 0.0
  outer loop
    vertex 38.92421332863217 -3.952364076593909 0.0
    vertex 38.92421332863217 -48.95236407659391 0.0
    vertex 38.92421332863217 -48.95236407659391 16.5
  endloop
endfacet
facet normal 1.0 -0.0 -0.0
  outer loop
    vertex 68.92421332863218 -3.952364076593909 0.0
    vertex 68.92421332863218 -48.95236407659391 16.5
    vertex 68.92421332863218 -48.95236407659391 0.0
  endloop
endfacet
facet normal -0.0 0.34425464915842324 0.9388763158866086
  outer loop
    vertex 68.92421332863218 -48.95236407659391 16.5
    vertex 38.92421332863217 -3.952364076593909 0.0
    vertex 38.92421332863217 -48.95236407659391 16.5
  endloop
endfacet
facet normal -0.0 0.34425464915842324 0.9388763158866086
  outer loop
    vertex 38.92421332863217 -3.952364076593909 0.0
    vertex 68.92421332863218 -48.95236407659391 16.5
    vertex 68.92421332863218 -3.952364076593909 0.0
  endloop
endfacet
endsolid 20_degRamp
