solid 20_degRamp_mod
facet normal 0.0 0.0 -1.0
  outer loop
    vertex 107.9242133286321 -3.952364076593909 0.0
    vertex 38.92421332863217 -57.95236407659389 0.0
    vertex 38.92421332863217 -3.952364076593909 0.0
  endloop
endfacet
facet normal 0.0 0.0 -1.0
  outer loop
    vertex 38.92421332863217 -57.95236407659389 0.0
    vertex 107.9242133286321 -3.952364076593909 0.0
    vertex 107.9242133286321 -57.95236407659389 0.0
  endloop
endfacet
facet normal -1.0 0.0 0.0
  outer loop
    vertex 38.92421332863217 -3.952364076593909 0.0
    vertex 38.92421332863217 -57.95236407659389 0.0
    vertex 38.92421332863217 -57.95236407659389 19.799999999999994
  endloop
endfacet
facet normal -3.419151074973098e-18 0.34425464915842324 0.9388763158866086
  outer loop
    vertex 107.92421332863215 -57.95236407659389 19.799999999999994
    vertex 83.92421332863215 -22.746585503990175 6.891214523378641
    vertex 83.92421332863215 -57.95236407659389 19.799999999999994
  endloop
endfacet
facet normal -3.419151074973098e-18 0.34425464915842324 0.9388763158866086
  outer loop
    vertex 83.92421332863215 -22.746585503990175 6.891214523378641
    vertex 107.92421332863215 -57.95236407659389 19.799999999999994
    vertex 107.9242133286321 -3.952364076593909 0.0
  endloop
endfacet
facet normal -3.419151074973098e-18 0.34425464915842324 0.9388763158866086
  outer loop
    vertex 62.924213328632185 -57.95236407659389 19.799999999999994
    vertex 38.92421332863217 -3.952364076593909 0.0
    vertex 38.92421332863217 -57.95236407659389 19.799999999999994
  endloop
endfacet
facet normal -3.419151074973098e-18 0.34425464915842324 0.9388763158866086
  outer loop
    vertex 38.92421332863217 -3.952364076593909 0.0
    vertex 62.924213328632185 -57.95236407659389 19.799999999999994
    vertex 62.924213328632185 -22.746585503990175 6.891214523378632
  endloop
endfacet
facet normal -3.419151074973098e-18 0.34425464915842324 0.9388763158866086
  outer loop
    vertex 38.92421332863217 -3.952364076593909 0.0
    vertex 62.924213328632185 -22.746585503990175 6.891214523378632
    vertex 107.9242133286321 -3.952364076593909 0.0
  endloop
endfacet
facet normal -3.419151074973098e-18 0.34425464915842324 0.9388763158866086
  outer loop
    vertex 107.9242133286321 -3.952364076593909 0.0
    vertex 62.924213328632185 -22.746585503990175 6.891214523378632
    vertex 83.92421332863215 -22.746585503990175 6.891214523378641
  endloop
endfacet
facet normal 1.0 -2.154163501705077e-31 -2.2787607939781003e-15
  outer loop
    vertex 107.9242133286321 -3.952364076593909 0.0
    vertex 107.92421332863215 -57.95236407659389 19.799999999999994
    vertex 107.9242133286321 -57.95236407659389 0.0
  endloop
endfacet
facet normal 1.0 -0.0 -0.0
  outer loop
    vertex 62.924213328632185 -22.746585503990175 6.891214523378632
    vertex 62.924213328632185 -57.95236407659389 19.799999999999994
    vertex 62.924213328632185 -57.95236407659389 6.891214523378632
  endloop
endfacet
facet normal -4.028523546497003e-16 -0.0 1.0
  outer loop
    vertex 83.92421332863215 -57.95236407659389 6.891214523378641
    vertex 62.924213328632185 -22.746585503990175 6.891214523378632
    vertex 62.924213328632185 -57.95236407659389 6.891214523378632
  endloop
endfacet
facet normal -4.028523546497003e-16 -0.0 1.0
  outer loop
    vertex 62.924213328632185 -22.746585503990175 6.891214523378632
    vertex 83.92421332863215 -57.95236407659389 6.891214523378641
    vertex 83.92421332863215 -22.746585503990175 6.891214523378641
  endloop
endfacet
facet normal 0.0 -1.0 0.0
  outer loop
    vertex 62.924213328632185 -57.95236407659389 6.891214523378632
    vertex 38.92421332863217 -57.95236407659389 19.799999999999994
    vertex 38.92421332863217 -57.95236407659389 0.0
  endloop
endfacet
facet normal 0.0 -1.0 0.0
  outer loop
    vertex 38.92421332863217 -57.95236407659389 19.799999999999994
    vertex 62.924213328632185 -57.95236407659389 6.891214523378632
    vertex 62.924213328632185 -57.95236407659389 19.799999999999994
  endloop
endfacet
facet normal 0.0 -1.0 0.0
  outer loop
    vertex 107.9242133286321 -57.95236407659389 0.0
    vertex 83.92421332863215 -57.95236407659389 6.891214523378641
    vertex 38.92421332863217 -57.95236407659389 0.0
  endloop
endfacet
facet normal 0.0 -1.0 0.0
  outer loop
    vertex 83.92421332863215 -57.95236407659389 6.891214523378641
    vertex 107.9242133286321 -57.95236407659389 0.0
    vertex 107.92421332863215 -57.95236407659389 19.799999999999994
  endloop
endfacet
facet normal 0.0 -1.0 0.0
  outer loop
    vertex 38.92421332863217 -57.95236407659389 0.0
    vertex 83.92421332863215 -57.95236407659389 6.891214523378641
    vertex 62.924213328632185 -57.95236407659389 6.891214523378632
  endloop
endfacet
facet normal 0.0 -1.0 0.0
  outer loop
    vertex 83.92421332863215 -57.95236407659389 6.891214523378641
    vertex 107.92421332863215 -57.95236407659389 19.799999999999994
    vertex 83.92421332863215 -57.95236407659389 19.799999999999994
  endloop
endfacet
facet normal -1.0 0.0 0.0
  outer loop
    vertex 83.92421332863215 -22.746585503990175 6.891214523378641
    vertex 83.92421332863215 -57.95236407659389 6.891214523378641
    vertex 83.92421332863215 -57.95236407659389 19.799999999999994
  endloop
endfacet
endsolid 20_degRamp_mod
