solid 30_degRamp
facet normal 0.0 0.0 -1.0
  outer loop
    vertex 68.92421332863218 -3.952364076593909 0.0
    vertex 38.92421332863217 -48.95236407659391 0.0
    vertex 38.92421332863217 -3.952364076593909 0.0
  endloop
endfacet
facet normal 0.0 0.0 -1.0
  outer loop
    vertex 38.92421332863217 -48.95236407659391 0.0
    vertex 68.92421332863218 -3.952364076593909 0.0
    vertex 68.92421332863218 -48.95236407659391 0.0
  endloop
endfacet
facet normal 0.0 -1.0 0.0
  outer loop
    vertex 68.92421332863218 -48.95236407659391 25.999999999999996
    vertex 38.92421332863217 -48.95236407659391 0.0
    vertex 68.92421332863218 -48.95236407659391 0.0
  endloop
endfacet
facet normal 0.0 -1.0 0.0
  outer loop
    vertex 38.92421332863217 -48.95236407659391 0.0
    vertex 68.92421332863218 -48.95236407659391 25.999999999999996
    vertex 38.92421332863217 -48.95236407659391 25.999999999999996
  endloop
endfacet
facet normal -1.0 0.0 0.0
  outer loop
    vertex 38.92421332863217 -3.952364076593909 0.0
    vertex 38.92421332863217 -48.95236407659391 0.0
    vertex 38.92421332863217 -48.95236407659391 25.999999999999996
  endloop
endfacet
facet normal 1.0 -0.0 -0.0
  outer loop
    vertex 68.92421332863218 -3.952364076593909 0.0
    vertex 68.92421332863218 -48.95236407659391 25.999999999999996
    vertex 68.92421332863218 -48.95236407659391 0.0
  endloop
endfacet
facet normal -0.0 0.5002775978746292 0.8658650732445506
  outer loop
    vertex 68.92421332863218 -48.95236407659391 25.999999999999996
    vertex 38.92421332863217 -3.952364076593909 0.0
    vertex 38.92421332863217 -48.95236407659391 25.999999999999996
  endloop
endfacet
facet normal -0.0 0.5002775978746292 0.8658650732445506
  outer loop
    vertex 38.92421332863217 -3.952364076593909 0.0
    vertex 68.92421332863218 -48.95236407659391 25.999999999999996
    vertex 68.92421332863218 -3.952364076593909 0.0
  endloop
endfacet
endsolid 30_degRamp
