solid 20_degRamp_mod
facet normal 0.0 0.0 -1.0
  outer loop
    vertex 56.30065084577741 -76.30178334689064 -1.127986593019159e-14
    vertex 41.30065084577742 -91.30178334689063 -1.127986593019159e-14
    vertex 41.30065084577742 -76.30178334689064 -1.127986593019159e-14
  endloop
endfacet
facet normal 0.0 0.0 -1.0
  outer loop
    vertex 41.30065084577742 -91.30178334689063 -1.127986593019159e-14
    vertex 56.30065084577741 -76.30178334689064 -1.127986593019159e-14
    vertex 44.30065084577741 -94.30178334689064 -1.127986593019159e-14
  endloop
endfacet
facet normal 0.0 0.0 -1.0
  outer loop
    vertex 44.30065084577741 -94.30178334689064 -1.127986593019159e-14
    vertex 56.30065084577741 -76.30178334689064 -1.127986593019159e-14
    vertex 56.30065084577741 -94.30178334689064 -1.127986593019159e-14
  endloop
endfacet
facet normal 0.0 0.0 1.0
  outer loop
    vertex 44.30065084577741 -94.30178334689064 4.9999999999999885
    vertex 41.30065084577742 -76.30178334689064 4.9999999999999885
    vertex 41.30065084577742 -91.30178334689063 4.9999999999999885
  endloop
endfacet
facet normal 0.0 0.0 1.0
  outer loop
    vertex 41.30065084577742 -76.30178334689064 4.9999999999999885
    vertex 44.30065084577741 -94.30178334689064 4.9999999999999885
    vertex 56.30065084577741 -76.30178334689064 4.9999999999999885
  endloop
endfacet
facet normal 0.0 0.0 1.0
  outer loop
    vertex 56.30065084577741 -76.30178334689064 4.9999999999999885
    vertex 44.30065084577741 -94.30178334689064 4.9999999999999885
    vertex 56.30065084577741 -94.30178334689064 4.9999999999999885
  endloop
endfacet
facet normal -1.0 0.0 0.0
  outer loop
    vertex 41.30065084577742 -76.30178334689064 4.9999999999999885
    vertex 41.30065084577742 -91.30178334689063 -1.127986593019159e-14
    vertex 41.30065084577742 -91.30178334689063 4.9999999999999885
  endloop
endfacet
facet normal -1.0 0.0 0.0
  outer loop
    vertex 41.30065084577742 -91.30178334689063 -1.127986593019159e-14
    vertex 41.30065084577742 -76.30178334689064 4.9999999999999885
    vertex 41.30065084577742 -76.30178334689064 -1.127986593019159e-14
  endloop
endfacet
facet normal -0.7071067811865489 -0.7071067811865462 -0.0
  outer loop
    vertex 41.30065084577742 -91.30178334689063 4.9999999999999885
    vertex 44.30065084577741 -94.30178334689064 -1.127986593019159e-14
    vertex 44.30065084577741 -94.30178334689064 4.9999999999999885
  endloop
endfacet
facet normal -0.7071067811865489 -0.7071067811865462 -0.0
  outer loop
    vertex 44.30065084577741 -94.30178334689064 -1.127986593019159e-14
    vertex 41.30065084577742 -91.30178334689063 4.9999999999999885
    vertex 41.30065084577742 -91.30178334689063 -1.127986593019159e-14
  endloop
endfacet
facet normal 1.0 0.0 0.0
  outer loop
    vertex 56.30065084577741 -76.30178334689064 -1.127986593019159e-14
    vertex 56.30065084577741 -94.30178334689064 4.9999999999999885
    vertex 56.30065084577741 -94.30178334689064 -1.127986593019159e-14
  endloop
endfacet
facet normal 1.0 0.0 0.0
  outer loop
    vertex 56.30065084577741 -94.30178334689064 4.9999999999999885
    vertex 56.30065084577741 -76.30178334689064 -1.127986593019159e-14
    vertex 56.30065084577741 -76.30178334689064 4.9999999999999885
  endloop
endfacet
facet normal -0.0 -1.0 -0.0
  outer loop
    vertex 56.30065084577741 -94.30178334689064 4.9999999999999885
    vertex 44.30065084577741 -94.30178334689064 -1.127986593019159e-14
    vertex 56.30065084577741 -94.30178334689064 -1.127986593019159e-14
  endloop
endfacet
facet normal -0.0 -1.0 -0.0
  outer loop
    vertex 44.30065084577741 -94.30178334689064 -1.127986593019159e-14
    vertex 56.30065084577741 -94.30178334689064 4.9999999999999885
    vertex 44.30065084577741 -94.30178334689064 4.9999999999999885
  endloop
endfacet
facet normal -0.0 1.0 0.0
  outer loop
    vertex 41.30065084577742 -76.30178334689064 4.9999999999999885
    vertex 56.30065084577741 -76.30178334689064 -1.127986593019159e-14
    vertex 41.30065084577742 -76.30178334689064 -1.127986593019159e-14
  endloop
endfacet
facet normal -0.0 1.0 0.0
  outer loop
    vertex 56.30065084577741 -76.30178334689064 -1.127986593019159e-14
    vertex 41.30065084577742 -76.30178334689064 4.9999999999999885
    vertex 56.30065084577741 -76.30178334689064 4.9999999999999885
  endloop
endfacet
endsolid 20_degRamp_mod
