solid Tobias_genericSolarArray
facet normal -1.0 5.810316572700662e-17 2.1002567018899417e-15
  outer loop
    vertex 167.2 1.0000000000000038 7.499999999999997
    vertex 167.2 2.199999999999996 5.0
    vertex 167.2 0.9999999999999981 5.000000000000001
  endloop
endfacet
facet normal -1.0 5.810316572700662e-17 2.1002567018899417e-15
  outer loop
    vertex 167.2 2.199999999999996 5.0
    vertex 167.2 1.0000000000000038 7.499999999999997
    vertex 167.2 36.20000000000001 7.499999999999997
  endloop
endfacet
facet normal -1.0 5.810316572700662e-17 2.1002567018899417e-15
  outer loop
    vertex 167.2 2.199999999999996 5.0
    vertex 167.2 36.20000000000001 7.499999999999997
    vertex 167.19999999999996 8.200000000000001 5.0
  endloop
endfacet
facet normal -1.0 5.810316572700662e-17 2.1002567018899417e-15
  outer loop
    vertex 167.19999999999996 8.200000000000001 5.0
    vertex 167.2 36.20000000000001 7.499999999999997
    vertex 167.2 36.20000000000001 5.0
  endloop
endfacet
facet normal 1.0 -2.426928183931674e-16 2.814662066418529e-16
  outer loop
    vertex 170.2 10.200000000000005 5.629324132837058e-16
    vertex 170.2 8.200000000000001 5.0
    vertex 170.2 8.200000000000001 5.629324132837058e-16
  endloop
endfacet
facet normal 1.0 -2.426928183931674e-16 2.814662066418529e-16
  outer loop
    vertex 170.20000000000002 20.200000000000017 5.629324132837058e-16
    vertex 170.20000000000002 15.200000000000006 5.0
    vertex 170.20000000000002 15.200000000000006 5.629324132837058e-16
  endloop
endfacet
facet normal 1.0 -2.426928183931674e-16 2.814662066418529e-16
  outer loop
    vertex 170.20000000000002 30.200000000000014 5.629324132837058e-16
    vertex 170.20000000000002 25.200000000000017 5.0
    vertex 170.20000000000002 25.200000000000017 5.629324132837058e-16
  endloop
endfacet
facet normal 1.0 -2.426928183931674e-16 2.814662066418529e-16
  outer loop
    vertex 170.2 37.2 5.629324132837058e-16
    vertex 170.2 35.2 5.0
    vertex 170.2 35.2 5.629324132837058e-16
  endloop
endfacet
facet normal 1.0 -2.426928183931674e-16 2.814662066418529e-16
  outer loop
    vertex 170.2 2.1999999999999957 5.629324132837058e-16
    vertex 170.2 -4.853856367863348e-16 7.499999999999997
    vertex 170.2 -4.853856367863348e-16 5.629324132837058e-16
  endloop
endfacet
facet normal 1.0 -2.426928183931674e-16 2.814662066418529e-16
  outer loop
    vertex 170.2 -4.853856367863348e-16 7.499999999999997
    vertex 170.2 2.1999999999999957 5.629324132837058e-16
    vertex 170.2 2.1999999999999957 5.0
  endloop
endfacet
facet normal 1.0 -2.426928183931674e-16 2.814662066418529e-16
  outer loop
    vertex 170.2 -4.853856367863348e-16 7.499999999999997
    vertex 170.2 2.1999999999999957 5.0
    vertex 170.2 37.2 7.499999999999997
  endloop
endfacet
facet normal 1.0 -2.426928183931674e-16 2.814662066418529e-16
  outer loop
    vertex 170.2 37.2 7.499999999999997
    vertex 170.2 2.1999999999999957 5.0
    vertex 170.2 8.200000000000001 5.0
  endloop
endfacet
facet normal 1.0 -2.426928183931674e-16 2.814662066418529e-16
  outer loop
    vertex 170.2 37.2 7.499999999999997
    vertex 170.2 8.200000000000001 5.0
    vertex 170.2 10.200000000000005 5.0
  endloop
endfacet
facet normal 1.0 -2.426928183931674e-16 2.814662066418529e-16
  outer loop
    vertex 170.2 10.200000000000005 5.0
    vertex 170.2 8.200000000000001 5.0
    vertex 170.2 10.200000000000005 5.629324132837058e-16
  endloop
endfacet
facet normal 1.0 -2.426928183931674e-16 2.814662066418529e-16
  outer loop
    vertex 170.2 37.2 7.499999999999997
    vertex 170.2 10.200000000000005 5.0
    vertex 170.20000000000002 15.200000000000006 5.0
  endloop
endfacet
facet normal 1.0 -2.426928183931674e-16 2.814662066418529e-16
  outer loop
    vertex 170.2 37.2 7.499999999999997
    vertex 170.20000000000002 15.200000000000006 5.0
    vertex 170.20000000000002 20.200000000000017 5.0
  endloop
endfacet
facet normal 1.0 -2.426928183931674e-16 2.814662066418529e-16
  outer loop
    vertex 170.20000000000002 20.200000000000017 5.0
    vertex 170.20000000000002 15.200000000000006 5.0
    vertex 170.20000000000002 20.200000000000017 5.629324132837058e-16
  endloop
endfacet
facet normal 1.0 -2.426928183931674e-16 2.814662066418529e-16
  outer loop
    vertex 170.2 37.2 7.499999999999997
    vertex 170.20000000000002 20.200000000000017 5.0
    vertex 170.20000000000002 25.200000000000017 5.0
  endloop
endfacet
facet normal 1.0 -2.426928183931674e-16 2.814662066418529e-16
  outer loop
    vertex 170.2 37.2 7.499999999999997
    vertex 170.20000000000002 25.200000000000017 5.0
    vertex 170.20000000000002 30.200000000000014 5.0
  endloop
endfacet
facet normal 1.0 -2.426928183931674e-16 2.814662066418529e-16
  outer loop
    vertex 170.20000000000002 30.200000000000014 5.0
    vertex 170.20000000000002 25.200000000000017 5.0
    vertex 170.20000000000002 30.200000000000014 5.629324132837058e-16
  endloop
endfacet
facet normal 1.0 -2.426928183931674e-16 2.814662066418529e-16
  outer loop
    vertex 170.2 37.2 7.499999999999997
    vertex 170.20000000000002 30.200000000000014 5.0
    vertex 170.2 35.2 5.0
  endloop
endfacet
facet normal 1.0 -2.426928183931674e-16 2.814662066418529e-16
  outer loop
    vertex 170.2 37.2 7.499999999999997
    vertex 170.2 35.2 5.0
    vertex 170.2 37.2 5.629324132837058e-16
  endloop
endfacet
facet normal -0.0 5.874930171974796e-16 1.0
  outer loop
    vertex 167.2 0.9999999999999981 5.000000000000001
    vertex 144.99999999999997 2.199999999999996 5.0
    vertex 144.99999999999997 0.9999999999999981 5.000000000000001
  endloop
endfacet
facet normal -0.0 5.874930171974796e-16 1.0
  outer loop
    vertex 144.99999999999997 2.199999999999996 5.0
    vertex 167.2 0.9999999999999981 5.000000000000001
    vertex 167.2 2.199999999999996 5.0
  endloop
endfacet
facet normal -0.0 1.0 -2.2559731860383205e-15
  outer loop
    vertex 144.99999999999997 1.0000000000000038 7.499999999999997
    vertex 167.2 0.9999999999999981 5.000000000000001
    vertex 144.99999999999997 0.9999999999999981 5.000000000000001
  endloop
endfacet
facet normal -0.0 1.0 -2.2559731860383205e-15
  outer loop
    vertex 167.2 0.9999999999999981 5.000000000000001
    vertex 144.99999999999997 1.0000000000000038 7.499999999999997
    vertex 167.2 1.0000000000000038 7.499999999999997
  endloop
endfacet
facet normal 1.0 -0.0 -0.0
  outer loop
    vertex 144.99999999999997 2.199999999999996 5.0
    vertex 144.99999999999997 1.0000000000000038 7.499999999999997
    vertex 144.99999999999997 0.9999999999999981 5.000000000000001
  endloop
endfacet
facet normal 1.0 -0.0 -0.0
  outer loop
    vertex 144.99999999999997 1.0000000000000038 7.499999999999997
    vertex 144.99999999999997 2.199999999999996 5.0
    vertex 144.99999999999997 36.20000000000001 7.499999999999997
  endloop
endfacet
facet normal 1.0 -0.0 -0.0
  outer loop
    vertex 144.99999999999997 36.20000000000001 7.499999999999997
    vertex 144.99999999999997 2.199999999999996 5.0
    vertex 144.99999999999997 8.200000000000001 5.0
  endloop
endfacet
facet normal 1.0 -0.0 -0.0
  outer loop
    vertex 144.99999999999997 36.20000000000001 7.499999999999997
    vertex 144.99999999999997 8.200000000000001 5.0
    vertex 144.99999999999997 36.20000000000001 5.0
  endloop
endfacet
facet normal 0.0 -1.0 0.0
  outer loop
    vertex 167.2 36.20000000000001 7.499999999999997
    vertex 144.99999999999997 36.20000000000001 5.0
    vertex 167.2 36.20000000000001 5.0
  endloop
endfacet
facet normal 0.0 -1.0 0.0
  outer loop
    vertex 144.99999999999997 36.20000000000001 5.0
    vertex 167.2 36.20000000000001 7.499999999999997
    vertex 144.99999999999997 36.20000000000001 7.499999999999997
  endloop
endfacet
facet normal 1.0 0.0 0.0
  outer loop
    vertex 174.19999999999996 15.200000000000006 0.0
    vertex 174.19999999999996 10.200000000000005 5.0
    vertex 174.19999999999996 10.200000000000005 0.0
  endloop
endfacet
facet normal 1.0 0.0 0.0
  outer loop
    vertex 174.19999999999996 10.200000000000005 5.0
    vertex 174.19999999999996 15.200000000000006 0.0
    vertex 174.19999999999996 15.200000000000006 5.0
  endloop
endfacet
facet normal -0.0 1.0 -0.0
  outer loop
    vertex 170.2 35.2 5.629324132837058e-16
    vertex 174.19999999999996 35.2 5.0
    vertex 174.19999999999996 35.2 0.0
  endloop
endfacet
facet normal -0.0 1.0 -0.0
  outer loop
    vertex 174.19999999999996 35.2 5.0
    vertex 170.2 35.2 5.629324132837058e-16
    vertex 170.2 35.2 5.0
  endloop
endfacet
facet normal -0.0 -0.0 1.0
  outer loop
    vertex 170.20000000000002 30.200000000000014 5.0
    vertex 174.19999999999996 35.2 5.0
    vertex 170.2 35.2 5.0
  endloop
endfacet
facet normal -0.0 -0.0 1.0
  outer loop
    vertex 174.19999999999996 35.2 5.0
    vertex 170.20000000000002 30.200000000000014 5.0
    vertex 174.19999999999996 30.200000000000014 5.0
  endloop
endfacet
facet normal 0.0 -1.0 0.0
  outer loop
    vertex 174.19999999999996 10.200000000000005 5.0
    vertex 170.2 10.200000000000005 5.629324132837058e-16
    vertex 174.19999999999996 10.200000000000005 0.0
  endloop
endfacet
facet normal 0.0 -1.0 0.0
  outer loop
    vertex 170.2 10.200000000000005 5.629324132837058e-16
    vertex 174.19999999999996 10.200000000000005 5.0
    vertex 170.2 10.200000000000005 5.0
  endloop
endfacet
facet normal 1.0 0.0 0.0
  outer loop
    vertex 174.19999999999996 25.200000000000017 0.0
    vertex 174.19999999999996 20.200000000000017 5.0
    vertex 174.19999999999996 20.200000000000017 0.0
  endloop
endfacet
facet normal 1.0 0.0 0.0
  outer loop
    vertex 174.19999999999996 20.200000000000017 5.0
    vertex 174.19999999999996 25.200000000000017 0.0
    vertex 174.19999999999996 25.200000000000017 5.0
  endloop
endfacet
facet normal 1.0 0.0 0.0
  outer loop
    vertex 174.19999999999996 35.2 0.0
    vertex 174.19999999999996 30.200000000000014 5.0
    vertex 174.19999999999996 30.200000000000014 0.0
  endloop
endfacet
facet normal 1.0 0.0 0.0
  outer loop
    vertex 174.19999999999996 30.200000000000014 5.0
    vertex 174.19999999999996 35.2 0.0
    vertex 174.19999999999996 35.2 5.0
  endloop
endfacet
facet normal 0.0 -1.0 0.0
  outer loop
    vertex 174.19999999999996 20.200000000000017 5.0
    vertex 170.20000000000002 20.200000000000017 5.629324132837058e-16
    vertex 174.19999999999996 20.200000000000017 0.0
  endloop
endfacet
facet normal 0.0 -1.0 0.0
  outer loop
    vertex 170.20000000000002 20.200000000000017 5.629324132837058e-16
    vertex 174.19999999999996 20.200000000000017 5.0
    vertex 170.20000000000002 20.200000000000017 5.0
  endloop
endfacet
facet normal -0.0 1.0 -0.0
  outer loop
    vertex 170.20000000000002 15.200000000000006 5.629324132837058e-16
    vertex 174.19999999999996 15.200000000000006 5.0
    vertex 174.19999999999996 15.200000000000006 0.0
  endloop
endfacet
facet normal -0.0 1.0 -0.0
  outer loop
    vertex 174.19999999999996 15.200000000000006 5.0
    vertex 170.20000000000002 15.200000000000006 5.629324132837058e-16
    vertex 170.20000000000002 15.200000000000006 5.0
  endloop
endfacet
facet normal -0.0 -0.0 1.0
  outer loop
    vertex 174.19999999999996 10.200000000000005 5.0
    vertex 170.20000000000002 15.200000000000006 5.0
    vertex 170.2 10.200000000000005 5.0
  endloop
endfacet
facet normal -0.0 -0.0 1.0
  outer loop
    vertex 170.20000000000002 15.200000000000006 5.0
    vertex 174.19999999999996 10.200000000000005 5.0
    vertex 174.19999999999996 15.200000000000006 5.0
  endloop
endfacet
facet normal 0.0 -1.0 0.0
  outer loop
    vertex 174.19999999999996 30.200000000000014 5.0
    vertex 170.20000000000002 30.200000000000014 5.629324132837058e-16
    vertex 174.19999999999996 30.200000000000014 0.0
  endloop
endfacet
facet normal 0.0 -1.0 0.0
  outer loop
    vertex 170.20000000000002 30.200000000000014 5.629324132837058e-16
    vertex 174.19999999999996 30.200000000000014 5.0
    vertex 170.20000000000002 30.200000000000014 5.0
  endloop
endfacet
facet normal -0.0 1.0 -0.0
  outer loop
    vertex 170.20000000000002 25.200000000000017 5.629324132837058e-16
    vertex 174.19999999999996 25.200000000000017 5.0
    vertex 174.19999999999996 25.200000000000017 0.0
  endloop
endfacet
facet normal -0.0 1.0 -0.0
  outer loop
    vertex 174.19999999999996 25.200000000000017 5.0
    vertex 170.20000000000002 25.200000000000017 5.629324132837058e-16
    vertex 170.20000000000002 25.200000000000017 5.0
  endloop
endfacet
facet normal -0.0 -0.0 1.0
  outer loop
    vertex 174.19999999999996 20.200000000000017 5.0
    vertex 170.20000000000002 25.200000000000017 5.0
    vertex 170.20000000000002 20.200000000000017 5.0
  endloop
endfacet
facet normal -0.0 -0.0 1.0
  outer loop
    vertex 170.20000000000002 25.200000000000017 5.0
    vertex 174.19999999999996 20.200000000000017 5.0
    vertex 174.19999999999996 25.200000000000017 5.0
  endloop
endfacet
facet normal 0.0 -1.0 0.0
  outer loop
    vertex 137.00000032383798 36.20000000000012 7.499999999999997
    vertex 114.80000032383798 36.20000000000012 5.000000000000002
    vertex 137.00000032383798 36.20000000000012 5.000000000000002
  endloop
endfacet
facet normal 0.0 -1.0 0.0
  outer loop
    vertex 114.80000032383798 36.20000000000012 5.000000000000002
    vertex 137.00000032383798 36.20000000000012 7.499999999999997
    vertex 114.80000032383798 36.20000000000012 7.499999999999997
  endloop
endfacet
facet normal 0.0 1.0 0.0
  outer loop
    vertex 114.80000032383798 0.9999999999999981 7.499999999999997
    vertex 137.00000032383798 0.9999999999999981 5.000000000000002
    vertex 114.80000032383798 0.9999999999999981 5.000000000000002
  endloop
endfacet
facet normal 0.0 1.0 0.0
  outer loop
    vertex 137.00000032383798 0.9999999999999981 5.000000000000002
    vertex 114.80000032383798 0.9999999999999981 7.499999999999997
    vertex 137.00000032383798 0.9999999999999981 7.499999999999997
  endloop
endfacet
facet normal 1.0 0.0 0.0
  outer loop
    vertex 114.80000032383798 2.199999999999996 5.000000000000002
    vertex 114.80000032383798 0.9999999999999981 7.499999999999997
    vertex 114.80000032383798 0.9999999999999981 5.000000000000002
  endloop
endfacet
facet normal 1.0 0.0 0.0
  outer loop
    vertex 114.80000032383798 0.9999999999999981 7.499999999999997
    vertex 114.80000032383798 2.199999999999996 5.000000000000002
    vertex 114.80000032383798 36.20000000000012 7.499999999999997
  endloop
endfacet
facet normal 1.0 0.0 0.0
  outer loop
    vertex 114.80000032383798 36.20000000000012 7.499999999999997
    vertex 114.80000032383798 2.199999999999996 5.000000000000002
    vertex 114.80000032383798 8.2 5.000000000000002
  endloop
endfacet
facet normal 1.0 0.0 0.0
  outer loop
    vertex 114.80000032383798 36.20000000000012 7.499999999999997
    vertex 114.80000032383798 8.2 5.000000000000002
    vertex 114.80000032383798 36.20000000000012 5.000000000000002
  endloop
endfacet
facet normal -1.0 0.0 0.0
  outer loop
    vertex 137.00000032383798 36.20000000000012 7.499999999999997
    vertex 137.00000032383798 0.9999999999999981 5.000000000000002
    vertex 137.00000032383798 0.9999999999999981 7.499999999999997
  endloop
endfacet
facet normal -1.0 0.0 0.0
  outer loop
    vertex 137.00000032383798 0.9999999999999981 5.000000000000002
    vertex 137.00000032383798 36.20000000000012 7.499999999999997
    vertex 137.00000032383798 2.199999999999996 5.000000000000002
  endloop
endfacet
facet normal -1.0 0.0 0.0
  outer loop
    vertex 137.00000032383798 2.199999999999996 5.000000000000002
    vertex 137.00000032383798 36.20000000000012 7.499999999999997
    vertex 137.00000032383798 8.200000000000001 5.000000000000001
  endloop
endfacet
facet normal -1.0 0.0 0.0
  outer loop
    vertex 137.00000032383798 8.200000000000001 5.000000000000001
    vertex 137.00000032383798 36.20000000000012 7.499999999999997
    vertex 137.00000032383798 36.20000000000012 5.000000000000002
  endloop
endfacet
facet normal -0.0 -0.0 1.0
  outer loop
    vertex 137.00000032383798 0.9999999999999981 5.000000000000002
    vertex 114.80000032383798 2.199999999999996 5.000000000000002
    vertex 114.80000032383798 0.9999999999999981 5.000000000000002
  endloop
endfacet
facet normal -0.0 -0.0 1.0
  outer loop
    vertex 114.80000032383798 2.199999999999996 5.000000000000002
    vertex 137.00000032383798 0.9999999999999981 5.000000000000002
    vertex 137.00000032383798 2.199999999999996 5.000000000000002
  endloop
endfacet
facet normal 0.0 1.0 0.0
  outer loop
    vertex 84.6000000377251 0.999999999999998 7.499999999999987
    vertex 106.80000003772508 0.9999999999999981 4.999999999999995
    vertex 84.6000000377251 0.999999999999998 4.999999999999995
  endloop
endfacet
facet normal 0.0 1.0 0.0
  outer loop
    vertex 106.80000003772508 0.9999999999999981 4.999999999999995
    vertex 84.6000000377251 0.999999999999998 7.499999999999987
    vertex 106.80000003772508 0.9999999999999981 7.499999999999989
  endloop
endfacet
facet normal 0.0 -1.0 0.0
  outer loop
    vertex 106.80000003772508 36.20000000000012 7.499999999999989
    vertex 84.6000000377251 36.20000000000012 4.999999999999995
    vertex 106.80000003772508 36.20000000000012 4.999999999999995
  endloop
endfacet
facet normal 0.0 -1.0 0.0
  outer loop
    vertex 84.6000000377251 36.20000000000012 4.999999999999995
    vertex 106.80000003772508 36.20000000000012 7.499999999999989
    vertex 84.6000000377251 36.20000000000012 7.499999999999987
  endloop
endfacet
facet normal 1.0 -2.9051582863503325e-17 -1.0501283509449726e-15
  outer loop
    vertex 84.6000000377251 2.199999999999996 4.999999999999995
    vertex 84.6000000377251 0.999999999999998 7.499999999999987
    vertex 84.6000000377251 0.999999999999998 4.999999999999995
  endloop
endfacet
facet normal 1.0 -2.9051582863503325e-17 -1.0501283509449726e-15
  outer loop
    vertex 84.6000000377251 0.999999999999998 7.499999999999987
    vertex 84.6000000377251 2.199999999999996 4.999999999999995
    vertex 84.6000000377251 36.20000000000012 7.499999999999987
  endloop
endfacet
facet normal 1.0 -2.9051582863503325e-17 -1.0501283509449726e-15
  outer loop
    vertex 84.6000000377251 36.20000000000012 7.499999999999987
    vertex 84.6000000377251 2.199999999999996 4.999999999999995
    vertex 84.60000003772508 8.2 4.999999999999994
  endloop
endfacet
facet normal 1.0 -2.9051582863503325e-17 -1.0501283509449726e-15
  outer loop
    vertex 84.6000000377251 36.20000000000012 7.499999999999987
    vertex 84.60000003772508 8.2 4.999999999999994
    vertex 84.6000000377251 36.20000000000012 4.999999999999995
  endloop
endfacet
facet normal -1.0 2.905158286350331e-17 1.0501283509449724e-15
  outer loop
    vertex 106.80000003772508 36.20000000000012 7.499999999999989
    vertex 106.80000003772508 0.9999999999999981 4.999999999999995
    vertex 106.80000003772508 0.9999999999999981 7.499999999999989
  endloop
endfacet
facet normal -1.0 2.905158286350331e-17 1.0501283509449724e-15
  outer loop
    vertex 106.80000003772508 0.9999999999999981 4.999999999999995
    vertex 106.80000003772508 36.20000000000012 7.499999999999989
    vertex 106.80000003772508 2.199999999999996 4.999999999999995
  endloop
endfacet
facet normal -1.0 2.905158286350331e-17 1.0501283509449724e-15
  outer loop
    vertex 106.80000003772508 2.199999999999996 4.999999999999995
    vertex 106.80000003772508 36.20000000000012 7.499999999999989
    vertex 106.80000003772508 8.2 4.999999999999994
  endloop
endfacet
facet normal -1.0 2.905158286350331e-17 1.0501283509449724e-15
  outer loop
    vertex 106.80000003772508 8.2 4.999999999999994
    vertex 106.80000003772508 36.20000000000012 7.499999999999989
    vertex 106.80000003772508 36.20000000000012 4.999999999999995
  endloop
endfacet
facet normal -0.0 -0.0 1.0
  outer loop
    vertex 106.80000003772508 0.9999999999999981 4.999999999999995
    vertex 84.6000000377251 2.199999999999996 4.999999999999995
    vertex 84.6000000377251 0.999999999999998 4.999999999999995
  endloop
endfacet
facet normal -0.0 -0.0 1.0
  outer loop
    vertex 84.6000000377251 2.199999999999996 4.999999999999995
    vertex 106.80000003772508 0.9999999999999981 4.999999999999995
    vertex 106.80000003772508 2.199999999999996 4.999999999999995
  endloop
endfacet
facet normal -0.0 -0.0 1.0
  outer loop
    vertex 76.59999986761304 0.9999999999999981 5.000000000000002
    vertex 54.39999986761303 2.199999999999996 5.000000000000002
    vertex 54.39999986761303 0.9999999999999981 5.000000000000002
  endloop
endfacet
facet normal -0.0 -0.0 1.0
  outer loop
    vertex 54.39999986761303 2.199999999999996 5.000000000000002
    vertex 76.59999986761304 0.9999999999999981 5.000000000000002
    vertex 76.59999986761304 2.199999999999996 5.000000000000002
  endloop
endfacet
facet normal -1.0 0.0 0.0
  outer loop
    vertex 76.59999986761304 36.20000000000012 7.499999999999997
    vertex 76.59999986761304 0.9999999999999981 5.000000000000002
    vertex 76.59999986761304 0.9999999999999981 7.499999999999997
  endloop
endfacet
facet normal -1.0 0.0 0.0
  outer loop
    vertex 76.59999986761304 0.9999999999999981 5.000000000000002
    vertex 76.59999986761304 36.20000000000012 7.499999999999997
    vertex 76.59999986761304 2.199999999999996 5.000000000000002
  endloop
endfacet
facet normal -1.0 0.0 0.0
  outer loop
    vertex 76.59999986761304 2.199999999999996 5.000000000000002
    vertex 76.59999986761304 36.20000000000012 7.499999999999997
    vertex 76.59999986761304 8.2 5.000000000000002
  endloop
endfacet
facet normal -1.0 0.0 0.0
  outer loop
    vertex 76.59999986761304 8.2 5.000000000000002
    vertex 76.59999986761304 36.20000000000012 7.499999999999997
    vertex 76.59999986761304 36.20000000000012 5.000000000000002
  endloop
endfacet
facet normal 1.0 0.0 0.0
  outer loop
    vertex 54.39999986761303 2.199999999999996 5.000000000000002
    vertex 54.39999986761303 0.9999999999999981 7.499999999999997
    vertex 54.39999986761303 0.9999999999999981 5.000000000000002
  endloop
endfacet
facet normal 1.0 0.0 0.0
  outer loop
    vertex 54.39999986761303 0.9999999999999981 7.499999999999997
    vertex 54.39999986761303 2.199999999999996 5.000000000000002
    vertex 54.39999986761303 36.20000000000012 7.499999999999997
  endloop
endfacet
facet normal 1.0 0.0 0.0
  outer loop
    vertex 54.39999986761303 36.20000000000012 7.499999999999997
    vertex 54.39999986761303 2.199999999999996 5.000000000000002
    vertex 54.39999986761303 8.199999999999998 5.000000000000002
  endloop
endfacet
facet normal 1.0 0.0 0.0
  outer loop
    vertex 54.39999986761303 36.20000000000012 7.499999999999997
    vertex 54.39999986761303 8.199999999999998 5.000000000000002
    vertex 54.39999986761303 36.20000000000012 5.000000000000002
  endloop
endfacet
facet normal 0.0 -1.0 0.0
  outer loop
    vertex 76.59999986761304 36.20000000000012 7.499999999999997
    vertex 54.39999986761303 36.20000000000012 5.000000000000002
    vertex 76.59999986761304 36.20000000000012 5.000000000000002
  endloop
endfacet
facet normal 0.0 -1.0 0.0
  outer loop
    vertex 54.39999986761303 36.20000000000012 5.000000000000002
    vertex 76.59999986761304 36.20000000000012 7.499999999999997
    vertex 54.39999986761303 36.20000000000012 7.499999999999997
  endloop
endfacet
facet normal 0.0 1.0 0.0
  outer loop
    vertex 54.39999986761303 0.9999999999999981 7.499999999999997
    vertex 76.59999986761304 0.9999999999999981 5.000000000000002
    vertex 54.39999986761303 0.9999999999999981 5.000000000000002
  endloop
endfacet
facet normal 0.0 1.0 0.0
  outer loop
    vertex 76.59999986761304 0.9999999999999981 5.000000000000002
    vertex 54.39999986761303 0.9999999999999981 7.499999999999997
    vertex 76.59999986761304 0.9999999999999981 7.499999999999997
  endloop
endfacet
facet normal 1.0 0.0 0.0
  outer loop
    vertex 24.199999491052274 2.199999999999996 5.000000000000002
    vertex 24.199999491052274 0.9999999999999981 7.499999999999997
    vertex 24.199999491052274 0.9999999999999981 5.000000000000002
  endloop
endfacet
facet normal 1.0 0.0 0.0
  outer loop
    vertex 24.199999491052274 0.9999999999999981 7.499999999999997
    vertex 24.199999491052274 2.199999999999996 5.000000000000002
    vertex 24.199999491052274 36.20000000000012 7.499999999999997
  endloop
endfacet
facet normal 1.0 0.0 0.0
  outer loop
    vertex 24.199999491052274 36.20000000000012 7.499999999999997
    vertex 24.199999491052274 2.199999999999996 5.000000000000002
    vertex 24.199999491052274 8.19999999999999 5.000000000000002
  endloop
endfacet
facet normal 1.0 0.0 0.0
  outer loop
    vertex 24.199999491052274 36.20000000000012 7.499999999999997
    vertex 24.199999491052274 8.19999999999999 5.000000000000002
    vertex 24.199999491052274 36.20000000000012 5.000000000000002
  endloop
endfacet
facet normal 0.0 1.0 0.0
  outer loop
    vertex 24.199999491052274 0.9999999999999981 7.499999999999997
    vertex 46.39999949105226 0.9999999999999983 5.0000000000000115
    vertex 24.199999491052274 0.9999999999999981 5.000000000000002
  endloop
endfacet
facet normal 0.0 1.0 0.0
  outer loop
    vertex 46.39999949105226 0.9999999999999983 5.0000000000000115
    vertex 24.199999491052274 0.9999999999999981 7.499999999999997
    vertex 46.39999949105226 0.9999999999999983 7.500000000000002
  endloop
endfacet
facet normal 0.0 -1.0 0.0
  outer loop
    vertex 46.39999949105226 36.20000000000012 5.0000000000000115
    vertex 24.199999491052274 36.20000000000012 7.499999999999997
    vertex 24.199999491052274 36.20000000000012 5.000000000000002
  endloop
endfacet
facet normal 0.0 -1.0 0.0
  outer loop
    vertex 24.199999491052274 36.20000000000012 7.499999999999997
    vertex 46.39999949105226 36.20000000000012 5.0000000000000115
    vertex 46.39999949105226 36.20000000000012 7.500000000000002
  endloop
endfacet
facet normal -0.0 -0.0 1.0
  outer loop
    vertex 46.39999949105226 0.9999999999999983 5.0000000000000115
    vertex 24.199999491052274 2.199999999999996 5.000000000000002
    vertex 24.199999491052274 0.9999999999999981 5.000000000000002
  endloop
endfacet
facet normal -0.0 -0.0 1.0
  outer loop
    vertex 24.199999491052274 2.199999999999996 5.000000000000002
    vertex 46.39999949105226 0.9999999999999983 5.0000000000000115
    vertex 46.39999949105226 2.199999999999996 5.0000000000000115
  endloop
endfacet
facet normal -1.0 -1.4525791431751684e-17 -5.250641754724859e-16
  outer loop
    vertex 46.39999949105226 36.20000000000012 7.500000000000002
    vertex 46.39999949105226 0.9999999999999983 5.0000000000000115
    vertex 46.39999949105226 0.9999999999999983 7.500000000000002
  endloop
endfacet
facet normal -1.0 -1.4525791431751684e-17 -5.250641754724859e-16
  outer loop
    vertex 46.39999949105226 0.9999999999999983 5.0000000000000115
    vertex 46.39999949105226 36.20000000000012 7.500000000000002
    vertex 46.39999949105226 2.199999999999996 5.0000000000000115
  endloop
endfacet
facet normal -1.0 -1.4525791431751684e-17 -5.250641754724859e-16
  outer loop
    vertex 46.39999949105226 2.199999999999996 5.0000000000000115
    vertex 46.39999949105226 36.20000000000012 7.500000000000002
    vertex 46.39999949105226 8.199999999999996 5.0000000000000115
  endloop
endfacet
facet normal -1.0 -1.4525791431751684e-17 -5.250641754724859e-16
  outer loop
    vertex 46.39999949105226 8.199999999999996 5.0000000000000115
    vertex 46.39999949105226 36.20000000000012 7.500000000000002
    vertex 46.39999949105226 36.20000000000012 5.0000000000000115
  endloop
endfacet
facet normal 1.0 0.0 0.0
  outer loop
    vertex -6.0000005525938995 2.199999999999996 5.000000000000002
    vertex -6.0000005525938995 0.9999999999999981 7.499999999999997
    vertex -6.0000005525938995 0.9999999999999981 5.000000000000002
  endloop
endfacet
facet normal 1.0 0.0 0.0
  outer loop
    vertex -6.0000005525938995 0.9999999999999981 7.499999999999997
    vertex -6.0000005525938995 2.199999999999996 5.000000000000002
    vertex -6.0000005525938995 36.20000000000012 7.499999999999997
  endloop
endfacet
facet normal 1.0 0.0 0.0
  outer loop
    vertex -6.0000005525938995 36.20000000000012 7.499999999999997
    vertex -6.0000005525938995 2.199999999999996 5.000000000000002
    vertex -6.0000005525938995 8.199999999999989 5.000000000000002
  endloop
endfacet
facet normal 1.0 0.0 0.0
  outer loop
    vertex -6.0000005525938995 36.20000000000012 7.499999999999997
    vertex -6.0000005525938995 8.199999999999989 5.000000000000002
    vertex -6.0000005525938995 36.20000000000012 5.000000000000002
  endloop
endfacet
facet normal 0.0 0.0 1.0
  outer loop
    vertex 16.1999994474061 0.9999999999999981 5.000000000000002
    vertex -6.0000005525938995 2.199999999999996 5.000000000000002
    vertex -6.0000005525938995 0.9999999999999981 5.000000000000002
  endloop
endfacet
facet normal 0.0 0.0 1.0
  outer loop
    vertex -6.0000005525938995 2.199999999999996 5.000000000000002
    vertex 16.1999994474061 0.9999999999999981 5.000000000000002
    vertex 16.1999994474061 2.199999999999996 5.000000000000002
  endloop
endfacet
facet normal -1.0 0.0 0.0
  outer loop
    vertex 16.1999994474061 36.20000000000012 7.499999999999997
    vertex 16.1999994474061 0.9999999999999981 5.000000000000002
    vertex 16.1999994474061 0.9999999999999981 7.499999999999997
  endloop
endfacet
facet normal -1.0 0.0 0.0
  outer loop
    vertex 16.1999994474061 0.9999999999999981 5.000000000000002
    vertex 16.1999994474061 36.20000000000012 7.499999999999997
    vertex 16.1999994474061 2.199999999999996 5.000000000000002
  endloop
endfacet
facet normal -1.0 0.0 0.0
  outer loop
    vertex 16.1999994474061 2.199999999999996 5.000000000000002
    vertex 16.1999994474061 36.20000000000012 7.499999999999997
    vertex 16.1999994474061 8.19999999999999 5.000000000000002
  endloop
endfacet
facet normal -1.0 0.0 0.0
  outer loop
    vertex 16.1999994474061 8.19999999999999 5.000000000000002
    vertex 16.1999994474061 36.20000000000012 7.499999999999997
    vertex 16.1999994474061 36.20000000000012 5.000000000000002
  endloop
endfacet
facet normal 0.0 -1.0 0.0
  outer loop
    vertex 16.1999994474061 36.20000000000012 7.499999999999997
    vertex -6.0000005525938995 36.20000000000012 5.000000000000002
    vertex 16.1999994474061 36.20000000000012 5.000000000000002
  endloop
endfacet
facet normal 0.0 -1.0 0.0
  outer loop
    vertex -6.0000005525938995 36.20000000000012 5.000000000000002
    vertex 16.1999994474061 36.20000000000012 7.499999999999997
    vertex -6.0000005525938995 36.20000000000012 7.499999999999997
  endloop
endfacet
facet normal 0.0 1.0 0.0
  outer loop
    vertex -6.0000005525938995 0.9999999999999981 7.499999999999997
    vertex 16.1999994474061 0.9999999999999981 5.000000000000002
    vertex -6.0000005525938995 0.9999999999999981 5.000000000000002
  endloop
endfacet
facet normal 0.0 1.0 0.0
  outer loop
    vertex 16.1999994474061 0.9999999999999981 5.000000000000002
    vertex -6.0000005525938995 0.9999999999999981 7.499999999999997
    vertex 16.1999994474061 0.9999999999999981 7.499999999999997
  endloop
endfacet
facet normal -1.0 0.0 0.0
  outer loop
    vertex -14.00000010788902 36.20000000000012 7.499999999999997
    vertex -14.00000010788902 0.9999999999999981 5.000000000000002
    vertex -14.00000010788902 0.9999999999999981 7.499999999999997
  endloop
endfacet
facet normal -1.0 0.0 0.0
  outer loop
    vertex -14.00000010788902 0.9999999999999981 5.000000000000002
    vertex -14.00000010788902 36.20000000000012 7.499999999999997
    vertex -14.00000010788902 2.199999999999996 5.000000000000002
  endloop
endfacet
facet normal -1.0 0.0 0.0
  outer loop
    vertex -14.00000010788902 2.199999999999996 5.000000000000002
    vertex -14.00000010788902 36.20000000000012 7.499999999999997
    vertex -14.00000010788902 8.199999999999989 5.000000000000002
  endloop
endfacet
facet normal -1.0 0.0 0.0
  outer loop
    vertex -14.00000010788902 8.199999999999989 5.000000000000002
    vertex -14.00000010788902 36.20000000000012 7.499999999999997
    vertex -14.00000010788902 36.20000000000012 5.000000000000002
  endloop
endfacet
facet normal 1.0 0.0 0.0
  outer loop
    vertex -36.20000010788905 2.199999999999996 5.000000000000002
    vertex -36.20000010788905 0.9999999999999981 7.499999999999997
    vertex -36.20000010788905 0.9999999999999981 5.000000000000002
  endloop
endfacet
facet normal 1.0 0.0 0.0
  outer loop
    vertex -36.20000010788905 0.9999999999999981 7.499999999999997
    vertex -36.20000010788905 2.199999999999996 5.000000000000002
    vertex -36.20000010788905 36.20000000000012 7.499999999999997
  endloop
endfacet
facet normal 1.0 0.0 0.0
  outer loop
    vertex -36.20000010788905 36.20000000000012 7.499999999999997
    vertex -36.20000010788905 2.199999999999996 5.000000000000002
    vertex -36.20000010788905 8.199999999999989 5.000000000000002
  endloop
endfacet
facet normal 1.0 0.0 0.0
  outer loop
    vertex -36.20000010788905 36.20000000000012 7.499999999999997
    vertex -36.20000010788905 8.199999999999989 5.000000000000002
    vertex -36.20000010788905 36.20000000000012 5.000000000000002
  endloop
endfacet
facet normal 0.0 -1.0 0.0
  outer loop
    vertex -14.00000010788902 36.20000000000012 7.499999999999997
    vertex -36.20000010788905 36.20000000000012 5.000000000000002
    vertex -14.00000010788902 36.20000000000012 5.000000000000002
  endloop
endfacet
facet normal 0.0 -1.0 0.0
  outer loop
    vertex -36.20000010788905 36.20000000000012 5.000000000000002
    vertex -14.00000010788902 36.20000000000012 7.499999999999997
    vertex -36.20000010788905 36.20000000000012 7.499999999999997
  endloop
endfacet
facet normal 0.0 1.0 0.0
  outer loop
    vertex -36.20000010788905 0.9999999999999981 7.499999999999997
    vertex -14.00000010788902 0.9999999999999981 5.000000000000002
    vertex -36.20000010788905 0.9999999999999981 5.000000000000002
  endloop
endfacet
facet normal 0.0 1.0 0.0
  outer loop
    vertex -14.00000010788902 0.9999999999999981 5.000000000000002
    vertex -36.20000010788905 0.9999999999999981 7.499999999999997
    vertex -14.00000010788902 0.9999999999999981 7.499999999999997
  endloop
endfacet
facet normal -0.0 -0.0 1.0
  outer loop
    vertex 167.19999999999996 8.200000000000001 5.0
    vertex 144.99999999999997 36.20000000000001 5.0
    vertex 144.99999999999997 8.200000000000001 5.0
  endloop
endfacet
facet normal -0.0 -0.0 1.0
  outer loop
    vertex 144.99999999999997 36.20000000000001 5.0
    vertex 167.19999999999996 8.200000000000001 5.0
    vertex 167.2 36.20000000000001 5.0
  endloop
endfacet
facet normal 1.5878189653985902e-17 -1.2589136082803059e-17 1.0
  outer loop
    vertex 76.59999986761304 8.2 5.000000000000002
    vertex 54.39999986761303 36.20000000000012 5.000000000000002
    vertex 54.39999986761303 8.199999999999998 5.000000000000002
  endloop
endfacet
facet normal 1.5878189653985902e-17 -1.2589136082803059e-17 1.0
  outer loop
    vertex 54.39999986761303 36.20000000000012 5.000000000000002
    vertex 76.59999986761304 8.2 5.000000000000002
    vertex 76.59999986761304 36.20000000000012 5.000000000000002
  endloop
endfacet
facet normal -0.0 -0.0 1.0
  outer loop
    vertex -14.00000010788902 8.199999999999989 5.000000000000002
    vertex -36.20000010788905 36.20000000000012 5.000000000000002
    vertex -36.20000010788905 8.199999999999989 5.000000000000002
  endloop
endfacet
facet normal -0.0 -0.0 1.0
  outer loop
    vertex -36.20000010788905 36.20000000000012 5.000000000000002
    vertex -14.00000010788902 8.199999999999989 5.000000000000002
    vertex -14.00000010788902 36.20000000000012 5.000000000000002
  endloop
endfacet
facet normal -0.0 -0.0 1.0
  outer loop
    vertex 46.39999949105226 8.199999999999996 5.0000000000000115
    vertex 24.199999491052274 36.20000000000012 5.000000000000002
    vertex 24.199999491052274 8.19999999999999 5.000000000000002
  endloop
endfacet
facet normal -0.0 -0.0 1.0
  outer loop
    vertex 24.199999491052274 36.20000000000012 5.000000000000002
    vertex 46.39999949105226 8.199999999999996 5.0000000000000115
    vertex 46.39999949105226 36.20000000000012 5.0000000000000115
  endloop
endfacet
facet normal -0.0 -0.0 1.0
  outer loop
    vertex 24.199999491052274 2.199999999999996 5.000000000000002
    vertex 16.1999994474061 8.19999999999999 5.000000000000002
    vertex 16.1999994474061 2.199999999999996 5.000000000000002
  endloop
endfacet
facet normal -0.0 -0.0 1.0
  outer loop
    vertex 16.1999994474061 8.19999999999999 5.000000000000002
    vertex 24.199999491052274 2.199999999999996 5.000000000000002
    vertex 24.199999491052274 8.19999999999999 5.000000000000002
  endloop
endfacet
facet normal -0.0 -0.0 1.0
  outer loop
    vertex 167.2 2.199999999999996 5.0
    vertex 170.2 8.200000000000001 5.0
    vertex 167.19999999999996 8.200000000000001 5.0
  endloop
endfacet
facet normal -0.0 -0.0 1.0
  outer loop
    vertex 170.2 8.200000000000001 5.0
    vertex 167.2 2.199999999999996 5.0
    vertex 170.2 2.1999999999999957 5.0
  endloop
endfacet
facet normal 2.088077582528265e-34 -1.1749860343949566e-16 -1.0
  outer loop
    vertex 114.80000032383798 8.2 5.000000000000002
    vertex 106.80000003772508 2.199999999999996 4.999999999999995
    vertex 106.80000003772508 8.2 4.999999999999994
  endloop
endfacet
facet normal 2.088077582528265e-34 -1.1749860343949566e-16 -1.0
  outer loop
    vertex 106.80000003772508 2.199999999999996 4.999999999999995
    vertex 114.80000032383798 8.2 5.000000000000002
    vertex 114.80000032383798 2.199999999999996 5.000000000000002
  endloop
endfacet
facet normal -0.0 -0.0 1.0
  outer loop
    vertex 16.1999994474061 8.19999999999999 5.000000000000002
    vertex -6.0000005525938995 36.20000000000012 5.000000000000002
    vertex -6.0000005525938995 8.199999999999989 5.000000000000002
  endloop
endfacet
facet normal -0.0 -0.0 1.0
  outer loop
    vertex -6.0000005525938995 36.20000000000012 5.000000000000002
    vertex 16.1999994474061 8.19999999999999 5.000000000000002
    vertex 16.1999994474061 36.20000000000012 5.000000000000002
  endloop
endfacet
facet normal 1.1477715412964975e-16 1.174986034394956e-16 1.0
  outer loop
    vertex 144.99999999999997 2.199999999999996 5.0
    vertex 137.00000032383798 8.200000000000001 5.000000000000001
    vertex 137.00000032383798 2.199999999999996 5.000000000000002
  endloop
endfacet
facet normal 1.1477715412964975e-16 1.174986034394956e-16 1.0
  outer loop
    vertex 137.00000032383798 8.200000000000001 5.000000000000001
    vertex 144.99999999999997 2.199999999999996 5.0
    vertex 144.99999999999997 8.200000000000001 5.0
  endloop
endfacet
facet normal 1.5878189653985905e-17 -3.7767408248409184e-17 1.0
  outer loop
    vertex 137.00000032383798 8.200000000000001 5.000000000000001
    vertex 114.80000032383798 36.20000000000012 5.000000000000002
    vertex 114.80000032383798 8.2 5.000000000000002
  endloop
endfacet
facet normal 1.5878189653985905e-17 -3.7767408248409184e-17 1.0
  outer loop
    vertex 114.80000032383798 36.20000000000012 5.000000000000002
    vertex 137.00000032383798 8.200000000000001 5.000000000000001
    vertex 137.00000032383798 36.20000000000012 5.000000000000002
  endloop
endfacet
facet normal -0.0 -0.0 1.0
  outer loop
    vertex 54.39999986761303 2.199999999999996 5.000000000000002
    vertex 46.39999949105226 8.199999999999996 5.0000000000000115
    vertex 46.39999949105226 2.199999999999996 5.0000000000000115
  endloop
endfacet
facet normal -0.0 -0.0 1.0
  outer loop
    vertex 46.39999949105226 8.199999999999996 5.0000000000000115
    vertex 54.39999986761303 2.199999999999996 5.000000000000002
    vertex 54.39999986761303 8.199999999999998 5.000000000000002
  endloop
endfacet
facet normal -2.29972237470211e-34 1.1749860343949566e-16 1.0
  outer loop
    vertex 84.6000000377251 2.199999999999996 4.999999999999995
    vertex 76.59999986761304 8.2 5.000000000000002
    vertex 76.59999986761304 2.199999999999996 5.000000000000002
  endloop
endfacet
facet normal -2.29972237470211e-34 1.1749860343949566e-16 1.0
  outer loop
    vertex 76.59999986761304 8.2 5.000000000000002
    vertex 84.6000000377251 2.199999999999996 4.999999999999995
    vertex 84.60000003772508 8.2 4.999999999999994
  endloop
endfacet
facet normal 3.3135364878980395e-34 -2.5178272165606127e-17 1.0
  outer loop
    vertex 106.80000003772508 8.2 4.999999999999994
    vertex 84.6000000377251 36.20000000000012 4.999999999999995
    vertex 84.60000003772508 8.2 4.999999999999994
  endloop
endfacet
facet normal 3.3135364878980395e-34 -2.5178272165606127e-17 1.0
  outer loop
    vertex 84.6000000377251 36.20000000000012 4.999999999999995
    vertex 106.80000003772508 8.2 4.999999999999994
    vertex 106.80000003772508 36.20000000000012 4.999999999999995
  endloop
endfacet
facet normal 0.0 -1.0 0.0
  outer loop
    vertex -44.19999999892392 36.20000000000012 7.499999999999997
    vertex -66.39999999892393 36.20000000000012 5.000000000000002
    vertex -44.19999999892392 36.20000000000012 5.000000000000002
  endloop
endfacet
facet normal 0.0 -1.0 0.0
  outer loop
    vertex -66.39999999892393 36.20000000000012 5.000000000000002
    vertex -44.19999999892392 36.20000000000012 7.499999999999997
    vertex -66.39999999892393 36.20000000000012 7.499999999999997
  endloop
endfacet
facet normal -0.0 -0.0 1.0
  outer loop
    vertex -44.19999999892392 8.199999999999985 5.000000000000002
    vertex -66.39999999892393 36.20000000000012 5.000000000000002
    vertex -66.39999999892393 8.199999999999985 5.000000000000002
  endloop
endfacet
facet normal -0.0 -0.0 1.0
  outer loop
    vertex -66.39999999892393 36.20000000000012 5.000000000000002
    vertex -44.19999999892392 8.199999999999985 5.000000000000002
    vertex -44.19999999892392 36.20000000000012 5.000000000000002
  endloop
endfacet
facet normal 0.0 -1.0 0.0
  outer loop
    vertex 170.2 -4.853856367863348e-16 5.629324132837058e-16
    vertex -69.4000000000001 0.0 7.499999999999997
    vertex -69.4000000000001 0.0 0.0
  endloop
endfacet
facet normal 0.0 -1.0 0.0
  outer loop
    vertex -69.4000000000001 0.0 7.499999999999997
    vertex 170.2 -4.853856367863348e-16 5.629324132837058e-16
    vertex 170.2 -4.853856367863348e-16 7.499999999999997
  endloop
endfacet
facet normal 1.0 0.0 0.0
  outer loop
    vertex -66.39999999892393 2.199999999999996 5.000000000000002
    vertex -66.39999999892393 0.9999999999999981 7.499999999999997
    vertex -66.39999999892393 0.9999999999999981 5.000000000000002
  endloop
endfacet
facet normal 1.0 0.0 0.0
  outer loop
    vertex -66.39999999892393 0.9999999999999981 7.499999999999997
    vertex -66.39999999892393 2.199999999999996 5.000000000000002
    vertex -66.39999999892393 36.20000000000012 7.499999999999997
  endloop
endfacet
facet normal 1.0 0.0 0.0
  outer loop
    vertex -66.39999999892393 36.20000000000012 7.499999999999997
    vertex -66.39999999892393 2.199999999999996 5.000000000000002
    vertex -66.39999999892393 8.199999999999985 5.000000000000002
  endloop
endfacet
facet normal 1.0 0.0 0.0
  outer loop
    vertex -66.39999999892393 36.20000000000012 7.499999999999997
    vertex -66.39999999892393 8.199999999999985 5.000000000000002
    vertex -66.39999999892393 36.20000000000012 5.000000000000002
  endloop
endfacet
facet normal 1.8586833164707023e-16 1.0 1.6608016270094034e-15
  outer loop
    vertex -69.4000000000001 37.2 7.499999999999997
    vertex 170.2 37.2 5.629324132837058e-16
    vertex -69.4000000000001 37.2 0.0
  endloop
endfacet
facet normal 1.8586833164707023e-16 1.0 1.6608016270094034e-15
  outer loop
    vertex 170.2 37.2 5.629324132837058e-16
    vertex -69.4000000000001 37.2 7.499999999999997
    vertex 170.2 37.2 7.499999999999997
  endloop
endfacet
facet normal 0.0 0.0 -1.0
  outer loop
    vertex -66.39999999892393 8.199999999999985 5.000000000000002
    vertex -69.4000000000001 2.199999999999996 5.000000000000002
    vertex -69.4000000000001 8.199999999999985 5.000000000000002
  endloop
endfacet
facet normal 0.0 0.0 -1.0
  outer loop
    vertex -69.4000000000001 2.199999999999996 5.000000000000002
    vertex -66.39999999892393 8.199999999999985 5.000000000000002
    vertex -66.39999999892393 2.199999999999996 5.000000000000002
  endloop
endfacet
facet normal -0.0 -0.0 1.0
  outer loop
    vertex -44.19999999892392 0.9999999999999981 5.000000000000002
    vertex -66.39999999892393 2.199999999999996 5.000000000000002
    vertex -66.39999999892393 0.9999999999999981 5.000000000000002
  endloop
endfacet
facet normal -0.0 -0.0 1.0
  outer loop
    vertex -66.39999999892393 2.199999999999996 5.000000000000002
    vertex -44.19999999892392 0.9999999999999981 5.000000000000002
    vertex -44.19999999892392 2.199999999999996 5.000000000000002
  endloop
endfacet
facet normal -0.0 -0.0 1.0
  outer loop
    vertex -69.4000000000001 0.0 7.499999999999997
    vertex -66.39999999892393 0.9999999999999981 7.499999999999997
    vertex -69.4000000000001 37.2 7.499999999999997
  endloop
endfacet
facet normal -0.0 -0.0 1.0
  outer loop
    vertex -66.39999999892393 0.9999999999999981 7.499999999999997
    vertex -69.4000000000001 0.0 7.499999999999997
    vertex 170.2 -4.853856367863348e-16 7.499999999999997
  endloop
endfacet
facet normal -0.0 -0.0 1.0
  outer loop
    vertex -66.39999999892393 0.9999999999999981 7.499999999999997
    vertex 170.2 -4.853856367863348e-16 7.499999999999997
    vertex -44.19999999892392 0.9999999999999981 7.499999999999997
  endloop
endfacet
facet normal -0.0 -0.0 1.0
  outer loop
    vertex -44.19999999892392 0.9999999999999981 7.499999999999997
    vertex 170.2 -4.853856367863348e-16 7.499999999999997
    vertex -36.20000010788905 0.9999999999999981 7.499999999999997
  endloop
endfacet
facet normal -0.0 -0.0 1.0
  outer loop
    vertex -44.19999999892392 0.9999999999999981 7.499999999999997
    vertex -36.20000010788905 0.9999999999999981 7.499999999999997
    vertex -44.19999999892392 36.20000000000012 7.499999999999997
  endloop
endfacet
facet normal -0.0 -0.0 1.0
  outer loop
    vertex -36.20000010788905 0.9999999999999981 7.499999999999997
    vertex 170.2 -4.853856367863348e-16 7.499999999999997
    vertex -14.00000010788902 0.9999999999999981 7.499999999999997
  endloop
endfacet
facet normal -0.0 -0.0 1.0
  outer loop
    vertex -14.00000010788902 0.9999999999999981 7.499999999999997
    vertex 170.2 -4.853856367863348e-16 7.499999999999997
    vertex -6.0000005525938995 0.9999999999999981 7.499999999999997
  endloop
endfacet
facet normal -0.0 -0.0 1.0
  outer loop
    vertex -14.00000010788902 0.9999999999999981 7.499999999999997
    vertex -6.0000005525938995 0.9999999999999981 7.499999999999997
    vertex -14.00000010788902 36.20000000000012 7.499999999999997
  endloop
endfacet
facet normal -0.0 -0.0 1.0
  outer loop
    vertex -6.0000005525938995 0.9999999999999981 7.499999999999997
    vertex 170.2 -4.853856367863348e-16 7.499999999999997
    vertex 16.1999994474061 0.9999999999999981 7.499999999999997
  endloop
endfacet
facet normal -0.0 -0.0 1.0
  outer loop
    vertex 16.1999994474061 0.9999999999999981 7.499999999999997
    vertex 170.2 -4.853856367863348e-16 7.499999999999997
    vertex 24.199999491052274 0.9999999999999981 7.499999999999997
  endloop
endfacet
facet normal -0.0 -0.0 1.0
  outer loop
    vertex 16.1999994474061 0.9999999999999981 7.499999999999997
    vertex 24.199999491052274 0.9999999999999981 7.499999999999997
    vertex 16.1999994474061 36.20000000000012 7.499999999999997
  endloop
endfacet
facet normal -0.0 -0.0 1.0
  outer loop
    vertex 24.199999491052274 0.9999999999999981 7.499999999999997
    vertex 170.2 -4.853856367863348e-16 7.499999999999997
    vertex 46.39999949105226 0.9999999999999983 7.500000000000002
  endloop
endfacet
facet normal -0.0 -0.0 1.0
  outer loop
    vertex 46.39999949105226 0.9999999999999983 7.500000000000002
    vertex 170.2 -4.853856367863348e-16 7.499999999999997
    vertex 54.39999986761303 0.9999999999999981 7.499999999999997
  endloop
endfacet
facet normal -0.0 -0.0 1.0
  outer loop
    vertex 46.39999949105226 0.9999999999999983 7.500000000000002
    vertex 54.39999986761303 0.9999999999999981 7.499999999999997
    vertex 46.39999949105226 36.20000000000012 7.500000000000002
  endloop
endfacet
facet normal -0.0 -0.0 1.0
  outer loop
    vertex 54.39999986761303 0.9999999999999981 7.499999999999997
    vertex 170.2 -4.853856367863348e-16 7.499999999999997
    vertex 76.59999986761304 0.9999999999999981 7.499999999999997
  endloop
endfacet
facet normal -0.0 -0.0 1.0
  outer loop
    vertex 76.59999986761304 0.9999999999999981 7.499999999999997
    vertex 170.2 -4.853856367863348e-16 7.499999999999997
    vertex 84.6000000377251 0.999999999999998 7.499999999999987
  endloop
endfacet
facet normal -0.0 -0.0 1.0
  outer loop
    vertex 76.59999986761304 0.9999999999999981 7.499999999999997
    vertex 84.6000000377251 0.999999999999998 7.499999999999987
    vertex 76.59999986761304 36.20000000000012 7.499999999999997
  endloop
endfacet
facet normal -0.0 -0.0 1.0
  outer loop
    vertex 84.6000000377251 0.999999999999998 7.499999999999987
    vertex 170.2 -4.853856367863348e-16 7.499999999999997
    vertex 106.80000003772508 0.9999999999999981 7.499999999999989
  endloop
endfacet
facet normal -0.0 -0.0 1.0
  outer loop
    vertex 106.80000003772508 0.9999999999999981 7.499999999999989
    vertex 170.2 -4.853856367863348e-16 7.499999999999997
    vertex 114.80000032383798 0.9999999999999981 7.499999999999997
  endloop
endfacet
facet normal -0.0 -0.0 1.0
  outer loop
    vertex 106.80000003772508 0.9999999999999981 7.499999999999989
    vertex 114.80000032383798 0.9999999999999981 7.499999999999997
    vertex 106.80000003772508 36.20000000000012 7.499999999999989
  endloop
endfacet
facet normal -0.0 -0.0 1.0
  outer loop
    vertex 114.80000032383798 0.9999999999999981 7.499999999999997
    vertex 170.2 -4.853856367863348e-16 7.499999999999997
    vertex 137.00000032383798 0.9999999999999981 7.499999999999997
  endloop
endfacet
facet normal -0.0 -0.0 1.0
  outer loop
    vertex 137.00000032383798 0.9999999999999981 7.499999999999997
    vertex 170.2 -4.853856367863348e-16 7.499999999999997
    vertex 144.99999999999997 1.0000000000000038 7.499999999999997
  endloop
endfacet
facet normal -0.0 -0.0 1.0
  outer loop
    vertex 137.00000032383798 0.9999999999999981 7.499999999999997
    vertex 144.99999999999997 1.0000000000000038 7.499999999999997
    vertex 137.00000032383798 36.20000000000012 7.499999999999997
  endloop
endfacet
facet normal -0.0 -0.0 1.0
  outer loop
    vertex 144.99999999999997 1.0000000000000038 7.499999999999997
    vertex 170.2 -4.853856367863348e-16 7.499999999999997
    vertex 167.2 1.0000000000000038 7.499999999999997
  endloop
endfacet
facet normal -0.0 -0.0 1.0
  outer loop
    vertex 167.2 1.0000000000000038 7.499999999999997
    vertex 170.2 -4.853856367863348e-16 7.499999999999997
    vertex 167.2 36.20000000000001 7.499999999999997
  endloop
endfacet
facet normal -0.0 -0.0 1.0
  outer loop
    vertex -69.4000000000001 37.2 7.499999999999997
    vertex -66.39999999892393 36.20000000000012 7.499999999999997
    vertex 170.2 37.2 7.499999999999997
  endloop
endfacet
facet normal -0.0 -0.0 1.0
  outer loop
    vertex -66.39999999892393 36.20000000000012 7.499999999999997
    vertex -69.4000000000001 37.2 7.499999999999997
    vertex -66.39999999892393 0.9999999999999981 7.499999999999997
  endloop
endfacet
facet normal -0.0 -0.0 1.0
  outer loop
    vertex 170.2 37.2 7.499999999999997
    vertex -66.39999999892393 36.20000000000012 7.499999999999997
    vertex -44.19999999892392 36.20000000000012 7.499999999999997
  endloop
endfacet
facet normal -0.0 -0.0 1.0
  outer loop
    vertex 170.2 37.2 7.499999999999997
    vertex -44.19999999892392 36.20000000000012 7.499999999999997
    vertex -36.20000010788905 36.20000000000012 7.499999999999997
  endloop
endfacet
facet normal -0.0 -0.0 1.0
  outer loop
    vertex -36.20000010788905 36.20000000000012 7.499999999999997
    vertex -44.19999999892392 36.20000000000012 7.499999999999997
    vertex -36.20000010788905 0.9999999999999981 7.499999999999997
  endloop
endfacet
facet normal -0.0 -0.0 1.0
  outer loop
    vertex 170.2 37.2 7.499999999999997
    vertex -36.20000010788905 36.20000000000012 7.499999999999997
    vertex -14.00000010788902 36.20000000000012 7.499999999999997
  endloop
endfacet
facet normal -0.0 -0.0 1.0
  outer loop
    vertex 170.2 37.2 7.499999999999997
    vertex -14.00000010788902 36.20000000000012 7.499999999999997
    vertex -6.0000005525938995 36.20000000000012 7.499999999999997
  endloop
endfacet
facet normal -0.0 -0.0 1.0
  outer loop
    vertex -6.0000005525938995 36.20000000000012 7.499999999999997
    vertex -14.00000010788902 36.20000000000012 7.499999999999997
    vertex -6.0000005525938995 0.9999999999999981 7.499999999999997
  endloop
endfacet
facet normal -0.0 -0.0 1.0
  outer loop
    vertex 170.2 37.2 7.499999999999997
    vertex -6.0000005525938995 36.20000000000012 7.499999999999997
    vertex 16.1999994474061 36.20000000000012 7.499999999999997
  endloop
endfacet
facet normal -0.0 -0.0 1.0
  outer loop
    vertex 170.2 37.2 7.499999999999997
    vertex 16.1999994474061 36.20000000000012 7.499999999999997
    vertex 24.199999491052274 36.20000000000012 7.499999999999997
  endloop
endfacet
facet normal -0.0 -0.0 1.0
  outer loop
    vertex 24.199999491052274 36.20000000000012 7.499999999999997
    vertex 16.1999994474061 36.20000000000012 7.499999999999997
    vertex 24.199999491052274 0.9999999999999981 7.499999999999997
  endloop
endfacet
facet normal -0.0 -0.0 1.0
  outer loop
    vertex 170.2 37.2 7.499999999999997
    vertex 24.199999491052274 36.20000000000012 7.499999999999997
    vertex 46.39999949105226 36.20000000000012 7.500000000000002
  endloop
endfacet
facet normal -0.0 -0.0 1.0
  outer loop
    vertex 170.2 37.2 7.499999999999997
    vertex 46.39999949105226 36.20000000000012 7.500000000000002
    vertex 54.39999986761303 36.20000000000012 7.499999999999997
  endloop
endfacet
facet normal -0.0 -0.0 1.0
  outer loop
    vertex 54.39999986761303 36.20000000000012 7.499999999999997
    vertex 46.39999949105226 36.20000000000012 7.500000000000002
    vertex 54.39999986761303 0.9999999999999981 7.499999999999997
  endloop
endfacet
facet normal -0.0 -0.0 1.0
  outer loop
    vertex 170.2 37.2 7.499999999999997
    vertex 54.39999986761303 36.20000000000012 7.499999999999997
    vertex 76.59999986761304 36.20000000000012 7.499999999999997
  endloop
endfacet
facet normal -0.0 -0.0 1.0
  outer loop
    vertex 170.2 37.2 7.499999999999997
    vertex 76.59999986761304 36.20000000000012 7.499999999999997
    vertex 84.6000000377251 36.20000000000012 7.499999999999987
  endloop
endfacet
facet normal -0.0 -0.0 1.0
  outer loop
    vertex 84.6000000377251 36.20000000000012 7.499999999999987
    vertex 76.59999986761304 36.20000000000012 7.499999999999997
    vertex 84.6000000377251 0.999999999999998 7.499999999999987
  endloop
endfacet
facet normal -0.0 -0.0 1.0
  outer loop
    vertex 170.2 37.2 7.499999999999997
    vertex 84.6000000377251 36.20000000000012 7.499999999999987
    vertex 106.80000003772508 36.20000000000012 7.499999999999989
  endloop
endfacet
facet normal -0.0 -0.0 1.0
  outer loop
    vertex 170.2 37.2 7.499999999999997
    vertex 106.80000003772508 36.20000000000012 7.499999999999989
    vertex 114.80000032383798 36.20000000000012 7.499999999999997
  endloop
endfacet
facet normal -0.0 -0.0 1.0
  outer loop
    vertex 114.80000032383798 36.20000000000012 7.499999999999997
    vertex 106.80000003772508 36.20000000000012 7.499999999999989
    vertex 114.80000032383798 0.9999999999999981 7.499999999999997
  endloop
endfacet
facet normal -0.0 -0.0 1.0
  outer loop
    vertex 170.2 37.2 7.499999999999997
    vertex 114.80000032383798 36.20000000000012 7.499999999999997
    vertex 137.00000032383798 36.20000000000012 7.499999999999997
  endloop
endfacet
facet normal -0.0 -0.0 1.0
  outer loop
    vertex 170.2 37.2 7.499999999999997
    vertex 137.00000032383798 36.20000000000012 7.499999999999997
    vertex 144.99999999999997 36.20000000000001 7.499999999999997
  endloop
endfacet
facet normal -0.0 -0.0 1.0
  outer loop
    vertex 144.99999999999997 36.20000000000001 7.499999999999997
    vertex 137.00000032383798 36.20000000000012 7.499999999999997
    vertex 144.99999999999997 1.0000000000000038 7.499999999999997
  endloop
endfacet
facet normal -0.0 -0.0 1.0
  outer loop
    vertex 170.2 37.2 7.499999999999997
    vertex 144.99999999999997 36.20000000000001 7.499999999999997
    vertex 167.2 36.20000000000001 7.499999999999997
  endloop
endfacet
facet normal -0.0 -0.0 1.0
  outer loop
    vertex 170.2 37.2 7.499999999999997
    vertex 167.2 36.20000000000001 7.499999999999997
    vertex 170.2 -4.853856367863348e-16 7.499999999999997
  endloop
endfacet
facet normal 0.0 1.0 0.0
  outer loop
    vertex -66.39999999892393 0.9999999999999981 7.499999999999997
    vertex -44.19999999892392 0.9999999999999981 5.000000000000002
    vertex -66.39999999892393 0.9999999999999981 5.000000000000002
  endloop
endfacet
facet normal 0.0 1.0 0.0
  outer loop
    vertex -44.19999999892392 0.9999999999999981 5.000000000000002
    vertex -66.39999999892393 0.9999999999999981 7.499999999999997
    vertex -44.19999999892392 0.9999999999999981 7.499999999999997
  endloop
endfacet
facet normal -1.0 0.0 0.0
  outer loop
    vertex -44.19999999892392 36.20000000000012 7.499999999999997
    vertex -44.19999999892392 0.9999999999999981 5.000000000000002
    vertex -44.19999999892392 0.9999999999999981 7.499999999999997
  endloop
endfacet
facet normal -1.0 0.0 0.0
  outer loop
    vertex -44.19999999892392 0.9999999999999981 5.000000000000002
    vertex -44.19999999892392 36.20000000000012 7.499999999999997
    vertex -44.19999999892392 2.199999999999996 5.000000000000002
  endloop
endfacet
facet normal -1.0 0.0 0.0
  outer loop
    vertex -44.19999999892392 2.199999999999996 5.000000000000002
    vertex -44.19999999892392 36.20000000000012 7.499999999999997
    vertex -44.19999999892392 8.199999999999985 5.000000000000002
  endloop
endfacet
facet normal -1.0 0.0 0.0
  outer loop
    vertex -44.19999999892392 8.199999999999985 5.000000000000002
    vertex -44.19999999892392 36.20000000000012 7.499999999999997
    vertex -44.19999999892392 36.20000000000012 5.000000000000002
  endloop
endfacet
facet normal -0.0 -0.0 1.0
  outer loop
    vertex -38.16761469717233 2.199999999999996 5.000000000000002
    vertex -44.19999999892392 8.199999999999985 5.000000000000002
    vertex -44.19999999892392 2.199999999999996 5.000000000000002
  endloop
endfacet
facet normal -0.0 -0.0 1.0
  outer loop
    vertex -44.19999999892392 8.199999999999985 5.000000000000002
    vertex -38.16761469717233 2.199999999999996 5.000000000000002
    vertex -36.20000010788905 8.199999999999989 5.000000000000002
  endloop
endfacet
facet normal -0.0 -0.0 1.0
  outer loop
    vertex -36.20000010788905 8.199999999999989 5.000000000000002
    vertex -38.16761469717233 2.199999999999996 5.000000000000002
    vertex -36.20000010788905 2.199999999999996 5.000000000000002
  endloop
endfacet
facet normal -0.0 -0.0 1.0
  outer loop
    vertex -14.00000010788902 0.9999999999999981 5.000000000000002
    vertex -36.20000010788905 2.199999999999996 5.000000000000002
    vertex -36.20000010788905 0.9999999999999981 5.000000000000002
  endloop
endfacet
facet normal -0.0 -0.0 1.0
  outer loop
    vertex -36.20000010788905 2.199999999999996 5.000000000000002
    vertex -14.00000010788902 0.9999999999999981 5.000000000000002
    vertex -14.00000010788902 2.199999999999996 5.000000000000002
  endloop
endfacet
facet normal -1.083474165068153e-18 1.0 2.4204041156968075e-17
  outer loop
    vertex 46.39999949105226 2.199999999999996 5.0000000000000115
    vertex 54.39999986761303 2.199999999999996 5.000000000000002
    vertex 24.199999491052274 2.199999999999996 5.000000000000002
  endloop
endfacet
facet normal -1.083474165068153e-18 1.0 2.4204041156968075e-17
  outer loop
    vertex -69.4000000000001 2.199999999999996 5.000000000000002
    vertex 170.2 2.1999999999999957 5.629324132837058e-16
    vertex -69.4000000000001 2.199999999999996 0.0
  endloop
endfacet
facet normal -1.083474165068153e-18 1.0 2.4204041156968075e-17
  outer loop
    vertex 170.2 2.1999999999999957 5.629324132837058e-16
    vertex -69.4000000000001 2.199999999999996 5.000000000000002
    vertex 84.6000000377251 2.199999999999996 4.999999999999995
  endloop
endfacet
facet normal -1.083474165068153e-18 1.0 2.4204041156968075e-17
  outer loop
    vertex 84.6000000377251 2.199999999999996 4.999999999999995
    vertex -69.4000000000001 2.199999999999996 5.000000000000002
    vertex 76.59999986761304 2.199999999999996 5.000000000000002
  endloop
endfacet
facet normal -1.083474165068153e-18 1.0 2.4204041156968075e-17
  outer loop
    vertex 76.59999986761304 2.199999999999996 5.000000000000002
    vertex -69.4000000000001 2.199999999999996 5.000000000000002
    vertex -66.39999999892393 2.199999999999996 5.000000000000002
  endloop
endfacet
facet normal -1.083474165068153e-18 1.0 2.4204041156968075e-17
  outer loop
    vertex 76.59999986761304 2.199999999999996 5.000000000000002
    vertex -66.39999999892393 2.199999999999996 5.000000000000002
    vertex -44.19999999892392 2.199999999999996 5.000000000000002
  endloop
endfacet
facet normal -1.083474165068153e-18 1.0 2.4204041156968075e-17
  outer loop
    vertex 76.59999986761304 2.199999999999996 5.000000000000002
    vertex -44.19999999892392 2.199999999999996 5.000000000000002
    vertex -38.16761469717233 2.199999999999996 5.000000000000002
  endloop
endfacet
facet normal -1.083474165068153e-18 1.0 2.4204041156968075e-17
  outer loop
    vertex 76.59999986761304 2.199999999999996 5.000000000000002
    vertex -38.16761469717233 2.199999999999996 5.000000000000002
    vertex -36.20000010788905 2.199999999999996 5.000000000000002
  endloop
endfacet
facet normal -1.083474165068153e-18 1.0 2.4204041156968075e-17
  outer loop
    vertex 76.59999986761304 2.199999999999996 5.000000000000002
    vertex -36.20000010788905 2.199999999999996 5.000000000000002
    vertex -14.00000010788902 2.199999999999996 5.000000000000002
  endloop
endfacet
facet normal -1.083474165068153e-18 1.0 2.4204041156968075e-17
  outer loop
    vertex 76.59999986761304 2.199999999999996 5.000000000000002
    vertex -14.00000010788902 2.199999999999996 5.000000000000002
    vertex -6.0000005525938995 2.199999999999996 5.000000000000002
  endloop
endfacet
facet normal -1.083474165068153e-18 1.0 2.4204041156968075e-17
  outer loop
    vertex 76.59999986761304 2.199999999999996 5.000000000000002
    vertex -6.0000005525938995 2.199999999999996 5.000000000000002
    vertex 16.1999994474061 2.199999999999996 5.000000000000002
  endloop
endfacet
facet normal -1.083474165068153e-18 1.0 2.4204041156968075e-17
  outer loop
    vertex 76.59999986761304 2.199999999999996 5.000000000000002
    vertex 16.1999994474061 2.199999999999996 5.000000000000002
    vertex 24.199999491052274 2.199999999999996 5.000000000000002
  endloop
endfacet
facet normal -1.083474165068153e-18 1.0 2.4204041156968075e-17
  outer loop
    vertex 76.59999986761304 2.199999999999996 5.000000000000002
    vertex 24.199999491052274 2.199999999999996 5.000000000000002
    vertex 54.39999986761303 2.199999999999996 5.000000000000002
  endloop
endfacet
facet normal -1.083474165068153e-18 1.0 2.4204041156968075e-17
  outer loop
    vertex 114.80000032383798 2.199999999999996 5.000000000000002
    vertex 144.99999999999997 2.199999999999996 5.0
    vertex 106.80000003772508 2.199999999999996 4.999999999999995
  endloop
endfacet
facet normal -1.083474165068153e-18 1.0 2.4204041156968075e-17
  outer loop
    vertex 144.99999999999997 2.199999999999996 5.0
    vertex 114.80000032383798 2.199999999999996 5.000000000000002
    vertex 137.00000032383798 2.199999999999996 5.000000000000002
  endloop
endfacet
facet normal -1.083474165068153e-18 1.0 2.4204041156968075e-17
  outer loop
    vertex 170.2 2.1999999999999957 5.629324132837058e-16
    vertex 106.80000003772508 2.199999999999996 4.999999999999995
    vertex 170.2 2.1999999999999957 5.0
  endloop
endfacet
facet normal -1.083474165068153e-18 1.0 2.4204041156968075e-17
  outer loop
    vertex 106.80000003772508 2.199999999999996 4.999999999999995
    vertex 170.2 2.1999999999999957 5.629324132837058e-16
    vertex 84.6000000377251 2.199999999999996 4.999999999999995
  endloop
endfacet
facet normal -1.083474165068153e-18 1.0 2.4204041156968075e-17
  outer loop
    vertex 170.2 2.1999999999999957 5.0
    vertex 106.80000003772508 2.199999999999996 4.999999999999995
    vertex 144.99999999999997 2.199999999999996 5.0
  endloop
endfacet
facet normal -1.083474165068153e-18 1.0 2.4204041156968075e-17
  outer loop
    vertex 170.2 2.1999999999999957 5.0
    vertex 144.99999999999997 2.199999999999996 5.0
    vertex 167.2 2.199999999999996 5.0
  endloop
endfacet
facet normal 0.0 0.0 -1.0
  outer loop
    vertex -6.0000005525938995 8.199999999999989 5.000000000000002
    vertex -14.00000010788902 2.199999999999996 5.000000000000002
    vertex -14.00000010788902 8.199999999999989 5.000000000000002
  endloop
endfacet
facet normal 0.0 0.0 -1.0
  outer loop
    vertex -14.00000010788902 2.199999999999996 5.000000000000002
    vertex -6.0000005525938995 8.199999999999989 5.000000000000002
    vertex -6.0000005525938995 2.199999999999996 5.000000000000002
  endloop
endfacet
facet normal 0.0 0.0 -1.0
  outer loop
    vertex 170.2 2.1999999999999957 5.629324132837058e-16
    vertex -69.4000000000001 0.0 0.0
    vertex -69.4000000000001 2.199999999999996 0.0
  endloop
endfacet
facet normal 0.0 0.0 -1.0
  outer loop
    vertex -69.4000000000001 0.0 0.0
    vertex 170.2 2.1999999999999957 5.629324132837058e-16
    vertex 170.2 -4.853856367863348e-16 5.629324132837058e-16
  endloop
endfacet
facet normal 7.224146518582295e-17 -1.0 2.1765565391855462e-16
  outer loop
    vertex 170.2 8.200000000000001 5.0
    vertex 106.80000003772508 8.2 4.999999999999994
    vertex 170.2 8.200000000000001 5.629324132837058e-16
  endloop
endfacet
facet normal 7.224146518582295e-17 -1.0 2.1765565391855462e-16
  outer loop
    vertex 106.80000003772508 8.2 4.999999999999994
    vertex 170.2 8.200000000000001 5.0
    vertex 144.99999999999997 8.200000000000001 5.0
  endloop
endfacet
facet normal 7.224146518582295e-17 -1.0 2.1765565391855462e-16
  outer loop
    vertex 106.80000003772508 8.2 4.999999999999994
    vertex 144.99999999999997 8.200000000000001 5.0
    vertex 114.80000032383798 8.2 5.000000000000002
  endloop
endfacet
facet normal 7.224146518582295e-17 -1.0 2.1765565391855462e-16
  outer loop
    vertex 144.99999999999997 8.200000000000001 5.0
    vertex 170.2 8.200000000000001 5.0
    vertex 167.19999999999996 8.200000000000001 5.0
  endloop
endfacet
facet normal 7.224146518582295e-17 -1.0 2.1765565391855462e-16
  outer loop
    vertex 114.80000032383798 8.2 5.000000000000002
    vertex 144.99999999999997 8.200000000000001 5.0
    vertex 137.00000032383798 8.200000000000001 5.000000000000001
  endloop
endfacet
facet normal 7.224146518582295e-17 -1.0 2.1765565391855462e-16
  outer loop
    vertex 46.39999949105226 8.199999999999996 5.0000000000000115
    vertex 24.199999491052274 8.19999999999999 5.000000000000002
    vertex 54.39999986761303 8.199999999999998 5.000000000000002
  endloop
endfacet
facet normal 7.224146518582295e-17 -1.0 2.1765565391855462e-16
  outer loop
    vertex 170.2 8.200000000000001 5.629324132837058e-16
    vertex -69.4000000000001 8.199999999999985 5.000000000000002
    vertex -69.4000000000001 8.199999999999985 0.0
  endloop
endfacet
facet normal 7.224146518582295e-17 -1.0 2.1765565391855462e-16
  outer loop
    vertex -69.4000000000001 8.199999999999985 5.000000000000002
    vertex 170.2 8.200000000000001 5.629324132837058e-16
    vertex 84.60000003772508 8.2 4.999999999999994
  endloop
endfacet
facet normal 7.224146518582295e-17 -1.0 2.1765565391855462e-16
  outer loop
    vertex 84.60000003772508 8.2 4.999999999999994
    vertex 170.2 8.200000000000001 5.629324132837058e-16
    vertex 106.80000003772508 8.2 4.999999999999994
  endloop
endfacet
facet normal 7.224146518582295e-17 -1.0 2.1765565391855462e-16
  outer loop
    vertex -69.4000000000001 8.199999999999985 5.000000000000002
    vertex 84.60000003772508 8.2 4.999999999999994
    vertex 76.59999986761304 8.2 5.000000000000002
  endloop
endfacet
facet normal 7.224146518582295e-17 -1.0 2.1765565391855462e-16
  outer loop
    vertex -69.4000000000001 8.199999999999985 5.000000000000002
    vertex 76.59999986761304 8.2 5.000000000000002
    vertex 54.39999986761303 8.199999999999998 5.000000000000002
  endloop
endfacet
facet normal 7.224146518582295e-17 -1.0 2.1765565391855462e-16
  outer loop
    vertex -69.4000000000001 8.199999999999985 5.000000000000002
    vertex 54.39999986761303 8.199999999999998 5.000000000000002
    vertex 24.199999491052274 8.19999999999999 5.000000000000002
  endloop
endfacet
facet normal 7.224146518582295e-17 -1.0 2.1765565391855462e-16
  outer loop
    vertex -69.4000000000001 8.199999999999985 5.000000000000002
    vertex 24.199999491052274 8.19999999999999 5.000000000000002
    vertex 16.1999994474061 8.19999999999999 5.000000000000002
  endloop
endfacet
facet normal 7.224146518582295e-17 -1.0 2.1765565391855462e-16
  outer loop
    vertex -69.4000000000001 8.199999999999985 5.000000000000002
    vertex 16.1999994474061 8.19999999999999 5.000000000000002
    vertex -6.0000005525938995 8.199999999999989 5.000000000000002
  endloop
endfacet
facet normal 7.224146518582295e-17 -1.0 2.1765565391855462e-16
  outer loop
    vertex -69.4000000000001 8.199999999999985 5.000000000000002
    vertex -6.0000005525938995 8.199999999999989 5.000000000000002
    vertex -14.00000010788902 8.199999999999989 5.000000000000002
  endloop
endfacet
facet normal 7.224146518582295e-17 -1.0 2.1765565391855462e-16
  outer loop
    vertex -69.4000000000001 8.199999999999985 5.000000000000002
    vertex -14.00000010788902 8.199999999999989 5.000000000000002
    vertex -36.20000010788905 8.199999999999989 5.000000000000002
  endloop
endfacet
facet normal 7.224146518582295e-17 -1.0 2.1765565391855462e-16
  outer loop
    vertex -69.4000000000001 8.199999999999985 5.000000000000002
    vertex -36.20000010788905 8.199999999999989 5.000000000000002
    vertex -44.19999999892392 8.199999999999985 5.000000000000002
  endloop
endfacet
facet normal 7.224146518582295e-17 -1.0 2.1765565391855462e-16
  outer loop
    vertex -69.4000000000001 8.199999999999985 5.000000000000002
    vertex -44.19999999892392 8.199999999999985 5.000000000000002
    vertex -66.39999999892393 8.199999999999985 5.000000000000002
  endloop
endfacet
facet normal -1.0 0.0 0.0
  outer loop
    vertex -69.4000000000001 0.0 7.499999999999997
    vertex -69.4000000000001 2.199999999999996 5.000000000000002
    vertex -69.4000000000001 0.0 0.0
  endloop
endfacet
facet normal -1.0 0.0 0.0
  outer loop
    vertex -69.4000000000001 2.199999999999996 5.000000000000002
    vertex -69.4000000000001 0.0 7.499999999999997
    vertex -69.4000000000001 37.2 7.499999999999997
  endloop
endfacet
facet normal -1.0 0.0 0.0
  outer loop
    vertex -69.4000000000001 2.199999999999996 5.000000000000002
    vertex -69.4000000000001 37.2 7.499999999999997
    vertex -69.4000000000001 8.199999999999985 5.000000000000002
  endloop
endfacet
facet normal -1.0 0.0 0.0
  outer loop
    vertex -69.4000000000001 8.199999999999985 5.000000000000002
    vertex -69.4000000000001 37.2 7.499999999999997
    vertex -69.4000000000001 8.199999999999985 0.0
  endloop
endfacet
facet normal -1.0 0.0 0.0
  outer loop
    vertex -69.4000000000001 8.199999999999985 0.0
    vertex -69.4000000000001 37.2 7.499999999999997
    vertex -69.4000000000001 37.2 0.0
  endloop
endfacet
facet normal -1.0 0.0 0.0
  outer loop
    vertex -69.4000000000001 2.199999999999996 0.0
    vertex -69.4000000000001 0.0 0.0
    vertex -69.4000000000001 2.199999999999996 5.000000000000002
  endloop
endfacet
facet normal 1.2565815505105572e-18 -1.010071820841925e-33 -1.0
  outer loop
    vertex 170.2 37.2 5.629324132837058e-16
    vertex -69.4000000000001 8.199999999999985 0.0
    vertex -69.4000000000001 37.2 0.0
  endloop
endfacet
facet normal 1.2565815505105572e-18 -1.010071820841925e-33 -1.0
  outer loop
    vertex -69.4000000000001 8.199999999999985 0.0
    vertex 170.2 37.2 5.629324132837058e-16
    vertex 170.2 8.200000000000001 5.629324132837058e-16
  endloop
endfacet
facet normal 1.2565815505105572e-18 -1.010071820841925e-33 -1.0
  outer loop
    vertex 170.2 8.200000000000001 5.629324132837058e-16
    vertex 170.2 37.2 5.629324132837058e-16
    vertex 170.2 35.2 5.629324132837058e-16
  endloop
endfacet
facet normal 1.2565815505105572e-18 -1.010071820841925e-33 -1.0
  outer loop
    vertex 170.2 8.200000000000001 5.629324132837058e-16
    vertex 170.2 35.2 5.629324132837058e-16
    vertex 170.2 10.200000000000005 5.629324132837058e-16
  endloop
endfacet
facet normal 1.2565815505105572e-18 -1.010071820841925e-33 -1.0
  outer loop
    vertex 170.2 35.2 5.629324132837058e-16
    vertex 170.20000000000002 30.200000000000014 5.629324132837058e-16
    vertex 170.2 10.200000000000005 5.629324132837058e-16
  endloop
endfacet
facet normal 1.2565815505105572e-18 -1.010071820841925e-33 -1.0
  outer loop
    vertex 170.20000000000002 30.200000000000014 5.629324132837058e-16
    vertex 170.2 35.2 5.629324132837058e-16
    vertex 174.19999999999996 35.2 0.0
  endloop
endfacet
facet normal 1.2565815505105572e-18 -1.010071820841925e-33 -1.0
  outer loop
    vertex 170.20000000000002 30.200000000000014 5.629324132837058e-16
    vertex 174.19999999999996 35.2 0.0
    vertex 174.19999999999996 30.200000000000014 0.0
  endloop
endfacet
facet normal 1.2565815505105572e-18 -1.010071820841925e-33 -1.0
  outer loop
    vertex 174.19999999999996 25.200000000000017 0.0
    vertex 170.20000000000002 20.200000000000017 5.629324132837058e-16
    vertex 170.20000000000002 25.200000000000017 5.629324132837058e-16
  endloop
endfacet
facet normal 1.2565815505105572e-18 -1.010071820841925e-33 -1.0
  outer loop
    vertex 170.20000000000002 20.200000000000017 5.629324132837058e-16
    vertex 174.19999999999996 25.200000000000017 0.0
    vertex 174.19999999999996 20.200000000000017 0.0
  endloop
endfacet
facet normal 1.2565815505105572e-18 -1.010071820841925e-33 -1.0
  outer loop
    vertex 170.2 10.200000000000005 5.629324132837058e-16
    vertex 170.20000000000002 15.200000000000006 5.629324132837058e-16
    vertex 174.19999999999996 10.200000000000005 0.0
  endloop
endfacet
facet normal 1.2565815505105572e-18 -1.010071820841925e-33 -1.0
  outer loop
    vertex 170.20000000000002 15.200000000000006 5.629324132837058e-16
    vertex 170.2 10.200000000000005 5.629324132837058e-16
    vertex 170.20000000000002 30.200000000000014 5.629324132837058e-16
  endloop
endfacet
facet normal 1.2565815505105572e-18 -1.010071820841925e-33 -1.0
  outer loop
    vertex 170.20000000000002 15.200000000000006 5.629324132837058e-16
    vertex 170.20000000000002 30.200000000000014 5.629324132837058e-16
    vertex 170.20000000000002 25.200000000000017 5.629324132837058e-16
  endloop
endfacet
facet normal 1.2565815505105572e-18 -1.010071820841925e-33 -1.0
  outer loop
    vertex 170.20000000000002 15.200000000000006 5.629324132837058e-16
    vertex 170.20000000000002 25.200000000000017 5.629324132837058e-16
    vertex 170.20000000000002 20.200000000000017 5.629324132837058e-16
  endloop
endfacet
facet normal 1.2565815505105572e-18 -1.010071820841925e-33 -1.0
  outer loop
    vertex 174.19999999999996 10.200000000000005 0.0
    vertex 170.20000000000002 15.200000000000006 5.629324132837058e-16
    vertex 174.19999999999996 15.200000000000006 0.0
  endloop
endfacet
endsolid Tobias_genericSolarArray
