solid ModifiedcentralBoardArray
facet normal 1.0 -0.0 -0.0
  outer loop
    vertex 44.87053255515425 32.688008999999994 7.049916206369744e-16
    vertex 44.87053255515425 2.0000000000000018 3.499999999999988
    vertex 44.87053255515425 2.0000000000000018 7.049916206369744e-16
  endloop
endfacet
facet normal 1.0 -0.0 -0.0
  outer loop
    vertex 44.87053255515425 2.0000000000000018 3.499999999999988
    vertex 44.87053255515425 32.688008999999994 7.049916206369744e-16
    vertex 44.87053255515425 32.688008999999994 3.499999999999987
  endloop
endfacet
facet normal 0.0 -1.0 0.0
  outer loop
    vertex 126.0 0.0 7.5
    vertex -50.0 0.0 0.0
    vertex 126.0 0.0 0.0
  endloop
endfacet
facet normal 0.0 -1.0 0.0
  outer loop
    vertex -50.0 0.0 0.0
    vertex 126.0 0.0 7.5
    vertex -50.0 0.0 7.5
  endloop
endfacet
facet normal 1.0 0.0 0.0
  outer loop
    vertex 126.0 11.9 0.0
    vertex 126.0 7.1 5.3999999999999995
    vertex 126.0 7.1 0.0
  endloop
endfacet
facet normal 1.0 0.0 0.0
  outer loop
    vertex 126.0 21.9 0.0
    vertex 126.0 17.1 5.3999999999999995
    vertex 126.0 17.1 0.0
  endloop
endfacet
facet normal 1.0 0.0 0.0
  outer loop
    vertex 126.0 28.999999999999996 0.0
    vertex 126.0 27.1 5.3999999999999995
    vertex 126.0 27.1 0.0
  endloop
endfacet
facet normal 1.0 0.0 0.0
  outer loop
    vertex 126.0 37.0 0.0
    vertex 126.0 32.688008999999994 5.0
    vertex 126.0 32.688008999999994 0.0
  endloop
endfacet
facet normal 1.0 0.0 0.0
  outer loop
    vertex 126.0 1.8999999999999997 0.0
    vertex 126.0 0.0 7.5
    vertex 126.0 0.0 0.0
  endloop
endfacet
facet normal 1.0 0.0 0.0
  outer loop
    vertex 126.0 0.0 7.5
    vertex 126.0 1.8999999999999997 0.0
    vertex 126.0 1.8999999999999997 5.3999999999999995
  endloop
endfacet
facet normal 1.0 0.0 0.0
  outer loop
    vertex 126.0 0.0 7.5
    vertex 126.0 1.8999999999999997 5.3999999999999995
    vertex 126.0 37.0 7.5
  endloop
endfacet
facet normal 1.0 0.0 0.0
  outer loop
    vertex 126.0 37.0 7.5
    vertex 126.0 1.8999999999999997 5.3999999999999995
    vertex 126.0 7.1 5.3999999999999995
  endloop
endfacet
facet normal 1.0 0.0 0.0
  outer loop
    vertex 126.0 37.0 7.5
    vertex 126.0 7.1 5.3999999999999995
    vertex 126.0 11.9 5.3999999999999995
  endloop
endfacet
facet normal 1.0 0.0 0.0
  outer loop
    vertex 126.0 11.9 5.3999999999999995
    vertex 126.0 7.1 5.3999999999999995
    vertex 126.0 11.9 0.0
  endloop
endfacet
facet normal 1.0 0.0 0.0
  outer loop
    vertex 126.0 37.0 7.5
    vertex 126.0 11.9 5.3999999999999995
    vertex 126.0 17.1 5.3999999999999995
  endloop
endfacet
facet normal 1.0 0.0 0.0
  outer loop
    vertex 126.0 37.0 7.5
    vertex 126.0 17.1 5.3999999999999995
    vertex 126.0 21.9 5.3999999999999995
  endloop
endfacet
facet normal 1.0 0.0 0.0
  outer loop
    vertex 126.0 21.9 5.3999999999999995
    vertex 126.0 17.1 5.3999999999999995
    vertex 126.0 21.9 0.0
  endloop
endfacet
facet normal 1.0 0.0 0.0
  outer loop
    vertex 126.0 37.0 7.5
    vertex 126.0 21.9 5.3999999999999995
    vertex 126.0 27.1 5.3999999999999995
  endloop
endfacet
facet normal 1.0 0.0 0.0
  outer loop
    vertex 126.0 37.0 7.5
    vertex 126.0 27.1 5.3999999999999995
    vertex 126.0 28.999999999999996 5.0
  endloop
endfacet
facet normal 1.0 0.0 0.0
  outer loop
    vertex 126.0 28.999999999999996 5.0
    vertex 126.0 27.1 5.3999999999999995
    vertex 126.0 28.999999999999996 0.0
  endloop
endfacet
facet normal 1.0 0.0 0.0
  outer loop
    vertex 126.0 37.0 7.5
    vertex 126.0 28.999999999999996 5.0
    vertex 126.0 32.688008999999994 5.0
  endloop
endfacet
facet normal 1.0 0.0 0.0
  outer loop
    vertex 126.0 37.0 7.5
    vertex 126.0 32.688008999999994 5.0
    vertex 126.0 37.0 0.0
  endloop
endfacet
facet normal 0.0 1.0 0.0
  outer loop
    vertex 121.8 1.8999999999999997 5.3999999999999995
    vertex 126.0 1.8999999999999997 0.0
    vertex 121.8 1.8999999999999997 0.0
  endloop
endfacet
facet normal 0.0 1.0 0.0
  outer loop
    vertex 126.0 1.8999999999999997 0.0
    vertex 121.8 1.8999999999999997 5.3999999999999995
    vertex 126.0 1.8999999999999997 5.3999999999999995
  endloop
endfacet
facet normal 0.0 -1.0 0.0
  outer loop
    vertex 126.0 27.1 5.3999999999999995
    vertex 121.8 27.1 0.0
    vertex 126.0 27.1 0.0
  endloop
endfacet
facet normal 0.0 -1.0 0.0
  outer loop
    vertex 121.8 27.1 0.0
    vertex 126.0 27.1 5.3999999999999995
    vertex 121.8 27.1 5.3999999999999995
  endloop
endfacet
facet normal 0.0 1.0 0.0
  outer loop
    vertex -50.0 21.899999999999995 5.4
    vertex -45.8 21.899999999999995 0.0
    vertex -50.0 21.899999999999995 0.0
  endloop
endfacet
facet normal 0.0 1.0 0.0
  outer loop
    vertex -45.8 21.899999999999995 0.0
    vertex -50.0 21.899999999999995 5.4
    vertex -45.8 21.899999999999995 5.4
  endloop
endfacet
facet normal 0.0 0.0 -1.0
  outer loop
    vertex -45.8 27.099999999999994 5.4
    vertex -50.0 21.899999999999995 5.4
    vertex -50.0 27.099999999999994 5.4
  endloop
endfacet
facet normal 0.0 0.0 -1.0
  outer loop
    vertex -50.0 21.899999999999995 5.4
    vertex -45.8 27.099999999999994 5.4
    vertex -45.8 21.899999999999995 5.4
  endloop
endfacet
facet normal -0.0 -1.0 -0.0
  outer loop
    vertex -45.8 27.099999999999994 5.4
    vertex -50.0 27.099999999999994 0.0
    vertex -45.8 27.099999999999994 0.0
  endloop
endfacet
facet normal -0.0 -1.0 -0.0
  outer loop
    vertex -50.0 27.099999999999994 0.0
    vertex -45.8 27.099999999999994 5.4
    vertex -50.0 27.099999999999994 5.4
  endloop
endfacet
facet normal -1.0 0.0 0.0
  outer loop
    vertex -45.8 17.09999999999999 5.4
    vertex -45.8 11.899999999999995 0.0
    vertex -45.8 11.899999999999995 5.4
  endloop
endfacet
facet normal -1.0 0.0 0.0
  outer loop
    vertex -45.8 11.899999999999995 0.0
    vertex -45.8 17.09999999999999 5.4
    vertex -45.8 17.09999999999999 0.0
  endloop
endfacet
facet normal 0.0 1.0 0.0
  outer loop
    vertex -50.0 11.899999999999995 5.4
    vertex -45.8 11.899999999999995 0.0
    vertex -50.0 11.899999999999995 0.0
  endloop
endfacet
facet normal 0.0 1.0 0.0
  outer loop
    vertex -45.8 11.899999999999995 0.0
    vertex -50.0 11.899999999999995 5.4
    vertex -45.8 11.899999999999995 5.4
  endloop
endfacet
facet normal 0.0 0.0 -1.0
  outer loop
    vertex -45.8 17.09999999999999 5.4
    vertex -50.0 11.899999999999995 5.4
    vertex -50.0 17.09999999999999 5.4
  endloop
endfacet
facet normal 0.0 0.0 -1.0
  outer loop
    vertex -50.0 11.899999999999995 5.4
    vertex -45.8 17.09999999999999 5.4
    vertex -45.8 11.899999999999995 5.4
  endloop
endfacet
facet normal -0.0 -1.0 -0.0
  outer loop
    vertex -45.8 17.09999999999999 5.4
    vertex -50.0 17.09999999999999 0.0
    vertex -45.8 17.09999999999999 0.0
  endloop
endfacet
facet normal -0.0 -1.0 -0.0
  outer loop
    vertex -50.0 17.09999999999999 0.0
    vertex -45.8 17.09999999999999 5.4
    vertex -50.0 17.09999999999999 5.4
  endloop
endfacet
facet normal -1.0 0.0 0.0
  outer loop
    vertex -45.8 7.1 5.4
    vertex -45.8 1.8999999999999997 0.0
    vertex -45.8 1.8999999999999997 5.4
  endloop
endfacet
facet normal -1.0 0.0 0.0
  outer loop
    vertex -45.8 1.8999999999999997 0.0
    vertex -45.8 7.1 5.4
    vertex -45.8 7.1 0.0
  endloop
endfacet
facet normal 0.0 1.0 0.0
  outer loop
    vertex -50.0 1.8999999999999997 5.4
    vertex -45.8 1.8999999999999997 0.0
    vertex -50.0 1.8999999999999997 0.0
  endloop
endfacet
facet normal 0.0 1.0 0.0
  outer loop
    vertex -45.8 1.8999999999999997 0.0
    vertex -50.0 1.8999999999999997 5.4
    vertex -45.8 1.8999999999999997 5.4
  endloop
endfacet
facet normal 0.0 0.0 -1.0
  outer loop
    vertex -45.8 7.1 5.4
    vertex -50.0 1.8999999999999997 5.4
    vertex -50.0 7.1 5.4
  endloop
endfacet
facet normal 0.0 0.0 -1.0
  outer loop
    vertex -50.0 1.8999999999999997 5.4
    vertex -45.8 7.1 5.4
    vertex -45.8 1.8999999999999997 5.4
  endloop
endfacet
facet normal -0.0 -1.0 -0.0
  outer loop
    vertex -45.8 7.1 5.4
    vertex -50.0 7.1 0.0
    vertex -45.8 7.1 0.0
  endloop
endfacet
facet normal -0.0 -1.0 -0.0
  outer loop
    vertex -50.0 7.1 0.0
    vertex -45.8 7.1 5.4
    vertex -50.0 7.1 5.4
  endloop
endfacet
facet normal 0.0 0.0 -1.0
  outer loop
    vertex 126.0 32.688008999999994 5.0
    vertex 111.6 28.999999999999996 5.0
    vertex 111.6 32.688008999999994 5.0
  endloop
endfacet
facet normal 0.0 0.0 -1.0
  outer loop
    vertex 111.6 28.999999999999996 5.0
    vertex 126.0 32.688008999999994 5.0
    vertex 126.0 28.999999999999996 5.0
  endloop
endfacet
facet normal -0.0 1.0 -0.0
  outer loop
    vertex -50.0 28.999999999999996 0.0
    vertex -6.5325760000000015 28.999999999999996 5.0
    vertex -6.5325760000000015 28.999999999999996 -3.524958103184872e-15
  endloop
endfacet
facet normal -0.0 1.0 -0.0
  outer loop
    vertex -6.5325760000000015 28.999999999999996 5.0
    vertex -50.0 28.999999999999996 0.0
    vertex -50.0 28.999999999999996 5.0
  endloop
endfacet
facet normal -0.0 1.0 -0.0
  outer loop
    vertex -6.5325760000000015 28.999999999999996 5.0
    vertex -50.0 28.999999999999996 5.0
    vertex -40.0 28.999999999999996 5.000000000000001
  endloop
endfacet
facet normal -0.0 1.0 -0.0
  outer loop
    vertex -6.5325760000000015 28.999999999999996 5.0
    vertex -40.0 28.999999999999996 5.000000000000001
    vertex -22.0 28.999999999999996 5.000000000000001
  endloop
endfacet
facet normal -0.0 1.0 -0.0
  outer loop
    vertex -22.0 28.999999999999996 5.000000000000001
    vertex -40.0 28.999999999999996 5.000000000000001
    vertex -40.0 28.999999999999996 7.5
  endloop
endfacet
facet normal -0.0 1.0 -0.0
  outer loop
    vertex -22.0 28.999999999999996 5.000000000000001
    vertex -40.0 28.999999999999996 7.5
    vertex -22.0 28.999999999999996 7.5
  endloop
endfacet
facet normal -1.0 0.0 0.0
  outer loop
    vertex -50.0 0.0 7.5
    vertex -50.0 1.8999999999999997 5.4
    vertex -50.0 0.0 0.0
  endloop
endfacet
facet normal -1.0 0.0 0.0
  outer loop
    vertex -50.0 1.8999999999999997 5.4
    vertex -50.0 0.0 7.5
    vertex -50.0 37.0 7.5
  endloop
endfacet
facet normal -1.0 0.0 0.0
  outer loop
    vertex -50.0 1.8999999999999997 5.4
    vertex -50.0 37.0 7.5
    vertex -50.0 7.1 5.4
  endloop
endfacet
facet normal -1.0 0.0 0.0
  outer loop
    vertex -50.0 7.1 5.4
    vertex -50.0 37.0 7.5
    vertex -50.0 11.899999999999995 5.4
  endloop
endfacet
facet normal -1.0 0.0 0.0
  outer loop
    vertex -50.0 7.1 5.4
    vertex -50.0 11.899999999999995 5.4
    vertex -50.0 7.1 0.0
  endloop
endfacet
facet normal -1.0 0.0 0.0
  outer loop
    vertex -50.0 11.899999999999995 5.4
    vertex -50.0 37.0 7.5
    vertex -50.0 17.09999999999999 5.4
  endloop
endfacet
facet normal -1.0 0.0 0.0
  outer loop
    vertex -50.0 17.09999999999999 5.4
    vertex -50.0 37.0 7.5
    vertex -50.0 21.899999999999995 5.4
  endloop
endfacet
facet normal -1.0 0.0 0.0
  outer loop
    vertex -50.0 17.09999999999999 5.4
    vertex -50.0 21.899999999999995 5.4
    vertex -50.0 17.09999999999999 0.0
  endloop
endfacet
facet normal -1.0 0.0 0.0
  outer loop
    vertex -50.0 21.899999999999995 5.4
    vertex -50.0 37.0 7.5
    vertex -50.0 27.099999999999994 5.4
  endloop
endfacet
facet normal -1.0 0.0 0.0
  outer loop
    vertex -50.0 27.099999999999994 5.4
    vertex -50.0 37.0 7.5
    vertex -50.0 28.999999999999996 5.0
  endloop
endfacet
facet normal -1.0 0.0 0.0
  outer loop
    vertex -50.0 27.099999999999994 5.4
    vertex -50.0 28.999999999999996 5.0
    vertex -50.0 27.099999999999994 0.0
  endloop
endfacet
facet normal -1.0 0.0 0.0
  outer loop
    vertex -50.0 28.999999999999996 5.0
    vertex -50.0 37.0 7.5
    vertex -50.0 32.688008999999994 5.0
  endloop
endfacet
facet normal -1.0 0.0 0.0
  outer loop
    vertex -50.0 32.688008999999994 5.0
    vertex -50.0 37.0 7.5
    vertex -50.0 32.688008999999994 0.0
  endloop
endfacet
facet normal -1.0 0.0 0.0
  outer loop
    vertex -50.0 32.688008999999994 0.0
    vertex -50.0 37.0 7.5
    vertex -50.0 37.0 0.0
  endloop
endfacet
facet normal -1.0 0.0 0.0
  outer loop
    vertex -50.0 28.999999999999996 0.0
    vertex -50.0 27.099999999999994 0.0
    vertex -50.0 28.999999999999996 5.0
  endloop
endfacet
facet normal -1.0 0.0 0.0
  outer loop
    vertex -50.0 21.899999999999995 0.0
    vertex -50.0 17.09999999999999 0.0
    vertex -50.0 21.899999999999995 5.4
  endloop
endfacet
facet normal -1.0 0.0 0.0
  outer loop
    vertex -50.0 11.899999999999995 0.0
    vertex -50.0 7.1 0.0
    vertex -50.0 11.899999999999995 5.4
  endloop
endfacet
facet normal -1.0 0.0 0.0
  outer loop
    vertex -50.0 1.8999999999999997 0.0
    vertex -50.0 0.0 0.0
    vertex -50.0 1.8999999999999997 5.4
  endloop
endfacet
facet normal -1.0 0.0 0.0
  outer loop
    vertex 111.6 32.688008999999994 7.499999999999995
    vertex 111.6 28.999999999999996 5.0
    vertex 111.6 28.999999999999996 7.499999999999995
  endloop
endfacet
facet normal -1.0 0.0 0.0
  outer loop
    vertex 111.6 28.999999999999996 5.0
    vertex 111.6 32.688008999999994 7.499999999999995
    vertex 111.6 32.688008999999994 5.0
  endloop
endfacet
facet normal 7.049916206369744e-17 0.0 -1.0
  outer loop
    vertex -40.0 32.688008999999994 5.000000000000001
    vertex -50.0 28.999999999999996 5.0
    vertex -50.0 32.688008999999994 5.0
  endloop
endfacet
facet normal 7.049916206369744e-17 0.0 -1.0
  outer loop
    vertex -50.0 28.999999999999996 5.0
    vertex -40.0 32.688008999999994 5.000000000000001
    vertex -40.0 28.999999999999996 5.000000000000001
  endloop
endfacet
facet normal -1.0 0.0 0.0
  outer loop
    vertex 110.90130600000003 28.999999999999996 7.5
    vertex 110.90130600000003 1.9999999999999998 8.459899447643692e-15
    vertex 110.90130600000003 1.9999999999999998 7.5
  endloop
endfacet
facet normal -1.0 0.0 0.0
  outer loop
    vertex 110.90130600000003 1.9999999999999998 8.459899447643692e-15
    vertex 110.90130600000003 28.999999999999996 7.5
    vertex 110.90130600000003 28.999999999999996 8.459899447643692e-15
  endloop
endfacet
facet normal 2.0047155089203054e-18 1.0 1.3281240246597028e-16
  outer loop
    vertex -6.5325760000000015 1.9999999999999998 -3.524958103184872e-15
    vertex 19.549159999999986 2.0000000000000036 3.49999999999998
    vertex 19.549159999999986 2.0000000000000036 -3.536782234162616e-14
  endloop
endfacet
facet normal 2.0047155089203054e-18 1.0 1.3281240246597028e-16
  outer loop
    vertex 19.549159999999986 2.0000000000000036 3.49999999999998
    vertex -6.5325760000000015 1.9999999999999998 -3.524958103184872e-15
    vertex -6.5325760000000015 1.9999999999999998 7.5
  endloop
endfacet
facet normal 2.0047155089203054e-18 1.0 1.3281240246597028e-16
  outer loop
    vertex 19.549159999999986 2.0000000000000036 3.49999999999998
    vertex -6.5325760000000015 1.9999999999999998 7.5
    vertex 44.87053255515425 2.0000000000000018 3.499999999999988
  endloop
endfacet
facet normal 2.0047155089203054e-18 1.0 1.3281240246597028e-16
  outer loop
    vertex 44.87053255515425 2.0000000000000018 3.499999999999988
    vertex -6.5325760000000015 1.9999999999999998 7.5
    vertex 60.1024725031285 2.0000000000000018 3.499999999999992
  endloop
endfacet
facet normal 2.0047155089203054e-18 1.0 1.3281240246597028e-16
  outer loop
    vertex 60.1024725031285 2.0000000000000018 3.499999999999992
    vertex -6.5325760000000015 1.9999999999999998 7.5
    vertex 88.17792599999997 1.9999999999999998 3.5000000000000004
  endloop
endfacet
facet normal 2.0047155089203054e-18 1.0 1.3281240246597028e-16
  outer loop
    vertex 88.17792599999997 1.9999999999999998 3.5000000000000004
    vertex 110.90130600000003 1.9999999999999998 8.459899447643692e-15
    vertex 88.17792599999997 1.9999999999999998 8.459899447643692e-15
  endloop
endfacet
facet normal 2.0047155089203054e-18 1.0 1.3281240246597028e-16
  outer loop
    vertex 110.90130600000003 1.9999999999999998 8.459899447643692e-15
    vertex 88.17792599999997 1.9999999999999998 3.5000000000000004
    vertex 110.90130600000003 1.9999999999999998 7.5
  endloop
endfacet
facet normal 2.0047155089203054e-18 1.0 1.3281240246597028e-16
  outer loop
    vertex 110.90130600000003 1.9999999999999998 7.5
    vertex 88.17792599999997 1.9999999999999998 3.5000000000000004
    vertex -6.5325760000000015 1.9999999999999998 7.5
  endloop
endfacet
facet normal -3.013272590088849e-16 -3.015007674386732e-33 1.0
  outer loop
    vertex 88.17792599999997 1.9999999999999998 3.5000000000000004
    vertex 60.1024725031285 32.688008999999994 3.499999999999992
    vertex 60.1024725031285 2.0000000000000018 3.499999999999992
  endloop
endfacet
facet normal -3.013272590088849e-16 -3.015007674386732e-33 1.0
  outer loop
    vertex 60.1024725031285 32.688008999999994 3.499999999999992
    vertex 88.17792599999997 1.9999999999999998 3.5000000000000004
    vertex 88.17792599999997 32.688008999999994 3.5000000000000004
  endloop
endfacet
facet normal 0.0 -1.0 0.0
  outer loop
    vertex 126.0 7.1 5.3999999999999995
    vertex 121.8 7.1 0.0
    vertex 126.0 7.1 0.0
  endloop
endfacet
facet normal 0.0 -1.0 0.0
  outer loop
    vertex 121.8 7.1 0.0
    vertex 126.0 7.1 5.3999999999999995
    vertex 121.8 7.1 5.3999999999999995
  endloop
endfacet
facet normal -0.0 -0.0 -1.0
  outer loop
    vertex 126.0 7.1 5.3999999999999995
    vertex 121.8 1.8999999999999997 5.3999999999999995
    vertex 121.8 7.1 5.3999999999999995
  endloop
endfacet
facet normal -0.0 -0.0 -1.0
  outer loop
    vertex 121.8 1.8999999999999997 5.3999999999999995
    vertex 126.0 7.1 5.3999999999999995
    vertex 126.0 1.8999999999999997 5.3999999999999995
  endloop
endfacet
facet normal 1.0 0.0 0.0
  outer loop
    vertex 121.8 7.1 0.0
    vertex 121.8 1.8999999999999997 5.3999999999999995
    vertex 121.8 1.8999999999999997 0.0
  endloop
endfacet
facet normal 1.0 0.0 0.0
  outer loop
    vertex 121.8 1.8999999999999997 5.3999999999999995
    vertex 121.8 7.1 0.0
    vertex 121.8 7.1 5.3999999999999995
  endloop
endfacet
facet normal 0.0 1.0 0.0
  outer loop
    vertex 121.8 21.9 5.3999999999999995
    vertex 126.0 21.9 0.0
    vertex 121.8 21.9 0.0
  endloop
endfacet
facet normal 0.0 1.0 0.0
  outer loop
    vertex 126.0 21.9 0.0
    vertex 121.8 21.9 5.3999999999999995
    vertex 126.0 21.9 5.3999999999999995
  endloop
endfacet
facet normal 1.0 0.0 0.0
  outer loop
    vertex 121.8 27.1 0.0
    vertex 121.8 21.9 5.3999999999999995
    vertex 121.8 21.9 0.0
  endloop
endfacet
facet normal 1.0 0.0 0.0
  outer loop
    vertex 121.8 21.9 5.3999999999999995
    vertex 121.8 27.1 0.0
    vertex 121.8 27.1 5.3999999999999995
  endloop
endfacet
facet normal -0.0 -0.0 -1.0
  outer loop
    vertex 126.0 27.1 5.3999999999999995
    vertex 121.8 21.9 5.3999999999999995
    vertex 121.8 27.1 5.3999999999999995
  endloop
endfacet
facet normal -0.0 -0.0 -1.0
  outer loop
    vertex 121.8 21.9 5.3999999999999995
    vertex 126.0 27.1 5.3999999999999995
    vertex 126.0 21.9 5.3999999999999995
  endloop
endfacet
facet normal -0.0 -0.0 -1.0
  outer loop
    vertex 126.0 17.1 5.3999999999999995
    vertex 121.8 11.9 5.3999999999999995
    vertex 121.8 17.1 5.3999999999999995
  endloop
endfacet
facet normal -0.0 -0.0 -1.0
  outer loop
    vertex 121.8 11.9 5.3999999999999995
    vertex 126.0 17.1 5.3999999999999995
    vertex 126.0 11.9 5.3999999999999995
  endloop
endfacet
facet normal 0.0 -1.0 0.0
  outer loop
    vertex 126.0 17.1 5.3999999999999995
    vertex 121.8 17.1 0.0
    vertex 126.0 17.1 0.0
  endloop
endfacet
facet normal 0.0 -1.0 0.0
  outer loop
    vertex 121.8 17.1 0.0
    vertex 126.0 17.1 5.3999999999999995
    vertex 121.8 17.1 5.3999999999999995
  endloop
endfacet
facet normal 0.0 1.0 0.0
  outer loop
    vertex 121.8 11.9 5.3999999999999995
    vertex 126.0 11.9 0.0
    vertex 121.8 11.9 0.0
  endloop
endfacet
facet normal 0.0 1.0 0.0
  outer loop
    vertex 126.0 11.9 0.0
    vertex 121.8 11.9 5.3999999999999995
    vertex 126.0 11.9 5.3999999999999995
  endloop
endfacet
facet normal 1.0 0.0 0.0
  outer loop
    vertex 121.8 17.1 0.0
    vertex 121.8 11.9 5.3999999999999995
    vertex 121.8 11.9 0.0
  endloop
endfacet
facet normal 1.0 0.0 0.0
  outer loop
    vertex 121.8 11.9 5.3999999999999995
    vertex 121.8 17.1 0.0
    vertex 121.8 17.1 5.3999999999999995
  endloop
endfacet
facet normal -1.0 0.0 0.0
  outer loop
    vertex -45.8 27.099999999999994 5.4
    vertex -45.8 21.899999999999995 0.0
    vertex -45.8 21.899999999999995 5.4
  endloop
endfacet
facet normal -1.0 0.0 0.0
  outer loop
    vertex -45.8 21.899999999999995 0.0
    vertex -45.8 27.099999999999994 5.4
    vertex -45.8 27.099999999999994 0.0
  endloop
endfacet
facet normal 1.0 -0.0 -0.0
  outer loop
    vertex -40.0 32.688008999999994 5.000000000000001
    vertex -40.0 28.999999999999996 7.5
    vertex -40.0 28.999999999999996 5.000000000000001
  endloop
endfacet
facet normal 1.0 -0.0 -0.0
  outer loop
    vertex -40.0 28.999999999999996 7.5
    vertex -40.0 32.688008999999994 5.000000000000001
    vertex -40.0 35.0 7.5
  endloop
endfacet
facet normal 1.0 -0.0 -0.0
  outer loop
    vertex -40.0 35.0 7.5
    vertex -40.0 32.688008999999994 5.000000000000001
    vertex -40.0 35.0 5.000000000000001
  endloop
endfacet
facet normal -1.0 0.0 0.0
  outer loop
    vertex -22.0 35.0 7.5
    vertex -22.0 28.999999999999996 5.000000000000001
    vertex -22.0 28.999999999999996 7.5
  endloop
endfacet
facet normal -1.0 0.0 0.0
  outer loop
    vertex -22.0 28.999999999999996 5.000000000000001
    vertex -22.0 35.0 7.5
    vertex -22.0 32.688008999999994 5.000000000000001
  endloop
endfacet
facet normal -1.0 0.0 0.0
  outer loop
    vertex -22.0 32.688008999999994 5.000000000000001
    vertex -22.0 35.0 7.5
    vertex -22.0 35.0 5.000000000000001
  endloop
endfacet
facet normal -4.5579122977231016e-17 0.0 -1.0
  outer loop
    vertex -6.5325760000000015 32.688008999999994 5.0
    vertex -22.0 28.999999999999996 5.000000000000001
    vertex -22.0 32.688008999999994 5.000000000000001
  endloop
endfacet
facet normal -4.5579122977231016e-17 0.0 -1.0
  outer loop
    vertex -22.0 28.999999999999996 5.000000000000001
    vertex -6.5325760000000015 32.688008999999994 5.0
    vertex -6.5325760000000015 28.999999999999996 5.0
  endloop
endfacet
facet normal -0.0 1.0 -0.0
  outer loop
    vertex 110.90130600000003 28.999999999999996 7.5
    vertex 111.6 28.999999999999996 5.0
    vertex 110.90130600000003 28.999999999999996 8.459899447643692e-15
  endloop
endfacet
facet normal -0.0 1.0 -0.0
  outer loop
    vertex 111.6 28.999999999999996 5.0
    vertex 110.90130600000003 28.999999999999996 7.5
    vertex 111.6 28.999999999999996 7.499999999999995
  endloop
endfacet
facet normal -0.0 1.0 -0.0
  outer loop
    vertex 110.90130600000003 28.999999999999996 8.459899447643692e-15
    vertex 126.0 28.999999999999996 5.0
    vertex 126.0 28.999999999999996 0.0
  endloop
endfacet
facet normal -0.0 1.0 -0.0
  outer loop
    vertex 126.0 28.999999999999996 5.0
    vertex 110.90130600000003 28.999999999999996 8.459899447643692e-15
    vertex 111.6 28.999999999999996 5.0
  endloop
endfacet
facet normal 1.0 -0.0 -0.0
  outer loop
    vertex -6.5325760000000015 28.999999999999996 -3.524958103184872e-15
    vertex -6.5325760000000015 1.9999999999999998 7.5
    vertex -6.5325760000000015 1.9999999999999998 -3.524958103184872e-15
  endloop
endfacet
facet normal 1.0 -0.0 -0.0
  outer loop
    vertex -6.5325760000000015 1.9999999999999998 7.5
    vertex -6.5325760000000015 28.999999999999996 -3.524958103184872e-15
    vertex -6.5325760000000015 28.999999999999996 5.0
  endloop
endfacet
facet normal 1.0 -0.0 -0.0
  outer loop
    vertex -6.5325760000000015 1.9999999999999998 7.5
    vertex -6.5325760000000015 28.999999999999996 5.0
    vertex -6.5325760000000015 32.688008999999994 7.5
  endloop
endfacet
facet normal 1.0 -0.0 -0.0
  outer loop
    vertex -6.5325760000000015 32.688008999999994 7.5
    vertex -6.5325760000000015 28.999999999999996 5.0
    vertex -6.5325760000000015 32.688008999999994 5.0
  endloop
endfacet
facet normal 1.0 0.0 0.0
  outer loop
    vertex 88.17792599999997 32.688008999999994 4.229949723821846e-15
    vertex 88.17792599999997 1.9999999999999998 3.5000000000000004
    vertex 88.17792599999997 1.9999999999999998 8.459899447643692e-15
  endloop
endfacet
facet normal 1.0 0.0 0.0
  outer loop
    vertex 88.17792599999997 1.9999999999999998 3.5000000000000004
    vertex 88.17792599999997 32.688008999999994 4.229949723821846e-15
    vertex 88.17792599999997 32.688008999999994 3.5000000000000004
  endloop
endfacet
facet normal -1.0 2.635032102581473e-16 -8.83276623746944e-16
  outer loop
    vertex 19.549159999999997 32.688008999999994 3.4999999999999796
    vertex 19.549159999999986 2.0000000000000036 -3.536782234162616e-14
    vertex 19.549159999999986 2.0000000000000036 3.49999999999998
  endloop
endfacet
facet normal -1.0 2.635032102581473e-16 -8.83276623746944e-16
  outer loop
    vertex 19.549159999999986 2.0000000000000036 -3.536782234162616e-14
    vertex 19.549159999999997 32.688008999999994 3.4999999999999796
    vertex 19.549159999999997 32.688008999999994 -3.1827147864732826e-14
  endloop
endfacet
facet normal 0.0 -1.0 0.0
  outer loop
    vertex 14.399999999999999 32.688008999999994 7.5
    vertex -6.5325760000000015 32.688008999999994 5.0
    vertex 14.399999999999999 32.688008999999994 5.0
  endloop
endfacet
facet normal 0.0 -1.0 0.0
  outer loop
    vertex -6.5325760000000015 32.688008999999994 5.0
    vertex 14.399999999999999 32.688008999999994 7.5
    vertex -6.5325760000000015 32.688008999999994 7.5
  endloop
endfacet
facet normal -0.0 1.0 -0.0
  outer loop
    vertex -50.0 37.0 7.5
    vertex 126.0 37.0 0.0
    vertex -50.0 37.0 0.0
  endloop
endfacet
facet normal -0.0 1.0 -0.0
  outer loop
    vertex 126.0 37.0 0.0
    vertex -50.0 37.0 7.5
    vertex 126.0 37.0 7.5
  endloop
endfacet
facet normal 8.017827722245416e-18 9.162658549311935e-18 -1.0
  outer loop
    vertex -6.5325760000000015 28.999999999999996 -3.524958103184872e-15
    vertex -50.0 27.099999999999994 0.0
    vertex -50.0 28.999999999999996 0.0
  endloop
endfacet
facet normal 8.017827722245416e-18 9.162658549311935e-18 -1.0
  outer loop
    vertex -50.0 27.099999999999994 0.0
    vertex -6.5325760000000015 28.999999999999996 -3.524958103184872e-15
    vertex -45.8 27.099999999999994 0.0
  endloop
endfacet
facet normal 8.017827722245416e-18 9.162658549311935e-18 -1.0
  outer loop
    vertex -45.8 27.099999999999994 0.0
    vertex -6.5325760000000015 28.999999999999996 -3.524958103184872e-15
    vertex -45.8 21.899999999999995 0.0
  endloop
endfacet
facet normal 8.017827722245416e-18 9.162658549311935e-18 -1.0
  outer loop
    vertex -45.8 21.899999999999995 0.0
    vertex -6.5325760000000015 28.999999999999996 -3.524958103184872e-15
    vertex -45.8 17.09999999999999 0.0
  endloop
endfacet
facet normal 8.017827722245416e-18 9.162658549311935e-18 -1.0
  outer loop
    vertex -45.8 17.09999999999999 0.0
    vertex -6.5325760000000015 28.999999999999996 -3.524958103184872e-15
    vertex -45.8 11.899999999999995 0.0
  endloop
endfacet
facet normal 8.017827722245416e-18 9.162658549311935e-18 -1.0
  outer loop
    vertex -45.8 11.899999999999995 0.0
    vertex -6.5325760000000015 28.999999999999996 -3.524958103184872e-15
    vertex -45.8 7.1 0.0
  endloop
endfacet
facet normal 8.017827722245416e-18 9.162658549311935e-18 -1.0
  outer loop
    vertex -45.8 7.1 0.0
    vertex -6.5325760000000015 28.999999999999996 -3.524958103184872e-15
    vertex -45.8 1.8999999999999997 0.0
  endloop
endfacet
facet normal 8.017827722245416e-18 9.162658549311935e-18 -1.0
  outer loop
    vertex 126.0 37.0 0.0
    vertex -50.0 32.688008999999994 0.0
    vertex -50.0 37.0 0.0
  endloop
endfacet
facet normal 8.017827722245416e-18 9.162658549311935e-18 -1.0
  outer loop
    vertex -50.0 32.688008999999994 0.0
    vertex 126.0 37.0 0.0
    vertex 19.549159999999997 32.688008999999994 -3.1827147864732826e-14
  endloop
endfacet
facet normal 8.017827722245416e-18 9.162658549311935e-18 -1.0
  outer loop
    vertex 19.549159999999997 32.688008999999994 -3.1827147864732826e-14
    vertex 126.0 37.0 0.0
    vertex 44.87053255515425 32.688008999999994 7.049916206369744e-16
  endloop
endfacet
facet normal 8.017827722245416e-18 9.162658549311935e-18 -1.0
  outer loop
    vertex 44.87053255515425 32.688008999999994 7.049916206369744e-16
    vertex 126.0 37.0 0.0
    vertex 60.1024725031285 32.688008999999994 7.049916206369744e-16
  endloop
endfacet
facet normal 8.017827722245416e-18 9.162658549311935e-18 -1.0
  outer loop
    vertex 60.1024725031285 32.688008999999994 7.049916206369744e-16
    vertex 126.0 37.0 0.0
    vertex 88.17792599999997 32.688008999999994 4.229949723821846e-15
  endloop
endfacet
facet normal 8.017827722245416e-18 9.162658549311935e-18 -1.0
  outer loop
    vertex 60.1024725031285 32.688008999999994 7.049916206369744e-16
    vertex 88.17792599999997 32.688008999999994 4.229949723821846e-15
    vertex 60.1024725031285 2.0000000000000018 7.049916206369744e-16
  endloop
endfacet
facet normal 8.017827722245416e-18 9.162658549311935e-18 -1.0
  outer loop
    vertex 88.17792599999997 32.688008999999994 4.229949723821846e-15
    vertex 126.0 37.0 0.0
    vertex 126.0 32.688008999999994 0.0
  endloop
endfacet
facet normal 8.017827722245416e-18 9.162658549311935e-18 -1.0
  outer loop
    vertex 110.90130600000003 28.999999999999996 8.459899447643692e-15
    vertex 121.8 27.1 0.0
    vertex 110.90130600000003 1.9999999999999998 8.459899447643692e-15
  endloop
endfacet
facet normal 8.017827722245416e-18 9.162658549311935e-18 -1.0
  outer loop
    vertex 121.8 27.1 0.0
    vertex 110.90130600000003 28.999999999999996 8.459899447643692e-15
    vertex 126.0 28.999999999999996 0.0
  endloop
endfacet
facet normal 8.017827722245416e-18 9.162658549311935e-18 -1.0
  outer loop
    vertex 121.8 27.1 0.0
    vertex 126.0 28.999999999999996 0.0
    vertex 126.0 27.1 0.0
  endloop
endfacet
facet normal 8.017827722245416e-18 9.162658549311935e-18 -1.0
  outer loop
    vertex 126.0 21.9 0.0
    vertex 121.8 17.1 0.0
    vertex 121.8 21.9 0.0
  endloop
endfacet
facet normal 8.017827722245416e-18 9.162658549311935e-18 -1.0
  outer loop
    vertex 121.8 17.1 0.0
    vertex 126.0 21.9 0.0
    vertex 126.0 17.1 0.0
  endloop
endfacet
facet normal 8.017827722245416e-18 9.162658549311935e-18 -1.0
  outer loop
    vertex 126.0 11.9 0.0
    vertex 121.8 7.1 0.0
    vertex 121.8 11.9 0.0
  endloop
endfacet
facet normal 8.017827722245416e-18 9.162658549311935e-18 -1.0
  outer loop
    vertex 121.8 7.1 0.0
    vertex 126.0 11.9 0.0
    vertex 126.0 7.1 0.0
  endloop
endfacet
facet normal 8.017827722245416e-18 9.162658549311935e-18 -1.0
  outer loop
    vertex -45.8 1.8999999999999997 0.0
    vertex -50.0 0.0 0.0
    vertex -50.0 1.8999999999999997 0.0
  endloop
endfacet
facet normal 8.017827722245416e-18 9.162658549311935e-18 -1.0
  outer loop
    vertex -50.0 0.0 0.0
    vertex -45.8 1.8999999999999997 0.0
    vertex 126.0 0.0 0.0
  endloop
endfacet
facet normal 8.017827722245416e-18 9.162658549311935e-18 -1.0
  outer loop
    vertex 126.0 0.0 0.0
    vertex -45.8 1.8999999999999997 0.0
    vertex -6.5325760000000015 1.9999999999999998 -3.524958103184872e-15
  endloop
endfacet
facet normal 8.017827722245416e-18 9.162658549311935e-18 -1.0
  outer loop
    vertex -6.5325760000000015 1.9999999999999998 -3.524958103184872e-15
    vertex -45.8 1.8999999999999997 0.0
    vertex -6.5325760000000015 28.999999999999996 -3.524958103184872e-15
  endloop
endfacet
facet normal 8.017827722245416e-18 9.162658549311935e-18 -1.0
  outer loop
    vertex 126.0 0.0 0.0
    vertex -6.5325760000000015 1.9999999999999998 -3.524958103184872e-15
    vertex 19.549159999999986 2.0000000000000036 -3.536782234162616e-14
  endloop
endfacet
facet normal 8.017827722245416e-18 9.162658549311935e-18 -1.0
  outer loop
    vertex 126.0 0.0 0.0
    vertex 19.549159999999986 2.0000000000000036 -3.536782234162616e-14
    vertex 44.87053255515425 2.0000000000000018 7.049916206369744e-16
  endloop
endfacet
facet normal 8.017827722245416e-18 9.162658549311935e-18 -1.0
  outer loop
    vertex 44.87053255515425 2.0000000000000018 7.049916206369744e-16
    vertex 19.549159999999986 2.0000000000000036 -3.536782234162616e-14
    vertex 19.549159999999997 32.688008999999994 -3.1827147864732826e-14
  endloop
endfacet
facet normal 8.017827722245416e-18 9.162658549311935e-18 -1.0
  outer loop
    vertex 44.87053255515425 2.0000000000000018 7.049916206369744e-16
    vertex 19.549159999999997 32.688008999999994 -3.1827147864732826e-14
    vertex 44.87053255515425 32.688008999999994 7.049916206369744e-16
  endloop
endfacet
facet normal 8.017827722245416e-18 9.162658549311935e-18 -1.0
  outer loop
    vertex 126.0 0.0 0.0
    vertex 44.87053255515425 2.0000000000000018 7.049916206369744e-16
    vertex 60.1024725031285 2.0000000000000018 7.049916206369744e-16
  endloop
endfacet
facet normal 8.017827722245416e-18 9.162658549311935e-18 -1.0
  outer loop
    vertex 126.0 0.0 0.0
    vertex 60.1024725031285 2.0000000000000018 7.049916206369744e-16
    vertex 88.17792599999997 1.9999999999999998 8.459899447643692e-15
  endloop
endfacet
facet normal 8.017827722245416e-18 9.162658549311935e-18 -1.0
  outer loop
    vertex 88.17792599999997 1.9999999999999998 8.459899447643692e-15
    vertex 60.1024725031285 2.0000000000000018 7.049916206369744e-16
    vertex 88.17792599999997 32.688008999999994 4.229949723821846e-15
  endloop
endfacet
facet normal 8.017827722245416e-18 9.162658549311935e-18 -1.0
  outer loop
    vertex 126.0 0.0 0.0
    vertex 88.17792599999997 1.9999999999999998 8.459899447643692e-15
    vertex 110.90130600000003 1.9999999999999998 8.459899447643692e-15
  endloop
endfacet
facet normal 8.017827722245416e-18 9.162658549311935e-18 -1.0
  outer loop
    vertex 126.0 0.0 0.0
    vertex 110.90130600000003 1.9999999999999998 8.459899447643692e-15
    vertex 121.8 1.8999999999999997 0.0
  endloop
endfacet
facet normal 8.017827722245416e-18 9.162658549311935e-18 -1.0
  outer loop
    vertex 121.8 1.8999999999999997 0.0
    vertex 110.90130600000003 1.9999999999999998 8.459899447643692e-15
    vertex 121.8 27.1 0.0
  endloop
endfacet
facet normal 8.017827722245416e-18 9.162658549311935e-18 -1.0
  outer loop
    vertex 121.8 1.8999999999999997 0.0
    vertex 121.8 27.1 0.0
    vertex 121.8 21.9 0.0
  endloop
endfacet
facet normal 8.017827722245416e-18 9.162658549311935e-18 -1.0
  outer loop
    vertex 121.8 1.8999999999999997 0.0
    vertex 121.8 21.9 0.0
    vertex 121.8 17.1 0.0
  endloop
endfacet
facet normal 8.017827722245416e-18 9.162658549311935e-18 -1.0
  outer loop
    vertex 121.8 1.8999999999999997 0.0
    vertex 121.8 17.1 0.0
    vertex 121.8 11.9 0.0
  endloop
endfacet
facet normal 8.017827722245416e-18 9.162658549311935e-18 -1.0
  outer loop
    vertex 121.8 1.8999999999999997 0.0
    vertex 121.8 11.9 0.0
    vertex 121.8 7.1 0.0
  endloop
endfacet
facet normal 8.017827722245416e-18 9.162658549311935e-18 -1.0
  outer loop
    vertex 126.0 0.0 0.0
    vertex 121.8 1.8999999999999997 0.0
    vertex 126.0 1.8999999999999997 0.0
  endloop
endfacet
facet normal 8.017827722245416e-18 9.162658549311935e-18 -1.0
  outer loop
    vertex -45.8 11.899999999999995 0.0
    vertex -50.0 7.1 0.0
    vertex -50.0 11.899999999999995 0.0
  endloop
endfacet
facet normal 8.017827722245416e-18 9.162658549311935e-18 -1.0
  outer loop
    vertex -50.0 7.1 0.0
    vertex -45.8 11.899999999999995 0.0
    vertex -45.8 7.1 0.0
  endloop
endfacet
facet normal 8.017827722245416e-18 9.162658549311935e-18 -1.0
  outer loop
    vertex -45.8 21.899999999999995 0.0
    vertex -50.0 17.09999999999999 0.0
    vertex -50.0 21.899999999999995 0.0
  endloop
endfacet
facet normal 8.017827722245416e-18 9.162658549311935e-18 -1.0
  outer loop
    vertex -50.0 17.09999999999999 0.0
    vertex -45.8 21.899999999999995 0.0
    vertex -45.8 17.09999999999999 0.0
  endloop
endfacet
facet normal -0.0 -0.0 1.0
  outer loop
    vertex -50.0 0.0 7.5
    vertex -6.5325760000000015 1.9999999999999998 7.5
    vertex -50.0 37.0 7.5
  endloop
endfacet
facet normal -0.0 -0.0 1.0
  outer loop
    vertex -6.5325760000000015 1.9999999999999998 7.5
    vertex -50.0 0.0 7.5
    vertex 126.0 0.0 7.5
  endloop
endfacet
facet normal -0.0 -0.0 1.0
  outer loop
    vertex -50.0 37.0 7.5
    vertex -6.5325760000000015 1.9999999999999998 7.5
    vertex -40.0 28.999999999999996 7.5
  endloop
endfacet
facet normal -0.0 -0.0 1.0
  outer loop
    vertex -40.0 28.999999999999996 7.5
    vertex -6.5325760000000015 1.9999999999999998 7.5
    vertex -22.0 28.999999999999996 7.5
  endloop
endfacet
facet normal -0.0 -0.0 1.0
  outer loop
    vertex -22.0 28.999999999999996 7.5
    vertex -6.5325760000000015 1.9999999999999998 7.5
    vertex -22.0 35.0 7.5
  endloop
endfacet
facet normal -0.0 -0.0 1.0
  outer loop
    vertex -6.5325760000000015 1.9999999999999998 7.5
    vertex 126.0 0.0 7.5
    vertex 110.90130600000003 1.9999999999999998 7.5
  endloop
endfacet
facet normal -0.0 -0.0 1.0
  outer loop
    vertex 110.90130600000003 1.9999999999999998 7.5
    vertex 126.0 0.0 7.5
    vertex 110.90130600000003 28.999999999999996 7.5
  endloop
endfacet
facet normal -0.0 -0.0 1.0
  outer loop
    vertex 110.90130600000003 28.999999999999996 7.5
    vertex 126.0 0.0 7.5
    vertex 111.6 28.999999999999996 7.499999999999995
  endloop
endfacet
facet normal -0.0 -0.0 1.0
  outer loop
    vertex 111.6 28.999999999999996 7.499999999999995
    vertex 126.0 0.0 7.5
    vertex 111.6 32.688008999999994 7.499999999999995
  endloop
endfacet
facet normal -0.0 -0.0 1.0
  outer loop
    vertex -50.0 37.0 7.5
    vertex -40.0 35.0 7.5
    vertex 126.0 37.0 7.5
  endloop
endfacet
facet normal -0.0 -0.0 1.0
  outer loop
    vertex -40.0 35.0 7.5
    vertex -50.0 37.0 7.5
    vertex -40.0 28.999999999999996 7.5
  endloop
endfacet
facet normal -0.0 -0.0 1.0
  outer loop
    vertex 126.0 37.0 7.5
    vertex -40.0 35.0 7.5
    vertex -22.0 35.0 7.5
  endloop
endfacet
facet normal -0.0 -0.0 1.0
  outer loop
    vertex 126.0 37.0 7.5
    vertex -22.0 35.0 7.5
    vertex -6.5325760000000015 32.688008999999994 7.5
  endloop
endfacet
facet normal -0.0 -0.0 1.0
  outer loop
    vertex -6.5325760000000015 32.688008999999994 7.5
    vertex -22.0 35.0 7.5
    vertex -6.5325760000000015 1.9999999999999998 7.5
  endloop
endfacet
facet normal -0.0 -0.0 1.0
  outer loop
    vertex 126.0 37.0 7.5
    vertex -6.5325760000000015 32.688008999999994 7.5
    vertex 14.399999999999999 32.688008999999994 7.5
  endloop
endfacet
facet normal -0.0 -0.0 1.0
  outer loop
    vertex 126.0 37.0 7.5
    vertex 14.399999999999999 32.688008999999994 7.5
    vertex 111.6 32.688008999999994 7.499999999999995
  endloop
endfacet
facet normal -0.0 -0.0 1.0
  outer loop
    vertex 126.0 37.0 7.5
    vertex 111.6 32.688008999999994 7.499999999999995
    vertex 126.0 0.0 7.5
  endloop
endfacet
facet normal 0.0 -1.0 0.0
  outer loop
    vertex -22.0 35.0 7.5
    vertex -40.0 35.0 5.000000000000001
    vertex -22.0 35.0 5.000000000000001
  endloop
endfacet
facet normal 0.0 -1.0 0.0
  outer loop
    vertex -40.0 35.0 5.000000000000001
    vertex -22.0 35.0 7.5
    vertex -40.0 35.0 7.5
  endloop
endfacet
facet normal 0.0 -1.0 0.0
  outer loop
    vertex 126.0 32.688008999999994 5.0
    vertex 88.17792599999997 32.688008999999994 4.229949723821846e-15
    vertex 126.0 32.688008999999994 0.0
  endloop
endfacet
facet normal 0.0 -1.0 0.0
  outer loop
    vertex 88.17792599999997 32.688008999999994 4.229949723821846e-15
    vertex 126.0 32.688008999999994 5.0
    vertex 88.17792599999997 32.688008999999994 3.5000000000000004
  endloop
endfacet
facet normal 0.0 -1.0 0.0
  outer loop
    vertex 111.6 32.688008999999994 7.499999999999995
    vertex 14.399999999999999 32.688008999999994 5.0
    vertex 111.6 32.688008999999994 5.0
  endloop
endfacet
facet normal 0.0 -1.0 0.0
  outer loop
    vertex 14.399999999999999 32.688008999999994 5.0
    vertex 111.6 32.688008999999994 7.499999999999995
    vertex 14.399999999999999 32.688008999999994 7.5
  endloop
endfacet
facet normal 0.0 -1.0 0.0
  outer loop
    vertex 19.549159999999997 32.688008999999994 3.4999999999999796
    vertex -50.0 32.688008999999994 0.0
    vertex 19.549159999999997 32.688008999999994 -3.1827147864732826e-14
  endloop
endfacet
facet normal 0.0 -1.0 0.0
  outer loop
    vertex -50.0 32.688008999999994 0.0
    vertex 19.549159999999997 32.688008999999994 3.4999999999999796
    vertex -50.0 32.688008999999994 5.0
  endloop
endfacet
facet normal 0.0 -1.0 0.0
  outer loop
    vertex -50.0 32.688008999999994 5.0
    vertex 19.549159999999997 32.688008999999994 3.4999999999999796
    vertex 44.87053255515425 32.688008999999994 3.499999999999987
  endloop
endfacet
facet normal 0.0 -1.0 0.0
  outer loop
    vertex -50.0 32.688008999999994 5.0
    vertex 44.87053255515425 32.688008999999994 3.499999999999987
    vertex 60.1024725031285 32.688008999999994 3.499999999999992
  endloop
endfacet
facet normal 0.0 -1.0 0.0
  outer loop
    vertex -50.0 32.688008999999994 5.0
    vertex 60.1024725031285 32.688008999999994 3.499999999999992
    vertex 88.17792599999997 32.688008999999994 3.5000000000000004
  endloop
endfacet
facet normal 0.0 -1.0 0.0
  outer loop
    vertex -50.0 32.688008999999994 5.0
    vertex 88.17792599999997 32.688008999999994 3.5000000000000004
    vertex 126.0 32.688008999999994 5.0
  endloop
endfacet
facet normal 0.0 -1.0 0.0
  outer loop
    vertex -50.0 32.688008999999994 5.0
    vertex 126.0 32.688008999999994 5.0
    vertex 111.6 32.688008999999994 5.0
  endloop
endfacet
facet normal 0.0 -1.0 0.0
  outer loop
    vertex -50.0 32.688008999999994 5.0
    vertex 111.6 32.688008999999994 5.0
    vertex 14.399999999999999 32.688008999999994 5.0
  endloop
endfacet
facet normal 0.0 -1.0 0.0
  outer loop
    vertex -50.0 32.688008999999994 5.0
    vertex 14.399999999999999 32.688008999999994 5.0
    vertex -6.5325760000000015 32.688008999999994 5.0
  endloop
endfacet
facet normal 0.0 -1.0 0.0
  outer loop
    vertex -50.0 32.688008999999994 5.0
    vertex -6.5325760000000015 32.688008999999994 5.0
    vertex -22.0 32.688008999999994 5.000000000000001
  endloop
endfacet
facet normal 0.0 -1.0 0.0
  outer loop
    vertex -50.0 32.688008999999994 5.0
    vertex -22.0 32.688008999999994 5.000000000000001
    vertex -40.0 32.688008999999994 5.000000000000001
  endloop
endfacet
facet normal 0.0 0.0 1.0
  outer loop
    vertex -22.0 32.688008999999994 5.000000000000001
    vertex -40.0 35.0 5.000000000000001
    vertex -40.0 32.688008999999994 5.000000000000001
  endloop
endfacet
facet normal 0.0 0.0 1.0
  outer loop
    vertex -40.0 35.0 5.000000000000001
    vertex -22.0 32.688008999999994 5.000000000000001
    vertex -22.0 35.0 5.000000000000001
  endloop
endfacet
facet normal 0.0 -1.0 0.0
  outer loop
    vertex 60.1024725031285 32.688008999999994 3.499999999999992
    vertex 44.87053255515425 32.688008999999994 7.049916206369744e-16
    vertex 60.1024725031285 32.688008999999994 7.049916206369744e-16
  endloop
endfacet
facet normal 0.0 -1.0 0.0
  outer loop
    vertex 44.87053255515425 32.688008999999994 7.049916206369744e-16
    vertex 60.1024725031285 32.688008999999994 3.499999999999992
    vertex 44.87053255515425 32.688008999999994 3.499999999999987
  endloop
endfacet
facet normal -1.0 0.0 0.0
  outer loop
    vertex 60.1024725031285 32.688008999999994 3.499999999999992
    vertex 60.1024725031285 2.0000000000000018 7.049916206369744e-16
    vertex 60.1024725031285 2.0000000000000018 3.499999999999992
  endloop
endfacet
facet normal -1.0 0.0 0.0
  outer loop
    vertex 60.1024725031285 2.0000000000000018 7.049916206369744e-16
    vertex 60.1024725031285 32.688008999999994 3.499999999999992
    vertex 60.1024725031285 32.688008999999994 7.049916206369744e-16
  endloop
endfacet
facet normal -3.0625937871713747e-16 2.297286932615849e-17 1.0
  outer loop
    vertex 44.87053255515425 2.0000000000000018 3.499999999999988
    vertex 19.549159999999997 32.688008999999994 3.4999999999999796
    vertex 19.549159999999986 2.0000000000000036 3.49999999999998
  endloop
endfacet
facet normal -3.0625937871713747e-16 2.297286932615849e-17 1.0
  outer loop
    vertex 19.549159999999997 32.688008999999994 3.4999999999999796
    vertex 44.87053255515425 2.0000000000000018 3.499999999999988
    vertex 44.87053255515425 32.688008999999994 3.499999999999987
  endloop
endfacet
facet normal 2.31418855065383e-17 1.0 -2.5693270727610517e-33
  outer loop
    vertex 44.87053255515425 2.0000000000000018 3.499999999999988
    vertex 60.1024725031285 2.0000000000000018 7.049916206369744e-16
    vertex 44.87053255515425 2.0000000000000018 7.049916206369744e-16
  endloop
endfacet
facet normal 2.31418855065383e-17 1.0 -2.5693270727610517e-33
  outer loop
    vertex 60.1024725031285 2.0000000000000018 7.049916206369744e-16
    vertex 44.87053255515425 2.0000000000000018 3.499999999999988
    vertex 60.1024725031285 2.0000000000000018 3.499999999999992
  endloop
endfacet
endsolid ModifiedcentralBoardArray
