solid SolarPanelModel_20d
facet normal 1.0 2.819966482547894e-17 1.7090705954835746e-15
  outer loop
    vertex 144.0 24.0 3.418141190967149e-15
    vertex 143.99999999999997 5.639932965095787e-17 6.000000000000003
    vertex 143.99999999999997 5.639932965095787e-17 3.418141190967149e-15
  endloop
endfacet
facet normal 1.0 2.819966482547894e-17 1.7090705954835746e-15
  outer loop
    vertex 143.99999999999997 5.639932965095787e-17 6.000000000000003
    vertex 144.0 24.0 3.418141190967149e-15
    vertex 144.0 24.0 4.0000000000000036
  endloop
endfacet
facet normal 1.0 2.819966482547894e-17 1.7090705954835746e-15
  outer loop
    vertex 143.99999999999997 5.639932965095787e-17 6.000000000000003
    vertex 144.0 24.0 4.0000000000000036
    vertex 143.99999999999997 56.0 6.000000000000003
  endloop
endfacet
facet normal 1.0 2.819966482547894e-17 1.7090705954835746e-15
  outer loop
    vertex 143.99999999999997 56.0 6.000000000000003
    vertex 144.0 24.0 4.0000000000000036
    vertex 143.99999999999997 32.0 4.0000000000000036
  endloop
endfacet
facet normal 1.0 2.819966482547894e-17 1.7090705954835746e-15
  outer loop
    vertex 143.99999999999997 56.0 6.000000000000003
    vertex 143.99999999999997 32.0 4.0000000000000036
    vertex 144.0 32.00000000000001 3.418141190967149e-15
  endloop
endfacet
facet normal 1.0 2.819966482547894e-17 1.7090705954835746e-15
  outer loop
    vertex 143.99999999999997 56.0 6.000000000000003
    vertex 144.0 32.00000000000001 3.418141190967149e-15
    vertex 143.99999999999997 56.0 3.418141190967149e-15
  endloop
endfacet
facet normal 0.0 -1.0 0.0
  outer loop
    vertex 143.99999999999997 5.639932965095787e-17 3.418141190967149e-15
    vertex -1.9999999999999998 0.0 6.0
    vertex -1.9999999999999998 0.0 0.0
  endloop
endfacet
facet normal 0.0 -1.0 0.0
  outer loop
    vertex -1.9999999999999998 0.0 6.0
    vertex 143.99999999999997 5.639932965095787e-17 3.418141190967149e-15
    vertex 143.99999999999997 5.639932965095787e-17 6.000000000000003
  endloop
endfacet
facet normal -0.0 -1.0 -0.0
  outer loop
    vertex 70.0 55.0 6.0
    vertex -0.9999999999999999 55.0 3.0
    vertex 70.0 55.0 3.0
  endloop
endfacet
facet normal -0.0 -1.0 -0.0
  outer loop
    vertex -0.9999999999999999 55.0 3.0
    vertex 70.0 55.0 6.0
    vertex -0.9999999999999999 55.0 6.0
  endloop
endfacet
facet normal 1.0 -0.0 -0.0
  outer loop
    vertex -0.9999999999999999 55.0 6.0
    vertex -0.9999999999999999 46.81818181818181 6.0
    vertex -0.9999999999999999 55.0 3.0
  endloop
endfacet
facet normal -1.0 0.0 0.0
  outer loop
    vertex 143.0 9.181818181818178 6.0
    vertex 143.0 0.9999999999999999 3.0
    vertex 143.0 0.9999999999999999 6.0
  endloop
endfacet
facet normal 1.0 -0.0 -0.0
  outer loop
    vertex 71.99999999999999 9.181818181818182 6.0
    vertex 71.99999999999999 0.9999999999999999 6.0
    vertex 71.99999999999999 0.9999999999999999 3.0
  endloop
endfacet
facet normal -0.0 1.0 -0.0
  outer loop
    vertex 71.99999999999999 0.9999999999999999 6.0
    vertex 143.0 0.9999999999999999 3.0
    vertex 71.99999999999999 0.9999999999999999 3.0
  endloop
endfacet
facet normal -0.0 1.0 -0.0
  outer loop
    vertex 143.0 0.9999999999999999 3.0
    vertex 71.99999999999999 0.9999999999999999 6.0
    vertex 143.0 0.9999999999999999 6.0
  endloop
endfacet
facet normal 0.0 -1.0 0.0
  outer loop
    vertex 143.0 55.0 22.8
    vertex 71.99999999999999 55.0 6.0
    vertex 143.0 55.0 6.0
  endloop
endfacet
facet normal 0.0 -1.0 0.0
  outer loop
    vertex 71.99999999999999 55.0 6.0
    vertex 143.0 55.0 22.8
    vertex 71.99999999999999 55.0 22.8
  endloop
endfacet
facet normal -1.0 0.0 0.0
  outer loop
    vertex 70.0 55.0 3.0
    vertex 70.0 46.81818181818182 6.0
    vertex 70.0 55.0 6.0
  endloop
endfacet
facet normal -1.0 0.0 0.0
  outer loop
    vertex -1.9999999999999998 0.0 6.0
    vertex -1.9999999999999998 24.0 3.9999999999999996
    vertex -1.9999999999999998 0.0 0.0
  endloop
endfacet
facet normal -1.0 0.0 0.0
  outer loop
    vertex -1.9999999999999998 24.0 3.9999999999999996
    vertex -1.9999999999999998 0.0 6.0
    vertex -1.9999999999999998 56.0 6.0
  endloop
endfacet
facet normal -1.0 0.0 0.0
  outer loop
    vertex -1.9999999999999998 24.0 3.9999999999999996
    vertex -1.9999999999999998 56.0 6.0
    vertex -1.9999999999999998 32.0 3.9999999999999996
  endloop
endfacet
facet normal -1.0 0.0 0.0
  outer loop
    vertex -1.9999999999999998 32.0 3.9999999999999996
    vertex -1.9999999999999998 56.0 6.0
    vertex -1.9999999999999998 32.0 0.0
  endloop
endfacet
facet normal -1.0 0.0 0.0
  outer loop
    vertex -1.9999999999999998 32.0 0.0
    vertex -1.9999999999999998 56.0 6.0
    vertex -1.9999999999999998 56.0 0.0
  endloop
endfacet
facet normal -1.0 0.0 0.0
  outer loop
    vertex -1.9999999999999998 24.0 0.0
    vertex -1.9999999999999998 0.0 0.0
    vertex -1.9999999999999998 24.0 3.9999999999999996
  endloop
endfacet
facet normal 1.0 -0.0 -0.0
  outer loop
    vertex 48.0 32.0 3.9999999999999996
    vertex 48.0 24.0 11.433333333333335
    vertex 48.0 24.0 3.9999999999999996
  endloop
endfacet
facet normal 1.0 -0.0 -0.0
  outer loop
    vertex 48.0 24.0 11.433333333333335
    vertex 48.0 32.0 3.9999999999999996
    vertex 48.0 24.0 14.36666666666667
  endloop
endfacet
facet normal 1.0 -0.0 -0.0
  outer loop
    vertex 48.0 24.0 14.36666666666667
    vertex 48.0 32.0 3.9999999999999996
    vertex 48.0 32.0 11.433333333333335
  endloop
endfacet
facet normal -1.2936845102978833e-17 1.0 1.3682731791835588e-16
  outer loop
    vertex 23.0 32.0 11.433333333333335
    vertex 48.0 32.0 3.9999999999999996
    vertex 23.0 32.0 3.9999999999999996
  endloop
endfacet
facet normal -1.2936845102978833e-17 1.0 1.3682731791835588e-16
  outer loop
    vertex 48.0 32.0 3.9999999999999996
    vertex 23.0 32.0 11.433333333333335
    vertex 48.0 32.0 11.433333333333335
  endloop
endfacet
facet normal -1.2936845102978833e-17 1.0 1.3682731791835588e-16
  outer loop
    vertex 93.99999999999999 32.0 11.43333333333332
    vertex 118.99999999999999 32.0 3.9999999999999996
    vertex 93.99999999999999 32.0 3.9999999999999996
  endloop
endfacet
facet normal -1.2936845102978833e-17 1.0 1.3682731791835588e-16
  outer loop
    vertex 118.99999999999999 32.0 3.9999999999999996
    vertex 93.99999999999999 32.0 11.43333333333332
    vertex 118.99999999999999 32.0 11.433333333333335
  endloop
endfacet
facet normal -1.2936845102978833e-17 1.0 1.3682731791835588e-16
  outer loop
    vertex 118.99999999999999 32.0 11.433333333333335
    vertex 93.99999999999999 32.0 11.43333333333332
    vertex 93.99999999999999 32.0 14.36666666666667
  endloop
endfacet
facet normal -1.2936845102978833e-17 1.0 1.3682731791835588e-16
  outer loop
    vertex 118.99999999999999 32.0 11.433333333333335
    vertex 93.99999999999999 32.0 14.36666666666667
    vertex 118.99999999999999 32.0 14.36666666666667
  endloop
endfacet
facet normal -1.2936845102978833e-17 1.0 1.3682731791835588e-16
  outer loop
    vertex -1.9999999999999998 32.0 3.9999999999999996
    vertex 144.0 32.00000000000001 3.418141190967149e-15
    vertex -1.9999999999999998 32.0 0.0
  endloop
endfacet
facet normal -1.2936845102978833e-17 1.0 1.3682731791835588e-16
  outer loop
    vertex 144.0 32.00000000000001 3.418141190967149e-15
    vertex -1.9999999999999998 32.0 3.9999999999999996
    vertex 118.99999999999999 32.0 3.9999999999999996
  endloop
endfacet
facet normal -1.2936845102978833e-17 1.0 1.3682731791835588e-16
  outer loop
    vertex 144.0 32.00000000000001 3.418141190967149e-15
    vertex 118.99999999999999 32.0 3.9999999999999996
    vertex 143.99999999999997 32.0 4.0000000000000036
  endloop
endfacet
facet normal -1.2936845102978833e-17 1.0 1.3682731791835588e-16
  outer loop
    vertex 118.99999999999999 32.0 3.9999999999999996
    vertex -1.9999999999999998 32.0 3.9999999999999996
    vertex 23.0 32.0 3.9999999999999996
  endloop
endfacet
facet normal -1.2936845102978833e-17 1.0 1.3682731791835588e-16
  outer loop
    vertex 118.99999999999999 32.0 3.9999999999999996
    vertex 23.0 32.0 3.9999999999999996
    vertex 48.0 32.0 3.9999999999999996
  endloop
endfacet
facet normal -1.2936845102978833e-17 1.0 1.3682731791835588e-16
  outer loop
    vertex 118.99999999999999 32.0 3.9999999999999996
    vertex 48.0 32.0 3.9999999999999996
    vertex 93.99999999999999 32.0 3.9999999999999996
  endloop
endfacet
facet normal -1.0 0.0 0.0
  outer loop
    vertex 93.99999999999999 32.0 11.43333333333332
    vertex 93.99999999999999 24.0 3.9999999999999996
    vertex 93.99999999999999 24.0 11.433333333333335
  endloop
endfacet
facet normal -1.0 0.0 0.0
  outer loop
    vertex 93.99999999999999 24.0 3.9999999999999996
    vertex 93.99999999999999 32.0 11.43333333333332
    vertex 93.99999999999999 32.0 3.9999999999999996
  endloop
endfacet
facet normal -0.0 1.0 -0.0
  outer loop
    vertex -1.0 0.9999999999999999 22.8
    vertex 0.9999999999999998 0.9999999999999999 6.0
    vertex -1.0 0.9999999999999999 6.0
  endloop
endfacet
facet normal -0.0 1.0 -0.0
  outer loop
    vertex 0.9999999999999998 0.9999999999999999 6.0
    vertex -1.0 0.9999999999999999 22.8
    vertex 70.0 0.9999999999999999 6.0
  endloop
endfacet
facet normal -0.0 1.0 -0.0
  outer loop
    vertex 70.0 0.9999999999999999 6.0
    vertex -1.0 0.9999999999999999 22.8
    vertex 70.0 0.9999999999999999 22.8
  endloop
endfacet
facet normal -1.9314838921560943e-17 -0.0 1.0
  outer loop
    vertex -1.9999999999999998 0.0 6.0
    vertex -1.0 0.9999999999999999 6.0
    vertex -1.9999999999999998 56.0 6.0
  endloop
endfacet
facet normal -1.9314838921560943e-17 -0.0 1.0
  outer loop
    vertex -1.0 0.9999999999999999 6.0
    vertex -1.9999999999999998 0.0 6.0
    vertex 143.99999999999997 5.639932965095787e-17 6.000000000000003
  endloop
endfacet
facet normal -1.9314838921560943e-17 -0.0 1.0
  outer loop
    vertex -1.0 0.9999999999999999 6.0
    vertex 143.99999999999997 5.639932965095787e-17 6.000000000000003
    vertex 0.9999999999999998 0.9999999999999999 6.0
  endloop
endfacet
facet normal -1.9314838921560943e-17 -0.0 1.0
  outer loop
    vertex 0.9999999999999998 0.9999999999999999 6.0
    vertex 143.99999999999997 5.639932965095787e-17 6.000000000000003
    vertex 70.0 0.9999999999999999 6.0
  endloop
endfacet
facet normal -1.9314838921560943e-17 -0.0 1.0
  outer loop
    vertex 70.0 0.9999999999999999 6.0
    vertex 143.99999999999997 5.639932965095787e-17 6.000000000000003
    vertex 71.99999999999999 0.9999999999999999 6.0
  endloop
endfacet
facet normal -1.9314838921560943e-17 -0.0 1.0
  outer loop
    vertex 70.0 0.9999999999999999 6.0
    vertex 71.99999999999999 0.9999999999999999 6.0
    vertex 70.0 46.81818181818182 6.0
  endloop
endfacet
facet normal -1.9314838921560943e-17 -0.0 1.0
  outer loop
    vertex 70.0 46.81818181818182 6.0
    vertex 71.99999999999999 0.9999999999999999 6.0
    vertex 70.0 55.0 6.0
  endloop
endfacet
facet normal -1.9314838921560943e-17 -0.0 1.0
  outer loop
    vertex 71.99999999999999 0.9999999999999999 6.0
    vertex 143.99999999999997 5.639932965095787e-17 6.000000000000003
    vertex 143.0 0.9999999999999999 6.0
  endloop
endfacet
facet normal -1.9314838921560943e-17 -0.0 1.0
  outer loop
    vertex 143.0 0.9999999999999999 6.0
    vertex 143.99999999999997 5.639932965095787e-17 6.000000000000003
    vertex 143.0 9.181818181818178 6.0
  endloop
endfacet
facet normal -1.9314838921560943e-17 -0.0 1.0
  outer loop
    vertex 143.0 9.181818181818178 6.0
    vertex 143.99999999999997 5.639932965095787e-17 6.000000000000003
    vertex 143.0 55.0 6.0
  endloop
endfacet
facet normal -1.9314838921560943e-17 -0.0 1.0
  outer loop
    vertex -1.9999999999999998 56.0 6.0
    vertex -0.9999999999999999 55.0 6.0
    vertex 143.99999999999997 56.0 6.000000000000003
  endloop
endfacet
facet normal -1.9314838921560943e-17 -0.0 1.0
  outer loop
    vertex -0.9999999999999999 55.0 6.0
    vertex -1.9999999999999998 56.0 6.0
    vertex -1.0 0.9999999999999999 6.0
  endloop
endfacet
facet normal -1.9314838921560943e-17 -0.0 1.0
  outer loop
    vertex -0.9999999999999999 55.0 6.0
    vertex -1.0 0.9999999999999999 6.0
    vertex -0.9999999999999999 46.81818181818181 6.0
  endloop
endfacet
facet normal -1.9314838921560943e-17 -0.0 1.0
  outer loop
    vertex 143.99999999999997 56.0 6.000000000000003
    vertex -0.9999999999999999 55.0 6.0
    vertex 70.0 55.0 6.0
  endloop
endfacet
facet normal -1.9314838921560943e-17 -0.0 1.0
  outer loop
    vertex 143.99999999999997 56.0 6.000000000000003
    vertex 70.0 55.0 6.0
    vertex 71.99999999999999 55.0 6.0
  endloop
endfacet
facet normal -1.9314838921560943e-17 -0.0 1.0
  outer loop
    vertex 71.99999999999999 55.0 6.0
    vertex 70.0 55.0 6.0
    vertex 71.99999999999999 0.9999999999999999 6.0
  endloop
endfacet
facet normal -1.9314838921560943e-17 -0.0 1.0
  outer loop
    vertex 71.99999999999999 55.0 6.0
    vertex 71.99999999999999 0.9999999999999999 6.0
    vertex 71.99999999999999 9.181818181818182 6.0
  endloop
endfacet
facet normal -1.9314838921560943e-17 -0.0 1.0
  outer loop
    vertex 143.99999999999997 56.0 6.000000000000003
    vertex 71.99999999999999 55.0 6.0
    vertex 143.0 55.0 6.0
  endloop
endfacet
facet normal -1.9314838921560943e-17 -0.0 1.0
  outer loop
    vertex 143.99999999999997 56.0 6.000000000000003
    vertex 143.0 55.0 6.0
    vertex 143.99999999999997 5.639932965095787e-17 6.000000000000003
  endloop
endfacet
facet normal -0.0 1.0 -0.0
  outer loop
    vertex -1.9999999999999998 56.0 6.0
    vertex 143.99999999999997 56.0 3.418141190967149e-15
    vertex -1.9999999999999998 56.0 0.0
  endloop
endfacet
facet normal -0.0 1.0 -0.0
  outer loop
    vertex 143.99999999999997 56.0 3.418141190967149e-15
    vertex -1.9999999999999998 56.0 6.0
    vertex 143.99999999999997 56.0 6.000000000000003
  endloop
endfacet
facet normal 0.0 0.0 -1.0
  outer loop
    vertex 143.99999999999997 56.0 3.418141190967149e-15
    vertex -1.9999999999999998 32.0 0.0
    vertex -1.9999999999999998 56.0 0.0
  endloop
endfacet
facet normal 0.0 0.0 -1.0
  outer loop
    vertex -1.9999999999999998 32.0 0.0
    vertex 143.99999999999997 56.0 3.418141190967149e-15
    vertex 144.0 32.00000000000001 3.418141190967149e-15
  endloop
endfacet
facet normal 0.0 0.0 -1.0
  outer loop
    vertex 144.0 24.0 3.418141190967149e-15
    vertex -1.9999999999999998 0.0 0.0
    vertex -1.9999999999999998 24.0 0.0
  endloop
endfacet
facet normal 0.0 0.0 -1.0
  outer loop
    vertex -1.9999999999999998 0.0 0.0
    vertex 144.0 24.0 3.418141190967149e-15
    vertex 143.99999999999997 5.639932965095787e-17 3.418141190967149e-15
  endloop
endfacet
facet normal 1.0 -4.424275873412351e-17 -9.758759088978889e-17
  outer loop
    vertex -0.9999999999999999 46.81818181818181 6.0
    vertex -1.0 0.9999999999999999 22.8
    vertex -1.0 0.9999999999999999 6.0
  endloop
endfacet
facet normal -1.0 0.0 0.0
  outer loop
    vertex 143.0 55.0 6.0
    vertex 143.0 9.181818181818178 6.0
    vertex 143.0 55.0 22.8
  endloop
endfacet
facet normal 0.0 0.0 -1.0
  outer loop
    vertex 143.99999999999997 32.0 4.0000000000000036
    vertex 118.99999999999999 24.0 3.9999999999999996
    vertex 118.99999999999999 32.0 3.9999999999999996
  endloop
endfacet
facet normal 0.0 0.0 -1.0
  outer loop
    vertex 118.99999999999999 24.0 3.9999999999999996
    vertex 143.99999999999997 32.0 4.0000000000000036
    vertex 144.0 24.0 4.0000000000000036
  endloop
endfacet
facet normal 0.0 0.0 -1.0
  outer loop
    vertex 93.99999999999999 32.0 3.9999999999999996
    vertex 48.0 24.0 3.9999999999999996
    vertex 48.0 32.0 3.9999999999999996
  endloop
endfacet
facet normal 0.0 0.0 -1.0
  outer loop
    vertex 48.0 24.0 3.9999999999999996
    vertex 93.99999999999999 32.0 3.9999999999999996
    vertex 93.99999999999999 24.0 3.9999999999999996
  endloop
endfacet
facet normal 1.5325904796455963e-17 0.0 -1.0
  outer loop
    vertex 23.0 32.0 3.9999999999999996
    vertex -1.9999999999999998 24.0 3.9999999999999996
    vertex -1.9999999999999998 32.0 3.9999999999999996
  endloop
endfacet
facet normal 1.5325904796455963e-17 0.0 -1.0
  outer loop
    vertex -1.9999999999999998 24.0 3.9999999999999996
    vertex 23.0 32.0 3.9999999999999996
    vertex 23.0 24.0 3.9999999999999996
  endloop
endfacet
facet normal -4.915539074537395e-18 -1.0 -4.4133124791031825e-17
  outer loop
    vertex 144.0 24.0 4.0000000000000036
    vertex 118.99999999999999 24.0 3.9999999999999996
    vertex 144.0 24.0 3.418141190967149e-15
  endloop
endfacet
facet normal -4.915539074537395e-18 -1.0 -4.4133124791031825e-17
  outer loop
    vertex 118.99999999999999 24.0 11.433333333333335
    vertex 93.99999999999999 24.0 3.9999999999999996
    vertex 118.99999999999999 24.0 3.9999999999999996
  endloop
endfacet
facet normal -4.915539074537395e-18 -1.0 -4.4133124791031825e-17
  outer loop
    vertex 93.99999999999999 24.0 3.9999999999999996
    vertex 118.99999999999999 24.0 11.433333333333335
    vertex 93.99999999999999 24.0 11.433333333333335
  endloop
endfacet
facet normal -4.915539074537395e-18 -1.0 -4.4133124791031825e-17
  outer loop
    vertex 48.0 24.0 11.433333333333335
    vertex 23.0 24.0 3.9999999999999996
    vertex 48.0 24.0 3.9999999999999996
  endloop
endfacet
facet normal -4.915539074537395e-18 -1.0 -4.4133124791031825e-17
  outer loop
    vertex 23.0 24.0 3.9999999999999996
    vertex 48.0 24.0 11.433333333333335
    vertex 23.0 24.0 11.433333333333335
  endloop
endfacet
facet normal -4.915539074537395e-18 -1.0 -4.4133124791031825e-17
  outer loop
    vertex 23.0 24.0 11.433333333333335
    vertex 48.0 24.0 11.433333333333335
    vertex 48.0 24.0 14.36666666666667
  endloop
endfacet
facet normal -4.915539074537395e-18 -1.0 -4.4133124791031825e-17
  outer loop
    vertex 23.0 24.0 11.433333333333335
    vertex 48.0 24.0 14.36666666666667
    vertex 23.0 24.0 14.36666666666667
  endloop
endfacet
facet normal -4.915539074537395e-18 -1.0 -4.4133124791031825e-17
  outer loop
    vertex 144.0 24.0 3.418141190967149e-15
    vertex -1.9999999999999998 24.0 3.9999999999999996
    vertex -1.9999999999999998 24.0 0.0
  endloop
endfacet
facet normal -4.915539074537395e-18 -1.0 -4.4133124791031825e-17
  outer loop
    vertex -1.9999999999999998 24.0 3.9999999999999996
    vertex 144.0 24.0 3.418141190967149e-15
    vertex 118.99999999999999 24.0 3.9999999999999996
  endloop
endfacet
facet normal -4.915539074537395e-18 -1.0 -4.4133124791031825e-17
  outer loop
    vertex -1.9999999999999998 24.0 3.9999999999999996
    vertex 118.99999999999999 24.0 3.9999999999999996
    vertex 93.99999999999999 24.0 3.9999999999999996
  endloop
endfacet
facet normal -4.915539074537395e-18 -1.0 -4.4133124791031825e-17
  outer loop
    vertex -1.9999999999999998 24.0 3.9999999999999996
    vertex 93.99999999999999 24.0 3.9999999999999996
    vertex 48.0 24.0 3.9999999999999996
  endloop
endfacet
facet normal -4.915539074537395e-18 -1.0 -4.4133124791031825e-17
  outer loop
    vertex -1.9999999999999998 24.0 3.9999999999999996
    vertex 48.0 24.0 3.9999999999999996
    vertex 23.0 24.0 3.9999999999999996
  endloop
endfacet
facet normal 2.118135921849605e-17 0.3442546491584232 -0.9388763158866088
  outer loop
    vertex 71.99999999999999 55.0 22.8
    vertex 72.99999999999999 32.0 14.36666666666667
    vertex 71.99999999999999 9.181818181818182 6.0
  endloop
endfacet
facet normal 2.118135921849605e-17 0.3442546491584232 -0.9388763158866088
  outer loop
    vertex 72.99999999999999 32.0 14.36666666666667
    vertex 71.99999999999999 55.0 22.8
    vertex 143.0 55.0 22.8
  endloop
endfacet
facet normal 2.118135921849605e-17 0.3442546491584232 -0.9388763158866088
  outer loop
    vertex 71.99999999999999 9.181818181818182 6.0
    vertex 72.99999999999999 32.0 14.36666666666667
    vertex 71.99999999999999 0.9999999999999999 3.0
  endloop
endfacet
facet normal 2.118135921849605e-17 0.3442546491584232 -0.9388763158866088
  outer loop
    vertex 72.99999999999999 32.0 14.36666666666667
    vertex 143.0 55.0 22.8
    vertex 77.0 32.0 14.36666666666667
  endloop
endfacet
facet normal 2.118135921849605e-17 0.3442546491584232 -0.9388763158866088
  outer loop
    vertex 77.0 32.0 14.36666666666667
    vertex 143.0 55.0 22.8
    vertex 93.99999999999999 32.0 14.36666666666667
  endloop
endfacet
facet normal 2.118135921849605e-17 0.3442546491584232 -0.9388763158866088
  outer loop
    vertex 77.0 32.0 14.36666666666667
    vertex 93.99999999999999 32.0 14.36666666666667
    vertex 77.0 24.0 11.433333333333335
  endloop
endfacet
facet normal 2.118135921849605e-17 0.3442546491584232 -0.9388763158866088
  outer loop
    vertex 93.99999999999999 32.0 14.36666666666667
    vertex 143.0 55.0 22.8
    vertex 118.99999999999999 32.0 14.36666666666667
  endloop
endfacet
facet normal 2.118135921849605e-17 0.3442546491584232 -0.9388763158866088
  outer loop
    vertex 118.99999999999999 32.0 14.36666666666667
    vertex 143.0 55.0 22.8
    vertex 118.99999999999999 24.0 11.433333333333335
  endloop
endfacet
facet normal 2.118135921849605e-17 0.3442546491584232 -0.9388763158866088
  outer loop
    vertex 118.99999999999999 24.0 11.433333333333335
    vertex 143.0 55.0 22.8
    vertex 138.0 32.0 14.36666666666667
  endloop
endfacet
facet normal 2.118135921849605e-17 0.3442546491584232 -0.9388763158866088
  outer loop
    vertex 138.0 32.0 14.36666666666667
    vertex 143.0 55.0 22.8
    vertex 142.0 32.0 14.36666666666667
  endloop
endfacet
facet normal 2.118135921849605e-17 0.3442546491584232 -0.9388763158866088
  outer loop
    vertex 142.0 32.0 14.36666666666667
    vertex 143.0 55.0 22.8
    vertex 142.0 24.0 11.433333333333335
  endloop
endfacet
facet normal 2.118135921849605e-17 0.3442546491584232 -0.9388763158866088
  outer loop
    vertex 71.99999999999999 0.9999999999999999 3.0
    vertex 72.99999999999999 24.0 11.433333333333335
    vertex 143.0 0.9999999999999999 3.0
  endloop
endfacet
facet normal 2.118135921849605e-17 0.3442546491584232 -0.9388763158866088
  outer loop
    vertex 72.99999999999999 24.0 11.433333333333335
    vertex 71.99999999999999 0.9999999999999999 3.0
    vertex 72.99999999999999 32.0 14.36666666666667
  endloop
endfacet
facet normal 2.118135921849605e-17 0.3442546491584232 -0.9388763158866088
  outer loop
    vertex 143.0 0.9999999999999999 3.0
    vertex 72.99999999999999 24.0 11.433333333333335
    vertex 77.0 24.0 11.433333333333335
  endloop
endfacet
facet normal 2.118135921849605e-17 0.3442546491584232 -0.9388763158866088
  outer loop
    vertex 143.0 0.9999999999999999 3.0
    vertex 77.0 24.0 11.433333333333335
    vertex 93.99999999999999 24.0 11.433333333333335
  endloop
endfacet
facet normal 2.118135921849605e-17 0.3442546491584232 -0.9388763158866088
  outer loop
    vertex 93.99999999999999 24.0 11.433333333333335
    vertex 77.0 24.0 11.433333333333335
    vertex 93.99999999999999 32.0 14.36666666666667
  endloop
endfacet
facet normal 2.118135921849605e-17 0.3442546491584232 -0.9388763158866088
  outer loop
    vertex 143.0 0.9999999999999999 3.0
    vertex 93.99999999999999 24.0 11.433333333333335
    vertex 118.99999999999999 24.0 11.433333333333335
  endloop
endfacet
facet normal 2.118135921849605e-17 0.3442546491584232 -0.9388763158866088
  outer loop
    vertex 143.0 0.9999999999999999 3.0
    vertex 118.99999999999999 24.0 11.433333333333335
    vertex 138.0 24.0 11.433333333333335
  endloop
endfacet
facet normal 2.118135921849605e-17 0.3442546491584232 -0.9388763158866088
  outer loop
    vertex 138.0 24.0 11.433333333333335
    vertex 118.99999999999999 24.0 11.433333333333335
    vertex 138.0 32.0 14.36666666666667
  endloop
endfacet
facet normal 2.118135921849605e-17 0.3442546491584232 -0.9388763158866088
  outer loop
    vertex 143.0 0.9999999999999999 3.0
    vertex 138.0 24.0 11.433333333333335
    vertex 142.0 24.0 11.433333333333335
  endloop
endfacet
facet normal 2.118135921849605e-17 0.3442546491584232 -0.9388763158866088
  outer loop
    vertex 143.0 0.9999999999999999 3.0
    vertex 142.0 24.0 11.433333333333335
    vertex 143.0 55.0 22.8
  endloop
endfacet
facet normal 2.118135921849605e-17 0.3442546491584232 -0.9388763158866088
  outer loop
    vertex 143.0 0.9999999999999999 3.0
    vertex 143.0 55.0 22.8
    vertex 143.0 9.181818181818178 6.0
  endloop
endfacet
facet normal 1.0 -0.0 -0.0
  outer loop
    vertex 118.99999999999999 24.0 3.9999999999999996
    vertex 118.99999999999999 32.0 14.36666666666667
    vertex 118.99999999999999 24.0 11.433333333333335
  endloop
endfacet
facet normal 1.0 -0.0 -0.0
  outer loop
    vertex 118.99999999999999 32.0 14.36666666666667
    vertex 118.99999999999999 24.0 3.9999999999999996
    vertex 118.99999999999999 32.0 3.9999999999999996
  endloop
endfacet
facet normal 1.0 -0.0 -0.0
  outer loop
    vertex 118.99999999999999 32.0 14.36666666666667
    vertex 118.99999999999999 32.0 3.9999999999999996
    vertex 118.99999999999999 32.0 11.433333333333335
  endloop
endfacet
facet normal 1.0 -0.0 -0.0
  outer loop
    vertex 71.99999999999999 55.0 22.8
    vertex 71.99999999999999 9.181818181818182 6.0
    vertex 71.99999999999999 55.0 6.0
  endloop
endfacet
facet normal -1.0 -1.4222399528905086e-16 -2.733069032585778e-16
  outer loop
    vertex 69.99999999999999 24.0 14.36666666666667
    vertex 70.0 0.9999999999999999 6.0
    vertex 70.0 0.9999999999999999 22.8
  endloop
endfacet
facet normal -1.0 -1.4222399528905086e-16 -2.733069032585778e-16
  outer loop
    vertex 70.0 0.9999999999999999 6.0
    vertex 69.99999999999999 24.0 14.36666666666667
    vertex 69.99999999999999 32.0 11.433333333333335
  endloop
endfacet
facet normal -1.0 -1.4222399528905086e-16 -2.733069032585778e-16
  outer loop
    vertex 70.0 0.9999999999999999 6.0
    vertex 69.99999999999999 32.0 11.433333333333335
    vertex 70.0 46.81818181818182 6.0
  endloop
endfacet
facet normal -1.961949786347555e-18 -0.344254649158423 -0.9388763158866088
  outer loop
    vertex 70.0 55.0 3.0
    vertex -0.9999999999999999 46.81818181818181 6.0
    vertex -0.9999999999999999 55.0 3.0
  endloop
endfacet
facet normal -1.961949786347555e-18 -0.344254649158423 -0.9388763158866088
  outer loop
    vertex -0.9999999999999999 46.81818181818181 6.0
    vertex 70.0 55.0 3.0
    vertex 5.4636850599365515e-15 32.00000000000001 11.433333333333334
  endloop
endfacet
facet normal -1.961949786347555e-18 -0.344254649158423 -0.9388763158866088
  outer loop
    vertex -0.9999999999999999 46.81818181818181 6.0
    vertex 5.4636850599365515e-15 32.00000000000001 11.433333333333334
    vertex 4.5824455341403335e-15 24.0 14.36666666666667
  endloop
endfacet
facet normal -1.961949786347555e-18 -0.344254649158423 -0.9388763158866088
  outer loop
    vertex 5.4636850599365515e-15 32.00000000000001 11.433333333333334
    vertex 70.0 55.0 3.0
    vertex 4.000000000000002 32.0 11.433333333333334
  endloop
endfacet
facet normal -1.961949786347555e-18 -0.344254649158423 -0.9388763158866088
  outer loop
    vertex 4.000000000000002 32.0 11.433333333333334
    vertex 70.0 55.0 3.0
    vertex 4.0000000000000036 24.0 14.36666666666667
  endloop
endfacet
facet normal -1.961949786347555e-18 -0.344254649158423 -0.9388763158866088
  outer loop
    vertex 4.0000000000000036 24.0 14.36666666666667
    vertex 70.0 55.0 3.0
    vertex 23.0 32.0 11.433333333333335
  endloop
endfacet
facet normal -1.961949786347555e-18 -0.344254649158423 -0.9388763158866088
  outer loop
    vertex 23.0 32.0 11.433333333333335
    vertex 70.0 55.0 3.0
    vertex 48.0 32.0 11.433333333333335
  endloop
endfacet
facet normal -1.961949786347555e-18 -0.344254649158423 -0.9388763158866088
  outer loop
    vertex 48.0 32.0 11.433333333333335
    vertex 70.0 55.0 3.0
    vertex 48.0 24.0 14.36666666666667
  endloop
endfacet
facet normal -1.961949786347555e-18 -0.344254649158423 -0.9388763158866088
  outer loop
    vertex 48.0 24.0 14.36666666666667
    vertex 70.0 55.0 3.0
    vertex 64.99999999999999 32.00000000000001 11.433333333333335
  endloop
endfacet
facet normal -1.961949786347555e-18 -0.344254649158423 -0.9388763158866088
  outer loop
    vertex 64.99999999999999 32.00000000000001 11.433333333333335
    vertex 70.0 55.0 3.0
    vertex 68.99999999999999 32.0 11.433333333333335
  endloop
endfacet
facet normal -1.961949786347555e-18 -0.344254649158423 -0.9388763158866088
  outer loop
    vertex 68.99999999999999 32.0 11.433333333333335
    vertex 70.0 55.0 3.0
    vertex 69.99999999999999 32.0 11.433333333333335
  endloop
endfacet
facet normal -1.961949786347555e-18 -0.344254649158423 -0.9388763158866088
  outer loop
    vertex 69.99999999999999 32.0 11.433333333333335
    vertex 70.0 55.0 3.0
    vertex 70.0 46.81818181818182 6.0
  endloop
endfacet
facet normal -1.961949786347555e-18 -0.344254649158423 -0.9388763158866088
  outer loop
    vertex -1.0 0.9999999999999999 22.8
    vertex 4.5824455341403335e-15 24.0 14.36666666666667
    vertex 70.0 0.9999999999999999 22.8
  endloop
endfacet
facet normal -1.961949786347555e-18 -0.344254649158423 -0.9388763158866088
  outer loop
    vertex 4.5824455341403335e-15 24.0 14.36666666666667
    vertex -1.0 0.9999999999999999 22.8
    vertex -0.9999999999999999 46.81818181818181 6.0
  endloop
endfacet
facet normal -1.961949786347555e-18 -0.344254649158423 -0.9388763158866088
  outer loop
    vertex 70.0 0.9999999999999999 22.8
    vertex 4.5824455341403335e-15 24.0 14.36666666666667
    vertex 4.0000000000000036 24.0 14.36666666666667
  endloop
endfacet
facet normal -1.961949786347555e-18 -0.344254649158423 -0.9388763158866088
  outer loop
    vertex 70.0 0.9999999999999999 22.8
    vertex 4.0000000000000036 24.0 14.36666666666667
    vertex 23.0 24.0 14.36666666666667
  endloop
endfacet
facet normal -1.961949786347555e-18 -0.344254649158423 -0.9388763158866088
  outer loop
    vertex 23.0 24.0 14.36666666666667
    vertex 4.0000000000000036 24.0 14.36666666666667
    vertex 23.0 32.0 11.433333333333335
  endloop
endfacet
facet normal -1.961949786347555e-18 -0.344254649158423 -0.9388763158866088
  outer loop
    vertex 70.0 0.9999999999999999 22.8
    vertex 23.0 24.0 14.36666666666667
    vertex 48.0 24.0 14.36666666666667
  endloop
endfacet
facet normal -1.961949786347555e-18 -0.344254649158423 -0.9388763158866088
  outer loop
    vertex 70.0 0.9999999999999999 22.8
    vertex 48.0 24.0 14.36666666666667
    vertex 64.99999999999999 24.0 14.36666666666667
  endloop
endfacet
facet normal -1.961949786347555e-18 -0.344254649158423 -0.9388763158866088
  outer loop
    vertex 64.99999999999999 24.0 14.36666666666667
    vertex 48.0 24.0 14.36666666666667
    vertex 64.99999999999999 32.00000000000001 11.433333333333335
  endloop
endfacet
facet normal -1.961949786347555e-18 -0.344254649158423 -0.9388763158866088
  outer loop
    vertex 70.0 0.9999999999999999 22.8
    vertex 64.99999999999999 24.0 14.36666666666667
    vertex 68.99999999999999 24.0 14.36666666666667
  endloop
endfacet
facet normal -1.961949786347555e-18 -0.344254649158423 -0.9388763158866088
  outer loop
    vertex 70.0 0.9999999999999999 22.8
    vertex 68.99999999999999 24.0 14.36666666666667
    vertex 69.99999999999999 24.0 14.36666666666667
  endloop
endfacet
facet normal -1.0 0.0 0.0
  outer loop
    vertex 23.0 32.0 11.433333333333335
    vertex 23.0 24.0 11.433333333333335
    vertex 23.0 24.0 14.36666666666667
  endloop
endfacet
facet normal -1.0 0.0 0.0
  outer loop
    vertex 23.0 24.0 11.433333333333335
    vertex 23.0 32.0 11.433333333333335
    vertex 23.0 24.0 3.9999999999999996
  endloop
endfacet
facet normal -1.0 0.0 0.0
  outer loop
    vertex 23.0 24.0 3.9999999999999996
    vertex 23.0 32.0 11.433333333333335
    vertex 23.0 32.0 3.9999999999999996
  endloop
endfacet
facet normal -1.0 4.406197628981084e-17 -1.8025353936740803e-16
  outer loop
    vertex 5.4636850599365515e-15 32.00000000000001 11.433333333333334
    vertex 5.111189249618064e-15 24.0 11.433333333333334
    vertex 4.5824455341403335e-15 24.0 14.36666666666667
  endloop
endfacet
facet normal 0.0 -1.0 0.0
  outer loop
    vertex 4.0000000000000036 24.0 14.36666666666667
    vertex 5.111189249618064e-15 24.0 11.433333333333334
    vertex 4.0000000000000036 24.0 11.433333333333334
  endloop
endfacet
facet normal 0.0 -1.0 0.0
  outer loop
    vertex 5.111189249618064e-15 24.0 11.433333333333334
    vertex 4.0000000000000036 24.0 14.36666666666667
    vertex 4.5824455341403335e-15 24.0 14.36666666666667
  endloop
endfacet
facet normal 0.0 0.0 -1.0
  outer loop
    vertex 5.4636850599365515e-15 32.00000000000001 11.433333333333334
    vertex 4.0000000000000036 24.0 11.433333333333334
    vertex 5.111189249618064e-15 24.0 11.433333333333334
  endloop
endfacet
facet normal 0.0 0.0 -1.0
  outer loop
    vertex 4.0000000000000036 24.0 11.433333333333334
    vertex 5.4636850599365515e-15 32.00000000000001 11.433333333333334
    vertex 4.000000000000002 32.0 11.433333333333334
  endloop
endfacet
facet normal 1.0 2.643718577388653e-16 -5.458883311794483e-32
  outer loop
    vertex 4.000000000000002 32.0 11.433333333333334
    vertex 4.0000000000000036 24.0 14.36666666666667
    vertex 4.0000000000000036 24.0 11.433333333333334
  endloop
endfacet
facet normal 0.0 -0.3442546491584234 -0.9388763158866086
  outer loop
    vertex 69.99999999999999 32.0 11.433333333333335
    vertex 68.99999999999999 24.0 14.36666666666667
    vertex 68.99999999999999 32.0 11.433333333333335
  endloop
endfacet
facet normal 0.0 -0.3442546491584234 -0.9388763158866086
  outer loop
    vertex 68.99999999999999 24.0 14.36666666666667
    vertex 69.99999999999999 32.0 11.433333333333335
    vertex 69.99999999999999 24.0 14.36666666666667
  endloop
endfacet
facet normal 0.0 -1.0 0.0
  outer loop
    vertex 68.99999999999999 24.0 14.36666666666667
    vertex 64.99999999999999 24.0 11.433333333333335
    vertex 68.99999999999999 24.0 11.433333333333335
  endloop
endfacet
facet normal 0.0 -1.0 0.0
  outer loop
    vertex 64.99999999999999 24.0 11.433333333333335
    vertex 68.99999999999999 24.0 14.36666666666667
    vertex 64.99999999999999 24.0 14.36666666666667
  endloop
endfacet
facet normal 0.0 0.0 -1.0
  outer loop
    vertex 68.99999999999999 32.0 11.433333333333335
    vertex 64.99999999999999 24.0 11.433333333333335
    vertex 64.99999999999999 32.00000000000001 11.433333333333335
  endloop
endfacet
facet normal 0.0 0.0 -1.0
  outer loop
    vertex 64.99999999999999 24.0 11.433333333333335
    vertex 68.99999999999999 32.0 11.433333333333335
    vertex 68.99999999999999 24.0 11.433333333333335
  endloop
endfacet
facet normal 1.0 -0.0 -0.0
  outer loop
    vertex 68.99999999999999 32.0 11.433333333333335
    vertex 68.99999999999999 24.0 14.36666666666667
    vertex 68.99999999999999 24.0 11.433333333333335
  endloop
endfacet
facet normal -1.0 0.0 0.0
  outer loop
    vertex 64.99999999999999 32.00000000000001 11.433333333333335
    vertex 64.99999999999999 24.0 11.433333333333335
    vertex 64.99999999999999 24.0 14.36666666666667
  endloop
endfacet
facet normal -1.0 0.0 0.0
  outer loop
    vertex 93.99999999999999 32.0 11.43333333333332
    vertex 93.99999999999999 24.0 11.433333333333335
    vertex 93.99999999999999 32.0 14.36666666666667
  endloop
endfacet
facet normal 1.0 -0.0 -0.0
  outer loop
    vertex 77.0 32.0 14.36666666666667
    vertex 77.0 24.0 11.433333333333335
    vertex 77.0 31.999999999999996 11.433333333333332
  endloop
endfacet
facet normal -1.0759205883473846e-30 1.0 -1.922704419919019e-15
  outer loop
    vertex 72.99999999999999 31.999999999999996 11.433333333333335
    vertex 77.0 32.0 14.36666666666667
    vertex 77.0 31.999999999999996 11.433333333333332
  endloop
endfacet
facet normal -1.0759205883473846e-30 1.0 -1.922704419919019e-15
  outer loop
    vertex 77.0 32.0 14.36666666666667
    vertex 72.99999999999999 31.999999999999996 11.433333333333335
    vertex 72.99999999999999 32.0 14.36666666666667
  endloop
endfacet
facet normal -5.287437154777301e-16 -2.6437185773886546e-16 -1.0
  outer loop
    vertex 77.0 31.999999999999996 11.433333333333332
    vertex 72.99999999999999 24.0 11.433333333333335
    vertex 72.99999999999999 31.999999999999996 11.433333333333335
  endloop
endfacet
facet normal -5.287437154777301e-16 -2.6437185773886546e-16 -1.0
  outer loop
    vertex 72.99999999999999 24.0 11.433333333333335
    vertex 77.0 31.999999999999996 11.433333333333332
    vertex 77.0 24.0 11.433333333333335
  endloop
endfacet
facet normal -1.0 0.0 0.0
  outer loop
    vertex 72.99999999999999 32.0 14.36666666666667
    vertex 72.99999999999999 31.999999999999996 11.433333333333335
    vertex 72.99999999999999 24.0 11.433333333333335
  endloop
endfacet
facet normal -0.0 1.0 -1.92270441991902e-15
  outer loop
    vertex 138.0 32.0 14.36666666666667
    vertex 142.0 31.999999999999996 11.433333333333335
    vertex 138.0 31.999999999999996 11.433333333333335
  endloop
endfacet
facet normal -0.0 1.0 -1.92270441991902e-15
  outer loop
    vertex 142.0 31.999999999999996 11.433333333333335
    vertex 138.0 32.0 14.36666666666667
    vertex 142.0 32.0 14.36666666666667
  endloop
endfacet
facet normal 0.0 0.0 -1.0
  outer loop
    vertex 142.0 31.999999999999996 11.433333333333335
    vertex 138.0 24.0 11.433333333333335
    vertex 138.0 31.999999999999996 11.433333333333335
  endloop
endfacet
facet normal 0.0 0.0 -1.0
  outer loop
    vertex 138.0 24.0 11.433333333333335
    vertex 142.0 31.999999999999996 11.433333333333335
    vertex 142.0 24.0 11.433333333333335
  endloop
endfacet
facet normal -1.0 0.0 0.0
  outer loop
    vertex 138.0 32.0 14.36666666666667
    vertex 138.0 31.999999999999996 11.433333333333335
    vertex 138.0 24.0 11.433333333333335
  endloop
endfacet
facet normal 1.0 -0.0 -0.0
  outer loop
    vertex 142.0 32.0 14.36666666666667
    vertex 142.0 24.0 11.433333333333335
    vertex 142.0 31.999999999999996 11.433333333333335
  endloop
endfacet
endsolid SolarPanelModel_20d
