solid wide10_degRamp
facet normal 0.0 0.0 -1.0
  outer loop
    vertex 107.9242133286321 -3.952364076593909 0.0
    vertex 38.92421332863217 -57.95236407659389 0.0
    vertex 38.92421332863217 -3.952364076593909 0.0
  endloop
endfacet
facet normal 0.0 0.0 -1.0
  outer loop
    vertex 38.92421332863217 -57.95236407659389 0.0
    vertex 107.9242133286321 -3.952364076593909 0.0
    vertex 107.9242133286321 -57.95236407659389 0.0
  endloop
endfacet
facet normal -1.0 0.0 0.0
  outer loop
    vertex 38.92421332863217 -48.95236407659391 7.999999999999999
    vertex 38.92421332863217 -57.95236407659389 7.999999999999999
    vertex 38.92421332863217 -57.95236407659389 9.599999999999996
  endloop
endfacet
facet normal -1.0 0.0 0.0
  outer loop
    vertex 38.92421332863217 -57.95236407659389 7.999999999999999
    vertex 38.92421332863217 -48.95236407659391 7.999999999999999
    vertex 38.92421332863217 -57.95236407659389 0.0
  endloop
endfacet
facet normal -1.0 0.0 0.0
  outer loop
    vertex 38.92421332863217 -57.95236407659389 0.0
    vertex 38.92421332863217 -48.95236407659391 7.999999999999999
    vertex 38.92421332863217 -3.952364076593909 0.0
  endloop
endfacet
facet normal 1.0 -0.0 -0.0
  outer loop
    vertex 107.9242133286321 -3.952364076593909 0.0
    vertex 107.9242133286321 -57.95236407659389 7.999999999999999
    vertex 107.9242133286321 -57.95236407659389 0.0
  endloop
endfacet
facet normal 1.0 -0.0 -0.0
  outer loop
    vertex 107.9242133286321 -57.95236407659389 7.999999999999999
    vertex 107.9242133286321 -3.952364076593909 0.0
    vertex 107.9242133286321 -57.95236407659389 9.599999999999996
  endloop
endfacet
facet normal 1.0 -0.0 -0.0
  outer loop
    vertex 107.9242133286321 -57.95236407659389 9.599999999999996
    vertex 107.9242133286321 -3.952364076593909 0.0
    vertex 107.9242133286321 -48.95236407659391 7.999999999999999
  endloop
endfacet
facet normal 5.397201937032007e-18 0.17503333471749455 0.9845625077859067
  outer loop
    vertex 107.9242133286321 -57.95236407659389 9.599999999999996
    vertex 83.92421332863216 -20.235454637913648 2.8947716553457323
    vertex 83.92421332863216 -57.95236407659389 9.599999999999996
  endloop
endfacet
facet normal 5.397201937032007e-18 0.17503333471749455 0.9845625077859067
  outer loop
    vertex 62.924213328632185 -57.95236407659389 9.599999999999996
    vertex 38.92421332863217 -48.95236407659391 7.999999999999999
    vertex 38.92421332863217 -57.95236407659389 9.599999999999996
  endloop
endfacet
facet normal 5.397201937032007e-18 0.17503333471749455 0.9845625077859067
  outer loop
    vertex 38.92421332863217 -48.95236407659391 7.999999999999999
    vertex 62.924213328632185 -57.95236407659389 9.599999999999996
    vertex 38.92421332863217 -3.952364076593909 0.0
  endloop
endfacet
facet normal 5.397201937032007e-18 0.17503333471749455 0.9845625077859067
  outer loop
    vertex 38.92421332863217 -3.952364076593909 0.0
    vertex 62.924213328632185 -57.95236407659389 9.599999999999996
    vertex 62.924213328632185 -20.23545463791365 2.8947716553457328
  endloop
endfacet
facet normal 5.397201937032007e-18 0.17503333471749455 0.9845625077859067
  outer loop
    vertex 38.92421332863217 -3.952364076593909 0.0
    vertex 62.924213328632185 -20.23545463791365 2.8947716553457328
    vertex 107.9242133286321 -3.952364076593909 0.0
  endloop
endfacet
facet normal 5.397201937032007e-18 0.17503333471749455 0.9845625077859067
  outer loop
    vertex 107.9242133286321 -3.952364076593909 0.0
    vertex 62.924213328632185 -20.23545463791365 2.8947716553457328
    vertex 83.92421332863216 -20.235454637913648 2.8947716553457323
  endloop
endfacet
facet normal 5.397201937032007e-18 0.17503333471749455 0.9845625077859067
  outer loop
    vertex 107.9242133286321 -3.952364076593909 0.0
    vertex 83.92421332863216 -20.235454637913648 2.8947716553457323
    vertex 107.9242133286321 -57.95236407659389 9.599999999999996
  endloop
endfacet
facet normal 5.397201937032007e-18 0.17503333471749455 0.9845625077859067
  outer loop
    vertex 107.9242133286321 -3.952364076593909 0.0
    vertex 107.9242133286321 -57.95236407659389 9.599999999999996
    vertex 107.9242133286321 -48.95236407659391 7.999999999999999
  endloop
endfacet
facet normal 1.0 0.0 0.0
  outer loop
    vertex 62.924213328632185 -20.23545463791365 2.8947716553457328
    vertex 62.924213328632185 -57.95236407659389 9.599999999999996
    vertex 62.924213328632185 -57.95236407659389 2.8947716553457328
  endloop
endfacet
facet normal 0.0 -1.0 0.0
  outer loop
    vertex 107.9242133286321 -57.95236407659389 0.0
    vertex 83.92421332863216 -57.95236407659389 2.8947716553457328
    vertex 38.92421332863217 -57.95236407659389 0.0
  endloop
endfacet
facet normal 0.0 -1.0 0.0
  outer loop
    vertex 83.92421332863216 -57.95236407659389 2.8947716553457328
    vertex 107.9242133286321 -57.95236407659389 0.0
    vertex 107.9242133286321 -57.95236407659389 7.999999999999999
  endloop
endfacet
facet normal 0.0 -1.0 0.0
  outer loop
    vertex 83.92421332863216 -57.95236407659389 2.8947716553457328
    vertex 107.9242133286321 -57.95236407659389 7.999999999999999
    vertex 83.92421332863216 -57.95236407659389 9.599999999999996
  endloop
endfacet
facet normal 0.0 -1.0 0.0
  outer loop
    vertex 83.92421332863216 -57.95236407659389 9.599999999999996
    vertex 107.9242133286321 -57.95236407659389 7.999999999999999
    vertex 107.9242133286321 -57.95236407659389 9.599999999999996
  endloop
endfacet
facet normal 0.0 -1.0 0.0
  outer loop
    vertex 38.92421332863217 -57.95236407659389 0.0
    vertex 62.924213328632185 -57.95236407659389 2.8947716553457328
    vertex 38.92421332863217 -57.95236407659389 7.999999999999999
  endloop
endfacet
facet normal 0.0 -1.0 0.0
  outer loop
    vertex 62.924213328632185 -57.95236407659389 2.8947716553457328
    vertex 38.92421332863217 -57.95236407659389 0.0
    vertex 83.92421332863216 -57.95236407659389 2.8947716553457328
  endloop
endfacet
facet normal 0.0 -1.0 0.0
  outer loop
    vertex 38.92421332863217 -57.95236407659389 7.999999999999999
    vertex 62.924213328632185 -57.95236407659389 2.8947716553457328
    vertex 62.924213328632185 -57.95236407659389 9.599999999999996
  endloop
endfacet
facet normal 0.0 -1.0 0.0
  outer loop
    vertex 38.92421332863217 -57.95236407659389 7.999999999999999
    vertex 62.924213328632185 -57.95236407659389 9.599999999999996
    vertex 38.92421332863217 -57.95236407659389 9.599999999999996
  endloop
endfacet
facet normal -1.0 0.0 0.0
  outer loop
    vertex 83.92421332863216 -20.235454637913648 2.8947716553457323
    vertex 83.92421332863216 -57.95236407659389 2.8947716553457328
    vertex 83.92421332863216 -57.95236407659389 9.599999999999996
  endloop
endfacet
facet normal 3.91662011464986e-17 9.345829644169847e-18 1.0
  outer loop
    vertex 83.92421332863216 -57.95236407659389 2.8947716553457328
    vertex 62.924213328632185 -20.23545463791365 2.8947716553457328
    vertex 62.924213328632185 -57.95236407659389 2.8947716553457328
  endloop
endfacet
facet normal 3.91662011464986e-17 9.345829644169847e-18 1.0
  outer loop
    vertex 62.924213328632185 -20.23545463791365 2.8947716553457328
    vertex 83.92421332863216 -57.95236407659389 2.8947716553457328
    vertex 83.92421332863216 -20.235454637913648 2.8947716553457323
  endloop
endfacet
endsolid wide10_degRamp
