G75*
%MOIN*%
%OFA0B0*%
%FSLAX25Y25*%
%IPPOS*%
%LPD*%
%AMOC8*
5,1,8,0,0,1.08239X$1,22.5*
%
%ADD10C,0.07400*%
%ADD11R,0.07400X0.07400*%
%ADD12C,0.01600*%
%ADD13C,0.03762*%
%ADD14C,0.01000*%
D10*
X0011346Y0011288D03*
X0011346Y0021288D03*
X0011346Y0031288D03*
X0052843Y0088020D03*
X0062843Y0088020D03*
X0138984Y0065186D03*
X0148984Y0065186D03*
X0158984Y0065186D03*
X0168984Y0065186D03*
X0178984Y0065186D03*
X0169614Y0045816D03*
X0159614Y0045816D03*
X0149614Y0045816D03*
X0149772Y0010265D03*
X0159772Y0010265D03*
X0169772Y0010265D03*
D11*
X0139772Y0010265D03*
X0139614Y0045816D03*
X0011346Y0041288D03*
D12*
X0004119Y0004100D02*
X0004119Y0093988D01*
X0154706Y0093988D01*
X0149063Y0088346D01*
X0097881Y0088346D01*
X0095913Y0090314D01*
X0085678Y0090314D01*
X0085090Y0089727D01*
X0083843Y0089727D01*
X0082637Y0089227D01*
X0081714Y0088304D01*
X0081215Y0087098D01*
X0081215Y0085793D01*
X0081714Y0084587D01*
X0082637Y0083664D01*
X0083843Y0083165D01*
X0085149Y0083165D01*
X0086355Y0083664D01*
X0087278Y0084587D01*
X0087777Y0085793D01*
X0087777Y0086514D01*
X0089767Y0086514D01*
X0089588Y0086336D01*
X0089089Y0085130D01*
X0089089Y0083825D01*
X0089588Y0082619D01*
X0090511Y0081696D01*
X0091717Y0081196D01*
X0093023Y0081196D01*
X0094229Y0081696D01*
X0095110Y0082577D01*
X0131741Y0082577D01*
X0132396Y0081922D01*
X0132396Y0080675D01*
X0132896Y0079469D01*
X0133819Y0078546D01*
X0135025Y0078046D01*
X0136330Y0078046D01*
X0137536Y0078546D01*
X0138459Y0079469D01*
X0138958Y0080675D01*
X0138958Y0081980D01*
X0138459Y0083186D01*
X0137536Y0084109D01*
X0136482Y0084546D01*
X0150637Y0084546D01*
X0150958Y0084866D01*
X0151400Y0083800D01*
X0152281Y0082918D01*
X0152281Y0081213D01*
X0153137Y0080357D01*
X0150917Y0080357D01*
X0149804Y0079244D01*
X0147882Y0077322D01*
X0076228Y0077322D01*
X0067533Y0086017D01*
X0067943Y0087006D01*
X0067943Y0089035D01*
X0067166Y0090909D01*
X0065731Y0092344D01*
X0063857Y0093120D01*
X0061828Y0093120D01*
X0059954Y0092344D01*
X0058519Y0090909D01*
X0058053Y0089784D01*
X0057940Y0090132D01*
X0057547Y0090903D01*
X0057038Y0091603D01*
X0056426Y0092216D01*
X0055725Y0092724D01*
X0054954Y0093118D01*
X0054130Y0093385D01*
X0053275Y0093520D01*
X0053043Y0093520D01*
X0053043Y0088221D01*
X0052642Y0088221D01*
X0052642Y0093520D01*
X0052410Y0093520D01*
X0051555Y0093385D01*
X0050731Y0093118D01*
X0049960Y0092724D01*
X0049260Y0092216D01*
X0048647Y0091603D01*
X0048138Y0090903D01*
X0047745Y0090132D01*
X0047478Y0089308D01*
X0047343Y0088453D01*
X0047343Y0088220D01*
X0052642Y0088220D01*
X0052642Y0087820D01*
X0053043Y0087820D01*
X0053043Y0082520D01*
X0053275Y0082520D01*
X0054130Y0082656D01*
X0054954Y0082923D01*
X0055725Y0083316D01*
X0056426Y0083825D01*
X0057038Y0084437D01*
X0057547Y0085138D01*
X0057940Y0085909D01*
X0058053Y0086257D01*
X0058519Y0085132D01*
X0059954Y0083697D01*
X0061828Y0082920D01*
X0063857Y0082920D01*
X0064846Y0083330D01*
X0073541Y0074635D01*
X0074654Y0073522D01*
X0129531Y0073522D01*
X0129352Y0073344D01*
X0128853Y0072138D01*
X0128853Y0070832D01*
X0129352Y0069626D01*
X0130234Y0068745D01*
X0130234Y0058887D01*
X0130890Y0058231D01*
X0130694Y0058231D01*
X0129488Y0057731D01*
X0128565Y0056808D01*
X0128256Y0056062D01*
X0088827Y0056062D01*
X0087714Y0054949D01*
X0075048Y0042283D01*
X0056561Y0042283D01*
X0057614Y0042719D01*
X0058537Y0043642D01*
X0059037Y0044848D01*
X0059037Y0046153D01*
X0058537Y0047359D01*
X0057614Y0048282D01*
X0056409Y0048782D01*
X0055162Y0048782D01*
X0024979Y0078965D01*
X0023866Y0080078D01*
X0016386Y0080078D01*
X0013237Y0076928D01*
X0011252Y0076928D01*
X0010370Y0077810D01*
X0009164Y0078309D01*
X0007859Y0078309D01*
X0006653Y0077810D01*
X0005730Y0076887D01*
X0005231Y0075681D01*
X0005231Y0074376D01*
X0005730Y0073170D01*
X0006653Y0072247D01*
X0007859Y0071747D01*
X0009164Y0071747D01*
X0010370Y0072247D01*
X0011252Y0073128D01*
X0014811Y0073128D01*
X0017960Y0076278D01*
X0022292Y0076278D01*
X0024591Y0073979D01*
X0024395Y0073979D01*
X0023189Y0073479D01*
X0022266Y0072556D01*
X0021766Y0071350D01*
X0021766Y0070148D01*
X0008363Y0057050D01*
X0007072Y0057050D01*
X0005866Y0056550D01*
X0004943Y0055627D01*
X0004443Y0054421D01*
X0004443Y0053116D01*
X0004943Y0051910D01*
X0005866Y0050987D01*
X0007072Y0050487D01*
X0008377Y0050487D01*
X0009583Y0050987D01*
X0010506Y0051910D01*
X0011005Y0053116D01*
X0011005Y0054318D01*
X0024408Y0067417D01*
X0025700Y0067417D01*
X0026906Y0067916D01*
X0027829Y0068839D01*
X0028328Y0070045D01*
X0028328Y0070241D01*
X0052475Y0046095D01*
X0052475Y0044848D01*
X0052965Y0043664D01*
X0051954Y0043664D01*
X0050748Y0043164D01*
X0049825Y0042241D01*
X0049325Y0041035D01*
X0049325Y0039730D01*
X0049825Y0038524D01*
X0050397Y0037952D01*
X0049487Y0037952D01*
X0049187Y0038252D01*
X0048850Y0038252D01*
X0048141Y0038546D01*
X0046836Y0038546D01*
X0045630Y0038046D01*
X0044707Y0037123D01*
X0044207Y0035917D01*
X0044207Y0034612D01*
X0044707Y0033406D01*
X0045630Y0032483D01*
X0046836Y0031983D01*
X0048141Y0031983D01*
X0049347Y0032483D01*
X0050270Y0033406D01*
X0050579Y0034152D01*
X0078590Y0034152D01*
X0079703Y0035265D01*
X0092763Y0048325D01*
X0128606Y0048325D01*
X0129068Y0047863D01*
X0128565Y0047359D01*
X0128065Y0046153D01*
X0128065Y0044907D01*
X0127084Y0043926D01*
X0127084Y0017548D01*
X0134672Y0009961D01*
X0134672Y0005985D01*
X0135492Y0005165D01*
X0144052Y0005165D01*
X0144872Y0005985D01*
X0144872Y0008767D01*
X0145448Y0007376D01*
X0146883Y0005941D01*
X0148757Y0005165D01*
X0150786Y0005165D01*
X0152661Y0005941D01*
X0154095Y0007376D01*
X0154772Y0009009D01*
X0155448Y0007376D01*
X0156883Y0005941D01*
X0158757Y0005165D01*
X0160786Y0005165D01*
X0162661Y0005941D01*
X0164095Y0007376D01*
X0164562Y0008501D01*
X0164675Y0008153D01*
X0165068Y0007382D01*
X0165576Y0006682D01*
X0166189Y0006069D01*
X0166889Y0005561D01*
X0167660Y0005168D01*
X0168484Y0004900D01*
X0169339Y0004765D01*
X0169572Y0004765D01*
X0169572Y0010064D01*
X0169972Y0010064D01*
X0169972Y0004765D01*
X0170205Y0004765D01*
X0171060Y0004900D01*
X0171883Y0005168D01*
X0172654Y0005561D01*
X0173355Y0006069D01*
X0173967Y0006682D01*
X0174476Y0007382D01*
X0174869Y0008153D01*
X0175136Y0008977D01*
X0175272Y0009832D01*
X0175272Y0010065D01*
X0169972Y0010065D01*
X0169972Y0010465D01*
X0169572Y0010465D01*
X0169572Y0015765D01*
X0169339Y0015765D01*
X0168484Y0015629D01*
X0167660Y0015362D01*
X0166889Y0014969D01*
X0166189Y0014460D01*
X0165576Y0013848D01*
X0165068Y0013147D01*
X0164675Y0012376D01*
X0164562Y0012028D01*
X0164095Y0013153D01*
X0162661Y0014588D01*
X0166365Y0014588D01*
X0164987Y0012990D02*
X0164163Y0012990D01*
X0162661Y0014588D02*
X0160786Y0015365D01*
X0158757Y0015365D01*
X0156883Y0014588D01*
X0155448Y0013153D01*
X0154772Y0011520D01*
X0154095Y0013153D01*
X0152661Y0014588D01*
X0156883Y0014588D01*
X0155380Y0012990D02*
X0154163Y0012990D01*
X0152661Y0014588D02*
X0150786Y0015365D01*
X0148757Y0015365D01*
X0147768Y0014955D01*
X0135609Y0027115D01*
X0135609Y0034887D01*
X0136490Y0035768D01*
X0136990Y0036974D01*
X0136990Y0038279D01*
X0136490Y0039485D01*
X0135567Y0040408D01*
X0134361Y0040908D01*
X0133056Y0040908D01*
X0131850Y0040408D01*
X0130927Y0039485D01*
X0130884Y0039382D01*
X0130884Y0042220D01*
X0131999Y0042220D01*
X0133205Y0042719D01*
X0134128Y0043642D01*
X0134514Y0044574D01*
X0134514Y0041536D01*
X0135334Y0040716D01*
X0137775Y0040716D01*
X0144801Y0033690D01*
X0145914Y0032577D01*
X0175457Y0032577D01*
X0176338Y0031696D01*
X0177544Y0031196D01*
X0178849Y0031196D01*
X0180055Y0031696D01*
X0180978Y0032619D01*
X0181478Y0033825D01*
X0181478Y0035130D01*
X0180978Y0036336D01*
X0180055Y0037259D01*
X0178849Y0037758D01*
X0177544Y0037758D01*
X0176338Y0037259D01*
X0175457Y0036377D01*
X0147488Y0036377D01*
X0143149Y0040716D01*
X0143894Y0040716D01*
X0144714Y0041536D01*
X0144714Y0044318D01*
X0145291Y0042927D01*
X0146725Y0041492D01*
X0148600Y0040716D01*
X0150629Y0040716D01*
X0152503Y0041492D01*
X0153938Y0042927D01*
X0154614Y0044560D01*
X0155291Y0042927D01*
X0156725Y0041492D01*
X0158600Y0040716D01*
X0160629Y0040716D01*
X0162503Y0041492D01*
X0163938Y0042927D01*
X0164614Y0044560D01*
X0165291Y0042927D01*
X0166725Y0041492D01*
X0168600Y0040716D01*
X0170629Y0040716D01*
X0172503Y0041492D01*
X0173938Y0042927D01*
X0174714Y0044801D01*
X0174714Y0046830D01*
X0173938Y0048705D01*
X0172503Y0050139D01*
X0170629Y0050916D01*
X0168600Y0050916D01*
X0166725Y0050139D01*
X0165291Y0048705D01*
X0164614Y0047072D01*
X0163938Y0048705D01*
X0162503Y0050139D01*
X0160629Y0050916D01*
X0158600Y0050916D01*
X0156725Y0050139D01*
X0155291Y0048705D01*
X0154614Y0047072D01*
X0153938Y0048705D01*
X0152503Y0050139D01*
X0150629Y0050916D01*
X0148600Y0050916D01*
X0146725Y0050139D01*
X0145291Y0048705D01*
X0144714Y0047313D01*
X0144714Y0050096D01*
X0143894Y0050916D01*
X0135334Y0050916D01*
X0134628Y0050209D01*
X0134628Y0050878D01*
X0134128Y0052084D01*
X0133624Y0052587D01*
X0134128Y0053091D01*
X0134628Y0054297D01*
X0134628Y0054493D01*
X0135284Y0053837D01*
X0163646Y0053837D01*
X0164527Y0052955D01*
X0165733Y0052456D01*
X0167038Y0052456D01*
X0168244Y0052955D01*
X0169167Y0053878D01*
X0169667Y0055084D01*
X0169667Y0056390D01*
X0169167Y0057596D01*
X0168244Y0058519D01*
X0167038Y0059018D01*
X0165733Y0059018D01*
X0164527Y0058519D01*
X0163646Y0057637D01*
X0136858Y0057637D01*
X0134034Y0060461D01*
X0134034Y0062787D01*
X0134280Y0062303D01*
X0134789Y0061603D01*
X0135401Y0060991D01*
X0136102Y0060482D01*
X0136873Y0060089D01*
X0137696Y0059821D01*
X0138551Y0059686D01*
X0138784Y0059686D01*
X0138784Y0064986D01*
X0139184Y0064986D01*
X0139184Y0059686D01*
X0139417Y0059686D01*
X0140272Y0059821D01*
X0141096Y0060089D01*
X0141867Y0060482D01*
X0142567Y0060991D01*
X0143179Y0061603D01*
X0143688Y0062303D01*
X0143984Y0062884D01*
X0144280Y0062303D01*
X0144789Y0061603D01*
X0145401Y0060991D01*
X0146102Y0060482D01*
X0146873Y0060089D01*
X0147696Y0059821D01*
X0148551Y0059686D01*
X0148784Y0059686D01*
X0148784Y0064986D01*
X0143484Y0064986D01*
X0139184Y0064986D01*
X0139184Y0065386D01*
X0138784Y0065386D01*
X0138784Y0070686D01*
X0138551Y0070686D01*
X0137696Y0070550D01*
X0136873Y0070283D01*
X0136102Y0069890D01*
X0135401Y0069381D01*
X0134789Y0068769D01*
X0134280Y0068068D01*
X0134034Y0067585D01*
X0134034Y0068745D01*
X0134915Y0069626D01*
X0135415Y0070832D01*
X0135415Y0072138D01*
X0134915Y0073344D01*
X0134737Y0073522D01*
X0149456Y0073522D01*
X0152491Y0076557D01*
X0171898Y0076557D01*
X0173820Y0074635D01*
X0174933Y0073522D01*
X0179000Y0073522D01*
X0179882Y0072640D01*
X0181087Y0072141D01*
X0182393Y0072141D01*
X0183599Y0072640D01*
X0184522Y0073563D01*
X0184558Y0073652D01*
X0184558Y0004100D01*
X0004119Y0004100D01*
X0004119Y0004997D02*
X0168185Y0004997D01*
X0169572Y0004997D02*
X0169972Y0004997D01*
X0171358Y0004997D02*
X0184558Y0004997D01*
X0184558Y0006596D02*
X0173881Y0006596D01*
X0174882Y0008194D02*
X0184558Y0008194D01*
X0184558Y0009793D02*
X0175265Y0009793D01*
X0175272Y0010465D02*
X0175272Y0010697D01*
X0175136Y0011552D01*
X0174869Y0012376D01*
X0174476Y0013147D01*
X0173967Y0013848D01*
X0173355Y0014460D01*
X0172654Y0014969D01*
X0171883Y0015362D01*
X0171060Y0015629D01*
X0170205Y0015765D01*
X0169972Y0015765D01*
X0169972Y0010465D01*
X0175272Y0010465D01*
X0175162Y0011391D02*
X0184558Y0011391D01*
X0184558Y0012990D02*
X0174556Y0012990D01*
X0173178Y0014588D02*
X0184558Y0014588D01*
X0184558Y0016187D02*
X0146537Y0016187D01*
X0144938Y0017785D02*
X0184558Y0017785D01*
X0184558Y0019384D02*
X0143340Y0019384D01*
X0141741Y0020982D02*
X0184558Y0020982D01*
X0184558Y0022581D02*
X0140143Y0022581D01*
X0138544Y0024179D02*
X0184558Y0024179D01*
X0184558Y0025778D02*
X0136946Y0025778D01*
X0135609Y0027376D02*
X0184558Y0027376D01*
X0184558Y0028975D02*
X0135609Y0028975D01*
X0135609Y0030573D02*
X0184558Y0030573D01*
X0184558Y0032172D02*
X0180532Y0032172D01*
X0181455Y0033770D02*
X0184558Y0033770D01*
X0184558Y0035369D02*
X0181379Y0035369D01*
X0180347Y0036967D02*
X0184558Y0036967D01*
X0184558Y0038566D02*
X0145299Y0038566D01*
X0143701Y0040164D02*
X0184558Y0040164D01*
X0184558Y0041763D02*
X0172774Y0041763D01*
X0174118Y0043361D02*
X0184558Y0043361D01*
X0184558Y0044960D02*
X0174714Y0044960D01*
X0174714Y0046558D02*
X0184558Y0046558D01*
X0184558Y0048157D02*
X0174165Y0048157D01*
X0172887Y0049755D02*
X0184558Y0049755D01*
X0184558Y0051354D02*
X0134430Y0051354D01*
X0133989Y0052952D02*
X0164535Y0052952D01*
X0168237Y0052952D02*
X0184558Y0052952D01*
X0184558Y0054551D02*
X0169446Y0054551D01*
X0169667Y0056149D02*
X0184558Y0056149D01*
X0184558Y0057748D02*
X0169015Y0057748D01*
X0169999Y0060086D02*
X0167970Y0060086D01*
X0166095Y0060862D01*
X0164661Y0062297D01*
X0163984Y0063930D01*
X0163308Y0062297D01*
X0161873Y0060862D01*
X0159999Y0060086D01*
X0157970Y0060086D01*
X0156095Y0060862D01*
X0154661Y0062297D01*
X0154194Y0063423D01*
X0154081Y0063075D01*
X0153688Y0062303D01*
X0153179Y0061603D01*
X0152567Y0060991D01*
X0151867Y0060482D01*
X0151096Y0060089D01*
X0150272Y0059821D01*
X0149417Y0059686D01*
X0149184Y0059686D01*
X0149184Y0064986D01*
X0148784Y0064986D01*
X0148784Y0065386D01*
X0139184Y0065386D01*
X0139184Y0070686D01*
X0139417Y0070686D01*
X0140272Y0070550D01*
X0141096Y0070283D01*
X0141867Y0069890D01*
X0142567Y0069381D01*
X0143179Y0068769D01*
X0143688Y0068068D01*
X0143984Y0067488D01*
X0144280Y0068068D01*
X0144789Y0068769D01*
X0145401Y0069381D01*
X0146102Y0069890D01*
X0146873Y0070283D01*
X0147696Y0070550D01*
X0148551Y0070686D01*
X0148784Y0070686D01*
X0148784Y0065386D01*
X0149184Y0065386D01*
X0149184Y0070686D01*
X0149417Y0070686D01*
X0150272Y0070550D01*
X0151096Y0070283D01*
X0151867Y0069890D01*
X0152567Y0069381D01*
X0153179Y0068769D01*
X0153688Y0068068D01*
X0154081Y0067297D01*
X0154194Y0066949D01*
X0154661Y0068075D01*
X0156095Y0069509D01*
X0157970Y0070286D01*
X0159999Y0070286D01*
X0161873Y0069509D01*
X0163308Y0068075D01*
X0163984Y0066442D01*
X0164661Y0068075D01*
X0166095Y0069509D01*
X0167970Y0070286D01*
X0169999Y0070286D01*
X0171873Y0069509D01*
X0173308Y0068075D01*
X0173984Y0066442D01*
X0174661Y0068075D01*
X0176095Y0069509D01*
X0177970Y0070286D01*
X0179999Y0070286D01*
X0181873Y0069509D01*
X0183308Y0068075D01*
X0184084Y0066200D01*
X0184084Y0064171D01*
X0183308Y0062297D01*
X0181873Y0060862D01*
X0179999Y0060086D01*
X0177970Y0060086D01*
X0176095Y0060862D01*
X0174661Y0062297D01*
X0173984Y0063930D01*
X0173308Y0062297D01*
X0171873Y0060862D01*
X0169999Y0060086D01*
X0171956Y0060945D02*
X0176013Y0060945D01*
X0174559Y0062543D02*
X0173410Y0062543D01*
X0166013Y0060945D02*
X0161956Y0060945D01*
X0163410Y0062543D02*
X0164559Y0062543D01*
X0164356Y0067339D02*
X0163613Y0067339D01*
X0162445Y0068937D02*
X0165523Y0068937D01*
X0172445Y0068937D02*
X0175523Y0068937D01*
X0174356Y0067339D02*
X0173613Y0067339D01*
X0182445Y0068937D02*
X0184558Y0068937D01*
X0184558Y0070536D02*
X0150316Y0070536D01*
X0149184Y0070536D02*
X0148784Y0070536D01*
X0147652Y0070536D02*
X0140316Y0070536D01*
X0139184Y0070536D02*
X0138784Y0070536D01*
X0137652Y0070536D02*
X0135292Y0070536D01*
X0134958Y0068937D02*
X0134226Y0068937D01*
X0130234Y0067339D02*
X0036605Y0067339D01*
X0038203Y0065740D02*
X0130234Y0065740D01*
X0130234Y0064142D02*
X0039802Y0064142D01*
X0041400Y0062543D02*
X0130234Y0062543D01*
X0130234Y0060945D02*
X0042999Y0060945D01*
X0044597Y0059346D02*
X0130234Y0059346D01*
X0129528Y0057748D02*
X0046196Y0057748D01*
X0047794Y0056149D02*
X0128292Y0056149D01*
X0135148Y0059346D02*
X0184558Y0059346D01*
X0184558Y0060945D02*
X0181956Y0060945D01*
X0183410Y0062543D02*
X0184558Y0062543D01*
X0184558Y0064142D02*
X0184072Y0064142D01*
X0184084Y0065740D02*
X0184558Y0065740D01*
X0184558Y0067339D02*
X0183613Y0067339D01*
X0184558Y0072134D02*
X0135415Y0072134D01*
X0138784Y0068937D02*
X0139184Y0068937D01*
X0139184Y0067339D02*
X0138784Y0067339D01*
X0138784Y0065740D02*
X0139184Y0065740D01*
X0139184Y0064142D02*
X0138784Y0064142D01*
X0138784Y0062543D02*
X0139184Y0062543D01*
X0139184Y0060945D02*
X0138784Y0060945D01*
X0135464Y0060945D02*
X0134034Y0060945D01*
X0134034Y0062543D02*
X0134158Y0062543D01*
X0142504Y0060945D02*
X0145464Y0060945D01*
X0144158Y0062543D02*
X0143811Y0062543D01*
X0148784Y0062543D02*
X0149184Y0062543D01*
X0149184Y0060945D02*
X0148784Y0060945D01*
X0152504Y0060945D02*
X0156013Y0060945D01*
X0154559Y0062543D02*
X0153811Y0062543D01*
X0149184Y0064142D02*
X0148784Y0064142D01*
X0148784Y0065740D02*
X0149184Y0065740D01*
X0149184Y0067339D02*
X0148784Y0067339D01*
X0148784Y0068937D02*
X0149184Y0068937D01*
X0153011Y0068937D02*
X0155523Y0068937D01*
X0154356Y0067339D02*
X0154060Y0067339D01*
X0144958Y0068937D02*
X0143011Y0068937D01*
X0149667Y0073733D02*
X0174722Y0073733D01*
X0173123Y0075332D02*
X0151266Y0075332D01*
X0149089Y0078529D02*
X0137494Y0078529D01*
X0138731Y0080127D02*
X0150687Y0080127D01*
X0152281Y0081726D02*
X0138958Y0081726D01*
X0138321Y0083324D02*
X0151875Y0083324D01*
X0150436Y0089718D02*
X0096509Y0089718D01*
X0089089Y0084923D02*
X0087417Y0084923D01*
X0089296Y0083324D02*
X0085534Y0083324D01*
X0083458Y0083324D02*
X0070226Y0083324D01*
X0071824Y0081726D02*
X0090481Y0081726D01*
X0094259Y0081726D02*
X0132396Y0081726D01*
X0132623Y0080127D02*
X0073423Y0080127D01*
X0075021Y0078529D02*
X0133861Y0078529D01*
X0128853Y0072134D02*
X0031809Y0072134D01*
X0033408Y0070536D02*
X0128976Y0070536D01*
X0130041Y0068937D02*
X0035006Y0068937D01*
X0031231Y0067339D02*
X0024329Y0067339D01*
X0022693Y0065740D02*
X0032829Y0065740D01*
X0034428Y0064142D02*
X0021058Y0064142D01*
X0019422Y0062543D02*
X0036026Y0062543D01*
X0037625Y0060945D02*
X0017786Y0060945D01*
X0016150Y0059346D02*
X0039223Y0059346D01*
X0040822Y0057748D02*
X0014515Y0057748D01*
X0012879Y0056149D02*
X0042420Y0056149D01*
X0044019Y0054551D02*
X0011243Y0054551D01*
X0010938Y0052952D02*
X0045617Y0052952D01*
X0047216Y0051354D02*
X0032601Y0051354D01*
X0032157Y0051538D02*
X0030851Y0051538D01*
X0029645Y0051038D01*
X0028722Y0050115D01*
X0028223Y0048909D01*
X0028223Y0047604D01*
X0028722Y0046398D01*
X0029645Y0045475D01*
X0030851Y0044976D01*
X0031674Y0044976D01*
X0035052Y0041597D01*
X0035052Y0039325D01*
X0032797Y0037071D01*
X0031424Y0037071D01*
X0030843Y0037652D01*
X0029637Y0038152D01*
X0028332Y0038152D01*
X0027126Y0037652D01*
X0026203Y0036729D01*
X0025703Y0035524D01*
X0025703Y0034218D01*
X0026203Y0033012D01*
X0027126Y0032089D01*
X0028332Y0031590D01*
X0029637Y0031590D01*
X0030843Y0032089D01*
X0031424Y0032671D01*
X0034620Y0032671D01*
X0038163Y0036214D01*
X0039452Y0037503D01*
X0039452Y0043420D01*
X0034785Y0048087D01*
X0034785Y0048909D01*
X0034286Y0050115D01*
X0033363Y0051038D01*
X0032157Y0051538D01*
X0030407Y0051354D02*
X0009950Y0051354D01*
X0005499Y0051354D02*
X0004119Y0051354D01*
X0004119Y0052952D02*
X0004511Y0052952D01*
X0004497Y0054551D02*
X0004119Y0054551D01*
X0004119Y0056149D02*
X0005465Y0056149D01*
X0004119Y0057748D02*
X0009078Y0057748D01*
X0010714Y0059346D02*
X0004119Y0059346D01*
X0004119Y0060945D02*
X0012349Y0060945D01*
X0013985Y0062543D02*
X0004119Y0062543D01*
X0004119Y0064142D02*
X0015621Y0064142D01*
X0017256Y0065740D02*
X0004119Y0065740D01*
X0004119Y0067339D02*
X0018892Y0067339D01*
X0020528Y0068937D02*
X0004119Y0068937D01*
X0004119Y0070536D02*
X0021766Y0070536D01*
X0022091Y0072134D02*
X0010099Y0072134D01*
X0006924Y0072134D02*
X0004119Y0072134D01*
X0004119Y0073733D02*
X0005497Y0073733D01*
X0005231Y0075332D02*
X0004119Y0075332D01*
X0004119Y0076930D02*
X0005773Y0076930D01*
X0004119Y0078529D02*
X0014837Y0078529D01*
X0013238Y0076930D02*
X0011250Y0076930D01*
X0015415Y0073733D02*
X0023801Y0073733D01*
X0023238Y0075332D02*
X0017014Y0075332D01*
X0025415Y0078529D02*
X0049175Y0078529D01*
X0047577Y0080127D02*
X0004119Y0080127D01*
X0004119Y0081726D02*
X0045978Y0081726D01*
X0044379Y0083324D02*
X0004119Y0083324D01*
X0004119Y0084923D02*
X0024740Y0084923D01*
X0025182Y0084739D02*
X0026487Y0084739D01*
X0027693Y0085239D01*
X0028575Y0086120D01*
X0041583Y0086120D01*
X0051687Y0076016D01*
X0051687Y0074769D01*
X0052187Y0073563D01*
X0053110Y0072640D01*
X0054316Y0072141D01*
X0055621Y0072141D01*
X0056827Y0072640D01*
X0057750Y0073563D01*
X0058250Y0074769D01*
X0058250Y0076075D01*
X0057750Y0077281D01*
X0056827Y0078204D01*
X0055621Y0078703D01*
X0054374Y0078703D01*
X0044270Y0088807D01*
X0044270Y0088807D01*
X0043157Y0089920D01*
X0028575Y0089920D01*
X0027693Y0090802D01*
X0026487Y0091302D01*
X0025182Y0091302D01*
X0023976Y0090802D01*
X0023053Y0089879D01*
X0022554Y0088673D01*
X0022554Y0087368D01*
X0023053Y0086162D01*
X0023976Y0085239D01*
X0025182Y0084739D01*
X0026930Y0084923D02*
X0042781Y0084923D01*
X0046556Y0086521D02*
X0047547Y0086521D01*
X0047478Y0086733D02*
X0047745Y0085909D01*
X0048138Y0085138D01*
X0048647Y0084437D01*
X0049260Y0083825D01*
X0049960Y0083316D01*
X0050731Y0082923D01*
X0051555Y0082656D01*
X0052410Y0082520D01*
X0052642Y0082520D01*
X0052642Y0087820D01*
X0047343Y0087820D01*
X0047343Y0087588D01*
X0047478Y0086733D01*
X0048155Y0084923D02*
X0048295Y0084923D01*
X0049753Y0083324D02*
X0049949Y0083324D01*
X0051352Y0081726D02*
X0066450Y0081726D01*
X0064852Y0083324D02*
X0064831Y0083324D01*
X0060854Y0083324D02*
X0055736Y0083324D01*
X0053043Y0083324D02*
X0052642Y0083324D01*
X0052642Y0084923D02*
X0053043Y0084923D01*
X0053043Y0086521D02*
X0052642Y0086521D01*
X0052642Y0088120D02*
X0044958Y0088120D01*
X0043359Y0089718D02*
X0047611Y0089718D01*
X0048439Y0091317D02*
X0004119Y0091317D01*
X0004119Y0092915D02*
X0050334Y0092915D01*
X0052642Y0092915D02*
X0053043Y0092915D01*
X0053043Y0091317D02*
X0052642Y0091317D01*
X0052642Y0089718D02*
X0053043Y0089718D01*
X0057246Y0091317D02*
X0058926Y0091317D01*
X0061332Y0092915D02*
X0055351Y0092915D01*
X0064353Y0092915D02*
X0153633Y0092915D01*
X0152034Y0091317D02*
X0066759Y0091317D01*
X0067660Y0089718D02*
X0083823Y0089718D01*
X0081638Y0088120D02*
X0067943Y0088120D01*
X0067742Y0086521D02*
X0081215Y0086521D01*
X0081575Y0084923D02*
X0068627Y0084923D01*
X0068049Y0080127D02*
X0052950Y0080127D01*
X0056043Y0078529D02*
X0069647Y0078529D01*
X0071246Y0076930D02*
X0057895Y0076930D01*
X0058250Y0075332D02*
X0072844Y0075332D01*
X0074443Y0073733D02*
X0057820Y0073733D01*
X0052117Y0073733D02*
X0030211Y0073733D01*
X0028612Y0075332D02*
X0051687Y0075332D01*
X0050774Y0076930D02*
X0027014Y0076930D01*
X0027870Y0068937D02*
X0029632Y0068937D01*
X0049393Y0054551D02*
X0087316Y0054551D01*
X0085717Y0052952D02*
X0050991Y0052952D01*
X0052590Y0051354D02*
X0084119Y0051354D01*
X0082520Y0049755D02*
X0054188Y0049755D01*
X0057740Y0048157D02*
X0080922Y0048157D01*
X0079323Y0046558D02*
X0058869Y0046558D01*
X0059037Y0044960D02*
X0077725Y0044960D01*
X0076126Y0043361D02*
X0058257Y0043361D01*
X0052475Y0044960D02*
X0037912Y0044960D01*
X0039452Y0043361D02*
X0051223Y0043361D01*
X0049627Y0041763D02*
X0039452Y0041763D01*
X0037252Y0042509D02*
X0031504Y0048257D01*
X0028573Y0049755D02*
X0004119Y0049755D01*
X0004119Y0048157D02*
X0028223Y0048157D01*
X0028656Y0046558D02*
X0015927Y0046558D01*
X0015741Y0046666D02*
X0015283Y0046788D01*
X0011546Y0046788D01*
X0011546Y0041488D01*
X0011146Y0041488D01*
X0011146Y0041088D01*
X0005846Y0041088D01*
X0005846Y0037351D01*
X0005969Y0036893D01*
X0006206Y0036483D01*
X0006541Y0036148D01*
X0006952Y0035911D01*
X0007409Y0035788D01*
X0008884Y0035788D01*
X0008458Y0035612D01*
X0007023Y0034177D01*
X0006246Y0032303D01*
X0006246Y0030274D01*
X0007023Y0028399D01*
X0008458Y0026965D01*
X0009583Y0026498D01*
X0009235Y0026385D01*
X0008464Y0025992D01*
X0007763Y0025483D01*
X0007151Y0024871D01*
X0006642Y0024171D01*
X0006249Y0023399D01*
X0005982Y0022576D01*
X0005846Y0021721D01*
X0005846Y0021488D01*
X0011146Y0021488D01*
X0011146Y0021088D01*
X0005846Y0021088D01*
X0005846Y0020855D01*
X0005982Y0020000D01*
X0006249Y0019177D01*
X0006642Y0018406D01*
X0007151Y0017705D01*
X0007763Y0017093D01*
X0008464Y0016584D01*
X0009235Y0016191D01*
X0009583Y0016078D01*
X0008458Y0015612D01*
X0007023Y0014177D01*
X0006246Y0012303D01*
X0006246Y0010274D01*
X0007023Y0008399D01*
X0008458Y0006965D01*
X0010332Y0006188D01*
X0012361Y0006188D01*
X0014235Y0006965D01*
X0015670Y0008399D01*
X0016446Y0010274D01*
X0016446Y0012303D01*
X0015670Y0014177D01*
X0014235Y0015612D01*
X0013110Y0016078D01*
X0013458Y0016191D01*
X0014229Y0016584D01*
X0014929Y0017093D01*
X0015542Y0017705D01*
X0016050Y0018406D01*
X0016443Y0019177D01*
X0016711Y0020000D01*
X0016846Y0020855D01*
X0016846Y0021088D01*
X0011547Y0021088D01*
X0011547Y0021488D01*
X0016846Y0021488D01*
X0016846Y0021721D01*
X0016711Y0022576D01*
X0016443Y0023399D01*
X0016050Y0024171D01*
X0015542Y0024871D01*
X0014929Y0025483D01*
X0014229Y0025992D01*
X0013458Y0026385D01*
X0013110Y0026498D01*
X0014235Y0026965D01*
X0015670Y0028399D01*
X0016446Y0030274D01*
X0016446Y0032303D01*
X0015670Y0034177D01*
X0014235Y0035612D01*
X0013809Y0035788D01*
X0015283Y0035788D01*
X0015741Y0035911D01*
X0016152Y0036148D01*
X0016487Y0036483D01*
X0016724Y0036893D01*
X0016846Y0037351D01*
X0016846Y0041088D01*
X0011547Y0041088D01*
X0011547Y0041488D01*
X0016846Y0041488D01*
X0016846Y0045225D01*
X0016724Y0045683D01*
X0016487Y0046093D01*
X0016152Y0046429D01*
X0015741Y0046666D01*
X0016846Y0044960D02*
X0031690Y0044960D01*
X0033288Y0043361D02*
X0016846Y0043361D01*
X0016846Y0041763D02*
X0034887Y0041763D01*
X0037252Y0042509D02*
X0037252Y0038414D01*
X0033709Y0034871D01*
X0028984Y0034871D01*
X0025889Y0033770D02*
X0015839Y0033770D01*
X0016446Y0032172D02*
X0027043Y0032172D01*
X0030925Y0032172D02*
X0046381Y0032172D01*
X0048595Y0032172D02*
X0127084Y0032172D01*
X0127084Y0030573D02*
X0016446Y0030573D01*
X0015908Y0028975D02*
X0127084Y0028975D01*
X0127084Y0027376D02*
X0014647Y0027376D01*
X0014524Y0025778D02*
X0127084Y0025778D01*
X0127084Y0024179D02*
X0016044Y0024179D01*
X0016710Y0022581D02*
X0127084Y0022581D01*
X0127084Y0020982D02*
X0016846Y0020982D01*
X0016511Y0019384D02*
X0127084Y0019384D01*
X0127084Y0017785D02*
X0015600Y0017785D01*
X0013444Y0016187D02*
X0128446Y0016187D01*
X0130045Y0014588D02*
X0015259Y0014588D01*
X0016162Y0012990D02*
X0131643Y0012990D01*
X0133242Y0011391D02*
X0016446Y0011391D01*
X0016247Y0009793D02*
X0134672Y0009793D01*
X0134672Y0008194D02*
X0015465Y0008194D01*
X0013344Y0006596D02*
X0134672Y0006596D01*
X0144872Y0006596D02*
X0146228Y0006596D01*
X0145109Y0008194D02*
X0144872Y0008194D01*
X0153315Y0006596D02*
X0156228Y0006596D01*
X0155109Y0008194D02*
X0154434Y0008194D01*
X0163315Y0006596D02*
X0165663Y0006596D01*
X0164661Y0008194D02*
X0164434Y0008194D01*
X0169572Y0008194D02*
X0169972Y0008194D01*
X0169972Y0009793D02*
X0169572Y0009793D01*
X0169572Y0011391D02*
X0169972Y0011391D01*
X0169972Y0012990D02*
X0169572Y0012990D01*
X0169572Y0014588D02*
X0169972Y0014588D01*
X0169972Y0006596D02*
X0169572Y0006596D01*
X0175862Y0032172D02*
X0135609Y0032172D01*
X0135609Y0033770D02*
X0144721Y0033770D01*
X0143122Y0035369D02*
X0136091Y0035369D01*
X0136987Y0036967D02*
X0141524Y0036967D01*
X0139925Y0038566D02*
X0136871Y0038566D01*
X0135811Y0040164D02*
X0138327Y0040164D01*
X0134514Y0041763D02*
X0130884Y0041763D01*
X0130884Y0040164D02*
X0131606Y0040164D01*
X0127084Y0040164D02*
X0084602Y0040164D01*
X0083004Y0038566D02*
X0127084Y0038566D01*
X0127084Y0036967D02*
X0081405Y0036967D01*
X0079807Y0035369D02*
X0127084Y0035369D01*
X0127084Y0033770D02*
X0050421Y0033770D01*
X0048276Y0036052D02*
X0047488Y0035265D01*
X0044207Y0035369D02*
X0037318Y0035369D01*
X0038916Y0036967D02*
X0044642Y0036967D01*
X0044556Y0033770D02*
X0035719Y0033770D01*
X0026440Y0036967D02*
X0016744Y0036967D01*
X0014478Y0035369D02*
X0025703Y0035369D01*
X0034292Y0038566D02*
X0016846Y0038566D01*
X0016846Y0040164D02*
X0035052Y0040164D01*
X0039452Y0040164D02*
X0049325Y0040164D01*
X0049807Y0038566D02*
X0039452Y0038566D01*
X0036314Y0046558D02*
X0052011Y0046558D01*
X0050413Y0048157D02*
X0034785Y0048157D01*
X0034435Y0049755D02*
X0048814Y0049755D01*
X0011546Y0046558D02*
X0011146Y0046558D01*
X0011146Y0046788D02*
X0007409Y0046788D01*
X0006952Y0046666D01*
X0006541Y0046429D01*
X0006206Y0046093D01*
X0005969Y0045683D01*
X0005846Y0045225D01*
X0005846Y0041488D01*
X0011146Y0041488D01*
X0011146Y0046788D01*
X0011146Y0044960D02*
X0011546Y0044960D01*
X0011546Y0043361D02*
X0011146Y0043361D01*
X0011146Y0041763D02*
X0011546Y0041763D01*
X0005846Y0041763D02*
X0004119Y0041763D01*
X0004119Y0043361D02*
X0005846Y0043361D01*
X0005846Y0044960D02*
X0004119Y0044960D01*
X0004119Y0046558D02*
X0006766Y0046558D01*
X0005846Y0040164D02*
X0004119Y0040164D01*
X0004119Y0038566D02*
X0005846Y0038566D01*
X0005949Y0036967D02*
X0004119Y0036967D01*
X0004119Y0035369D02*
X0008215Y0035369D01*
X0006854Y0033770D02*
X0004119Y0033770D01*
X0004119Y0032172D02*
X0006246Y0032172D01*
X0006246Y0030573D02*
X0004119Y0030573D01*
X0004119Y0028975D02*
X0006785Y0028975D01*
X0008046Y0027376D02*
X0004119Y0027376D01*
X0004119Y0025778D02*
X0008169Y0025778D01*
X0006648Y0024179D02*
X0004119Y0024179D01*
X0004119Y0022581D02*
X0005983Y0022581D01*
X0005846Y0020982D02*
X0004119Y0020982D01*
X0004119Y0019384D02*
X0006182Y0019384D01*
X0007093Y0017785D02*
X0004119Y0017785D01*
X0004119Y0016187D02*
X0009249Y0016187D01*
X0007434Y0014588D02*
X0004119Y0014588D01*
X0004119Y0012990D02*
X0006531Y0012990D01*
X0006246Y0011391D02*
X0004119Y0011391D01*
X0004119Y0009793D02*
X0006446Y0009793D01*
X0007228Y0008194D02*
X0004119Y0008194D01*
X0004119Y0006596D02*
X0009349Y0006596D01*
X0086201Y0041763D02*
X0127084Y0041763D01*
X0127084Y0043361D02*
X0087799Y0043361D01*
X0089398Y0044960D02*
X0128065Y0044960D01*
X0128233Y0046558D02*
X0090996Y0046558D01*
X0092595Y0048157D02*
X0128775Y0048157D01*
X0133847Y0043361D02*
X0134514Y0043361D01*
X0144714Y0043361D02*
X0145111Y0043361D01*
X0144714Y0041763D02*
X0146455Y0041763D01*
X0152774Y0041763D02*
X0156455Y0041763D01*
X0155111Y0043361D02*
X0154118Y0043361D01*
X0154165Y0048157D02*
X0155064Y0048157D01*
X0156341Y0049755D02*
X0152887Y0049755D01*
X0146341Y0049755D02*
X0144714Y0049755D01*
X0144714Y0048157D02*
X0145064Y0048157D01*
X0136747Y0057748D02*
X0163757Y0057748D01*
X0162887Y0049755D02*
X0166341Y0049755D01*
X0165064Y0048157D02*
X0164165Y0048157D01*
X0164118Y0043361D02*
X0165111Y0043361D01*
X0166455Y0041763D02*
X0162774Y0041763D01*
X0176047Y0036967D02*
X0146898Y0036967D01*
X0058728Y0084923D02*
X0057390Y0084923D01*
X0022904Y0086521D02*
X0004119Y0086521D01*
X0004119Y0088120D02*
X0022554Y0088120D01*
X0022986Y0089718D02*
X0004119Y0089718D01*
D13*
X0025835Y0088020D03*
X0041189Y0080540D03*
X0054969Y0075422D03*
X0056937Y0068729D03*
X0025047Y0070698D03*
X0008512Y0075028D03*
X0007724Y0053769D03*
X0031504Y0048257D03*
X0028984Y0039595D03*
X0028984Y0034871D03*
X0047488Y0035265D03*
X0052606Y0040383D03*
X0055756Y0045501D03*
X0041189Y0017548D03*
X0018748Y0006524D03*
X0069535Y0011643D03*
X0100244Y0011643D03*
X0133709Y0037627D03*
X0131346Y0045501D03*
X0131346Y0050225D03*
X0131346Y0054950D03*
X0132134Y0071485D03*
X0123079Y0080146D03*
X0135677Y0081328D03*
X0154181Y0085658D03*
X0174260Y0092351D03*
X0181740Y0075422D03*
X0162449Y0073454D03*
X0166386Y0055737D03*
X0178197Y0034477D03*
X0092370Y0084477D03*
X0084496Y0086446D03*
X0102606Y0091170D03*
D14*
X0097094Y0086446D02*
X0149850Y0086446D01*
X0156937Y0093532D01*
X0173079Y0093532D01*
X0174260Y0092351D01*
X0173472Y0093139D01*
X0154181Y0085658D02*
X0154181Y0082000D01*
X0157724Y0078457D01*
X0172685Y0078457D01*
X0175720Y0075422D01*
X0181740Y0075422D01*
X0162449Y0073454D02*
X0154102Y0073454D01*
X0148984Y0065186D01*
X0136071Y0055737D02*
X0132134Y0059674D01*
X0132134Y0071485D01*
X0148669Y0075422D02*
X0151704Y0078457D01*
X0157724Y0078457D01*
X0148669Y0075422D02*
X0075441Y0075422D01*
X0062843Y0088020D01*
X0054969Y0075422D02*
X0042370Y0088020D01*
X0025835Y0088020D01*
X0023079Y0078178D02*
X0017173Y0078178D01*
X0014024Y0075028D01*
X0008512Y0075028D01*
X0023079Y0078178D02*
X0055756Y0045501D01*
X0052606Y0040383D02*
X0075835Y0040383D01*
X0089614Y0054162D01*
X0130559Y0054162D01*
X0131346Y0054950D01*
X0136071Y0055737D02*
X0166386Y0055737D01*
X0139614Y0045816D02*
X0139614Y0041564D01*
X0146701Y0034477D01*
X0178197Y0034477D01*
X0149772Y0010265D02*
X0133709Y0026328D01*
X0133709Y0037627D01*
X0128984Y0043139D02*
X0128984Y0018335D01*
X0137055Y0010265D01*
X0139772Y0010265D01*
X0100244Y0011643D02*
X0069535Y0011643D01*
X0077803Y0036052D02*
X0048276Y0036052D01*
X0077803Y0036052D02*
X0091976Y0050225D01*
X0131346Y0050225D01*
X0131346Y0045501D02*
X0128984Y0043139D01*
X0135677Y0081328D02*
X0132528Y0084477D01*
X0092370Y0084477D01*
X0095126Y0088414D02*
X0097094Y0086446D01*
X0095126Y0088414D02*
X0086465Y0088414D01*
X0084496Y0086446D01*
X0025047Y0070698D02*
X0007724Y0053769D01*
M02*
