G75*
%MOIN*%
%OFA0B0*%
%FSLAX25Y25*%
%IPPOS*%
%LPD*%
%AMOC8*
5,1,8,0,0,1.08239X$1,22.5*
%
%ADD10R,0.03150X0.04724*%
%ADD11R,0.04724X0.03150*%
%ADD12R,0.02756X0.01575*%
%ADD13R,0.04724X0.04724*%
%ADD14R,0.01575X0.02756*%
%ADD15R,0.06600X0.01100*%
%ADD16R,0.01100X0.06600*%
%ADD17R,0.05118X0.06299*%
%ADD18R,0.06299X0.05118*%
%ADD19R,0.03600X0.01600*%
D10*
X0023315Y0019910D03*
X0030402Y0019910D03*
X0076622Y0007706D03*
X0083709Y0007706D03*
X0108906Y0007312D03*
X0115992Y0007312D03*
X0144575Y0077784D03*
X0151661Y0077784D03*
X0114811Y0091170D03*
X0107724Y0091170D03*
D11*
X0054575Y0064005D03*
X0054575Y0056918D03*
X0023866Y0042548D03*
X0023866Y0035461D03*
D12*
X0033551Y0036209D03*
X0033551Y0038769D03*
X0033551Y0041328D03*
X0040244Y0041328D03*
X0040244Y0036209D03*
D13*
X0017449Y0080934D03*
X0009181Y0080934D03*
D14*
X0042370Y0031013D03*
X0047488Y0031013D03*
X0047488Y0024320D03*
X0044929Y0024320D03*
X0042370Y0024320D03*
D15*
X0064181Y0024775D03*
X0064181Y0026675D03*
X0064181Y0028675D03*
X0064181Y0030675D03*
X0064181Y0032675D03*
X0064181Y0034575D03*
X0064181Y0036575D03*
X0064181Y0038575D03*
X0064181Y0040475D03*
X0064181Y0042475D03*
X0064181Y0044475D03*
X0064181Y0046375D03*
X0064181Y0048375D03*
X0064181Y0050375D03*
X0064181Y0052275D03*
X0064181Y0054275D03*
X0064181Y0056275D03*
X0064181Y0058175D03*
X0064181Y0060175D03*
X0064181Y0062175D03*
X0064181Y0064075D03*
X0064181Y0066075D03*
X0064181Y0068075D03*
X0064181Y0070075D03*
X0064181Y0071975D03*
X0124181Y0071975D03*
X0124181Y0070075D03*
X0124181Y0068075D03*
X0124181Y0066075D03*
X0124181Y0064075D03*
X0124181Y0062175D03*
X0124181Y0060175D03*
X0124181Y0058175D03*
X0124181Y0056275D03*
X0124181Y0054275D03*
X0124181Y0052275D03*
X0124181Y0050375D03*
X0124181Y0048375D03*
X0124181Y0046375D03*
X0124181Y0044475D03*
X0124181Y0042475D03*
X0124181Y0040475D03*
X0124181Y0038575D03*
X0124181Y0036575D03*
X0124181Y0034575D03*
X0124181Y0032675D03*
X0124181Y0030675D03*
X0124181Y0028675D03*
X0124181Y0026675D03*
X0124181Y0024775D03*
D16*
X0117781Y0018375D03*
X0115881Y0018375D03*
X0113881Y0018375D03*
X0111881Y0018375D03*
X0109881Y0018375D03*
X0107981Y0018375D03*
X0105981Y0018375D03*
X0103981Y0018375D03*
X0102081Y0018375D03*
X0100081Y0018375D03*
X0098081Y0018375D03*
X0096181Y0018375D03*
X0094181Y0018375D03*
X0092181Y0018375D03*
X0090281Y0018375D03*
X0088281Y0018375D03*
X0086281Y0018375D03*
X0084381Y0018375D03*
X0082381Y0018375D03*
X0080381Y0018375D03*
X0078481Y0018375D03*
X0076481Y0018375D03*
X0074481Y0018375D03*
X0072481Y0018375D03*
X0070581Y0018375D03*
X0070581Y0078375D03*
X0072481Y0078375D03*
X0074481Y0078375D03*
X0076481Y0078375D03*
X0078481Y0078375D03*
X0080381Y0078375D03*
X0082381Y0078375D03*
X0084381Y0078375D03*
X0086281Y0078375D03*
X0088281Y0078375D03*
X0090281Y0078375D03*
X0092181Y0078375D03*
X0094181Y0078375D03*
X0096181Y0078375D03*
X0098081Y0078375D03*
X0100081Y0078375D03*
X0102081Y0078375D03*
X0103981Y0078375D03*
X0105981Y0078375D03*
X0107981Y0078375D03*
X0109881Y0078375D03*
X0111881Y0078375D03*
X0113881Y0078375D03*
X0115881Y0078375D03*
X0117781Y0078375D03*
D17*
X0025047Y0008690D03*
X0032528Y0008690D03*
X0043000Y0008690D03*
X0050480Y0008690D03*
X0033354Y0028099D03*
X0025874Y0028099D03*
X0039811Y0050894D03*
X0047291Y0050894D03*
X0047291Y0059398D03*
X0039811Y0059398D03*
X0039811Y0067902D03*
X0047291Y0067902D03*
X0033079Y0080619D03*
X0025598Y0080619D03*
X0022370Y0051524D03*
X0014890Y0051524D03*
X0121740Y0089713D03*
X0129220Y0089713D03*
D18*
X0031031Y0063847D03*
X0018669Y0061091D03*
X0009772Y0061091D03*
X0009772Y0068572D03*
X0018669Y0068572D03*
X0031031Y0056367D03*
D19*
X0167477Y0073357D03*
X0174877Y0073357D03*
X0174877Y0078457D03*
X0167477Y0078457D03*
M02*
