G75*
%MOIN*%
%OFA0B0*%
%FSLAX25Y25*%
%IPPOS*%
%LPD*%
%AMOC8*
5,1,8,0,0,1.08239X$1,22.5*
%
%ADD10C,0.00400*%
D10*
X0065798Y0020070D02*
X0070402Y0020070D01*
X0073298Y0019303D02*
X0073298Y0020837D01*
X0074066Y0021605D01*
X0074066Y0023139D02*
X0074833Y0023907D01*
X0074833Y0026209D01*
X0075600Y0026209D02*
X0076368Y0025441D01*
X0076368Y0023907D01*
X0074066Y0023139D02*
X0073298Y0023907D01*
X0073298Y0026209D01*
X0075600Y0026209D01*
X0073298Y0027743D02*
X0073298Y0029278D01*
X0073298Y0028511D02*
X0077902Y0028511D01*
X0077902Y0027743D01*
X0080798Y0027743D02*
X0080798Y0030045D01*
X0081566Y0030813D01*
X0082333Y0030045D01*
X0082333Y0028511D01*
X0083100Y0027743D01*
X0083868Y0028511D01*
X0083868Y0030813D01*
X0083868Y0032347D02*
X0083868Y0033115D01*
X0080798Y0033115D01*
X0080798Y0033882D02*
X0080798Y0032347D01*
X0076368Y0030813D02*
X0073298Y0032347D01*
X0076368Y0033882D01*
X0076368Y0035416D02*
X0076368Y0036184D01*
X0073298Y0036184D01*
X0073298Y0036951D02*
X0073298Y0035416D01*
X0068868Y0036184D02*
X0068868Y0037718D01*
X0068100Y0038486D01*
X0066566Y0038486D01*
X0065798Y0037718D01*
X0065798Y0036184D01*
X0066566Y0035416D01*
X0068100Y0035416D01*
X0068868Y0036184D01*
X0065798Y0033882D02*
X0065798Y0032347D01*
X0065798Y0033115D02*
X0070402Y0033115D01*
X0070402Y0032347D01*
X0068868Y0030813D02*
X0065031Y0030813D01*
X0064264Y0030045D01*
X0064264Y0029278D01*
X0065798Y0028511D02*
X0065798Y0030813D01*
X0065798Y0028511D02*
X0066566Y0027743D01*
X0068868Y0027743D01*
X0068100Y0026209D02*
X0065798Y0026209D01*
X0065798Y0023907D01*
X0066566Y0023139D01*
X0067333Y0023907D01*
X0067333Y0026209D01*
X0068100Y0026209D02*
X0068868Y0025441D01*
X0068868Y0023907D01*
X0070402Y0021605D02*
X0070402Y0018535D01*
X0073298Y0019303D02*
X0074066Y0018535D01*
X0077135Y0018535D01*
X0077902Y0019303D01*
X0077902Y0020837D01*
X0077135Y0021605D01*
X0080798Y0020837D02*
X0081566Y0021605D01*
X0084635Y0021605D01*
X0085402Y0020837D01*
X0085402Y0018535D01*
X0080798Y0018535D01*
X0080798Y0020837D01*
X0081566Y0023139D02*
X0083100Y0023139D01*
X0083868Y0023907D01*
X0083868Y0025441D01*
X0083100Y0026209D01*
X0082333Y0026209D01*
X0082333Y0023139D01*
X0081566Y0023139D02*
X0080798Y0023907D01*
X0080798Y0025441D01*
X0085402Y0033115D02*
X0086170Y0033115D01*
X0083868Y0036184D02*
X0083100Y0035416D01*
X0081566Y0035416D01*
X0080798Y0036184D01*
X0080798Y0038486D01*
X0080031Y0038486D02*
X0083868Y0038486D01*
X0083868Y0036184D01*
X0080031Y0038486D02*
X0079264Y0037718D01*
X0079264Y0036951D01*
X0078670Y0036184D02*
X0077902Y0036184D01*
X0076368Y0038486D02*
X0073298Y0038486D01*
X0076368Y0038486D02*
X0076368Y0040788D01*
X0075600Y0041555D01*
X0073298Y0041555D01*
X0068868Y0041555D02*
X0068868Y0042322D01*
X0068868Y0041555D02*
X0067333Y0040020D01*
X0065798Y0040020D02*
X0068868Y0040020D01*
X0080798Y0040020D02*
X0083868Y0040020D01*
X0083868Y0042322D01*
X0083100Y0043090D01*
X0080798Y0043090D01*
X0081566Y0044624D02*
X0083100Y0044624D01*
X0083868Y0045392D01*
X0083868Y0046926D01*
X0083100Y0047694D01*
X0082333Y0047694D01*
X0082333Y0044624D01*
X0081566Y0044624D02*
X0080798Y0045392D01*
X0080798Y0046926D01*
X0077902Y0047694D02*
X0076368Y0049228D01*
X0077902Y0050763D01*
X0073298Y0050763D01*
X0070402Y0051530D02*
X0065798Y0051530D01*
X0066566Y0053065D02*
X0065798Y0053832D01*
X0065798Y0056134D01*
X0068100Y0056134D01*
X0068868Y0055367D01*
X0068868Y0053832D01*
X0067333Y0053832D02*
X0067333Y0056134D01*
X0067333Y0057669D02*
X0068868Y0059203D01*
X0068868Y0059971D01*
X0068100Y0061505D02*
X0066566Y0061505D01*
X0065798Y0062273D01*
X0065798Y0064575D01*
X0070402Y0064575D01*
X0068868Y0064575D02*
X0068868Y0062273D01*
X0068100Y0061505D01*
X0073298Y0062273D02*
X0074066Y0061505D01*
X0075600Y0061505D01*
X0076368Y0062273D01*
X0076368Y0064575D01*
X0077902Y0064575D02*
X0073298Y0064575D01*
X0073298Y0062273D01*
X0074066Y0059971D02*
X0075600Y0059971D01*
X0076368Y0059203D01*
X0076368Y0057669D01*
X0075600Y0056901D01*
X0074066Y0056901D01*
X0073298Y0057669D01*
X0073298Y0059203D01*
X0074066Y0059971D01*
X0068868Y0057669D02*
X0065798Y0057669D01*
X0067333Y0053832D02*
X0066566Y0053065D01*
X0068100Y0051530D02*
X0068100Y0048461D01*
X0065798Y0048461D02*
X0070402Y0048461D01*
X0073298Y0047694D02*
X0077902Y0047694D01*
X0080798Y0049996D02*
X0081566Y0049228D01*
X0083100Y0049228D01*
X0083868Y0049996D01*
X0083868Y0052298D01*
X0085402Y0052298D02*
X0080798Y0052298D01*
X0080798Y0049996D01*
X0076368Y0053065D02*
X0075600Y0052298D01*
X0074066Y0052298D01*
X0073298Y0053065D01*
X0073298Y0054599D01*
X0074066Y0055367D01*
X0075600Y0055367D01*
X0076368Y0054599D01*
X0076368Y0053065D01*
X0080798Y0058436D02*
X0080798Y0060738D01*
X0081566Y0061505D01*
X0083100Y0061505D01*
X0083868Y0060738D01*
X0083868Y0058436D01*
X0085402Y0058436D02*
X0080798Y0058436D01*
X0081566Y0063040D02*
X0080798Y0063807D01*
X0080798Y0066109D01*
X0080031Y0066109D02*
X0079264Y0065342D01*
X0079264Y0064575D01*
X0081566Y0063040D02*
X0083868Y0063040D01*
X0083868Y0066109D02*
X0080031Y0066109D01*
X0080798Y0067644D02*
X0081566Y0067644D01*
X0081566Y0068411D01*
X0080798Y0068411D01*
X0080798Y0067644D01*
X0083100Y0067644D02*
X0083868Y0067644D01*
X0083868Y0068411D01*
X0083100Y0068411D01*
X0083100Y0067644D01*
X0076368Y0069179D02*
X0072531Y0069179D01*
X0071764Y0068411D01*
X0071764Y0067644D01*
X0071170Y0066877D02*
X0070402Y0066877D01*
X0068868Y0066877D02*
X0068868Y0066109D01*
X0068868Y0066877D02*
X0065798Y0066877D01*
X0065798Y0067644D02*
X0065798Y0066109D01*
X0065798Y0069179D02*
X0068868Y0069179D01*
X0068868Y0071481D01*
X0068100Y0072248D01*
X0065798Y0072248D01*
X0073298Y0069179D02*
X0073298Y0066877D01*
X0074066Y0066109D01*
X0076368Y0066109D01*
X0103298Y0066109D02*
X0103298Y0064575D01*
X0104066Y0063807D01*
X0105600Y0063807D01*
X0106368Y0064575D01*
X0106368Y0066109D01*
X0105600Y0066877D01*
X0104833Y0066877D01*
X0104833Y0063807D01*
X0105600Y0062273D02*
X0104833Y0061505D01*
X0104833Y0059203D01*
X0103298Y0059203D02*
X0107902Y0059203D01*
X0107902Y0061505D01*
X0107135Y0062273D01*
X0105600Y0062273D01*
X0104833Y0060738D02*
X0103298Y0062273D01*
X0110798Y0063040D02*
X0110798Y0065342D01*
X0111566Y0066109D01*
X0113100Y0066109D01*
X0113868Y0065342D01*
X0113868Y0063040D01*
X0115402Y0063040D02*
X0110798Y0063040D01*
X0110798Y0061505D02*
X0110798Y0059203D01*
X0111566Y0058436D01*
X0112333Y0059203D01*
X0112333Y0061505D01*
X0113100Y0061505D02*
X0110798Y0061505D01*
X0113100Y0061505D02*
X0113868Y0060738D01*
X0113868Y0059203D01*
X0110798Y0056901D02*
X0110798Y0053832D01*
X0115402Y0053832D01*
X0118298Y0054599D02*
X0118298Y0056134D01*
X0119066Y0056901D01*
X0122902Y0056901D01*
X0121368Y0058436D02*
X0121368Y0060738D01*
X0120600Y0061505D01*
X0118298Y0061505D01*
X0118298Y0063040D02*
X0118298Y0064575D01*
X0118298Y0063807D02*
X0121368Y0063807D01*
X0121368Y0063040D01*
X0122902Y0063807D02*
X0123670Y0063807D01*
X0121368Y0066109D02*
X0118298Y0067644D01*
X0121368Y0069179D01*
X0120600Y0070713D02*
X0121368Y0071481D01*
X0121368Y0073015D01*
X0120600Y0073783D01*
X0119833Y0073783D01*
X0119833Y0070713D01*
X0119066Y0070713D02*
X0120600Y0070713D01*
X0119066Y0070713D02*
X0118298Y0071481D01*
X0118298Y0073015D01*
X0118298Y0075317D02*
X0121368Y0075317D01*
X0119833Y0075317D02*
X0121368Y0076852D01*
X0121368Y0077619D01*
X0120600Y0079154D02*
X0121368Y0079921D01*
X0121368Y0082223D01*
X0119833Y0081456D02*
X0119833Y0079921D01*
X0120600Y0079154D01*
X0118298Y0079154D02*
X0118298Y0081456D01*
X0119066Y0082223D01*
X0119833Y0081456D01*
X0118298Y0083758D02*
X0118298Y0085292D01*
X0118298Y0084525D02*
X0121368Y0084525D01*
X0121368Y0083758D01*
X0122902Y0084525D02*
X0123670Y0084525D01*
X0121368Y0086827D02*
X0121368Y0088362D01*
X0122135Y0087594D02*
X0119066Y0087594D01*
X0118298Y0088362D01*
X0119066Y0089896D02*
X0118298Y0090664D01*
X0118298Y0092966D01*
X0117531Y0092966D02*
X0116764Y0092198D01*
X0116764Y0091431D01*
X0117531Y0092966D02*
X0121368Y0092966D01*
X0121368Y0089896D02*
X0119066Y0089896D01*
X0107902Y0081456D02*
X0106368Y0082990D01*
X0103298Y0082990D01*
X0105600Y0082990D02*
X0105600Y0079921D01*
X0106368Y0079921D02*
X0103298Y0079921D01*
X0106368Y0079921D02*
X0107902Y0081456D01*
X0104066Y0073783D02*
X0103298Y0073783D01*
X0103298Y0073015D01*
X0104066Y0073015D01*
X0104066Y0073783D01*
X0106368Y0071481D02*
X0103298Y0069946D01*
X0106368Y0068411D01*
X0118298Y0058436D02*
X0121368Y0058436D01*
X0118298Y0054599D02*
X0119066Y0053832D01*
X0122902Y0053832D01*
X0120600Y0047694D02*
X0118298Y0047694D01*
X0120600Y0047694D02*
X0121368Y0046926D01*
X0121368Y0044624D01*
X0118298Y0044624D01*
X0115402Y0044624D02*
X0115402Y0047694D01*
X0115402Y0046159D02*
X0110798Y0046159D01*
X0106368Y0046159D02*
X0106368Y0045392D01*
X0103298Y0045392D01*
X0103298Y0046926D02*
X0105600Y0046926D01*
X0106368Y0047694D01*
X0105600Y0048461D01*
X0103298Y0048461D01*
X0103298Y0049996D02*
X0103298Y0052298D01*
X0104066Y0053065D01*
X0105600Y0053065D01*
X0106368Y0052298D01*
X0106368Y0049996D01*
X0107902Y0049996D02*
X0103298Y0049996D01*
X0100402Y0049228D02*
X0099635Y0047694D01*
X0098100Y0046159D01*
X0098100Y0048461D01*
X0097333Y0049228D01*
X0096566Y0049228D01*
X0095798Y0048461D01*
X0095798Y0046926D01*
X0096566Y0046159D01*
X0098100Y0046159D01*
X0095798Y0044624D02*
X0095798Y0041555D01*
X0095798Y0043090D02*
X0100402Y0043090D01*
X0098868Y0041555D01*
X0099635Y0040020D02*
X0096566Y0040020D01*
X0095798Y0039253D01*
X0095798Y0037718D01*
X0096566Y0036951D01*
X0099635Y0040020D01*
X0100402Y0039253D01*
X0100402Y0037718D01*
X0099635Y0036951D01*
X0096566Y0036951D01*
X0095798Y0035416D02*
X0095798Y0032347D01*
X0098868Y0035416D01*
X0099635Y0035416D01*
X0100402Y0034649D01*
X0100402Y0033115D01*
X0099635Y0032347D01*
X0100402Y0030813D02*
X0095798Y0027743D01*
X0096566Y0026209D02*
X0095798Y0025441D01*
X0095798Y0023907D01*
X0096566Y0023139D01*
X0096566Y0021605D02*
X0095798Y0020837D01*
X0095798Y0019303D01*
X0096566Y0018535D01*
X0099635Y0021605D01*
X0096566Y0021605D01*
X0098100Y0023139D02*
X0098868Y0024674D01*
X0098868Y0025441D01*
X0098100Y0026209D01*
X0096566Y0026209D01*
X0100402Y0026209D02*
X0100402Y0023139D01*
X0098100Y0023139D01*
X0099635Y0021605D02*
X0100402Y0020837D01*
X0100402Y0019303D01*
X0099635Y0018535D01*
X0096566Y0018535D01*
X0103298Y0018535D02*
X0103298Y0020837D01*
X0104066Y0021605D01*
X0107135Y0021605D01*
X0107902Y0020837D01*
X0107902Y0018535D01*
X0103298Y0018535D01*
X0110798Y0018535D02*
X0115402Y0018535D01*
X0115402Y0020837D01*
X0114635Y0021605D01*
X0113100Y0021605D01*
X0112333Y0020837D01*
X0112333Y0018535D01*
X0118298Y0019303D02*
X0118298Y0020837D01*
X0119066Y0021605D01*
X0118298Y0023139D02*
X0118298Y0024674D01*
X0118298Y0023907D02*
X0122902Y0023907D01*
X0122902Y0023139D01*
X0122135Y0021605D02*
X0122902Y0020837D01*
X0122902Y0019303D01*
X0122135Y0018535D01*
X0119066Y0018535D01*
X0118298Y0019303D01*
X0115402Y0023139D02*
X0110798Y0023139D01*
X0110798Y0026209D01*
X0113100Y0024674D02*
X0113100Y0023139D01*
X0115402Y0023139D02*
X0115402Y0026209D01*
X0118298Y0026976D02*
X0119066Y0026209D01*
X0120600Y0026209D01*
X0121368Y0026976D01*
X0121368Y0028511D01*
X0120600Y0029278D01*
X0119833Y0029278D01*
X0119833Y0026209D01*
X0118298Y0026976D02*
X0118298Y0028511D01*
X0115402Y0027743D02*
X0115402Y0030045D01*
X0114635Y0030813D01*
X0113100Y0030813D01*
X0112333Y0030045D01*
X0112333Y0027743D01*
X0110798Y0027743D02*
X0115402Y0027743D01*
X0112333Y0029278D02*
X0110798Y0030813D01*
X0111566Y0032347D02*
X0110798Y0033115D01*
X0110798Y0034649D01*
X0111566Y0035416D01*
X0112333Y0035416D01*
X0113100Y0034649D01*
X0113100Y0033115D01*
X0113868Y0032347D01*
X0114635Y0032347D01*
X0115402Y0033115D01*
X0115402Y0034649D01*
X0114635Y0035416D01*
X0115402Y0036951D02*
X0115402Y0038486D01*
X0115402Y0037718D02*
X0110798Y0037718D01*
X0110798Y0036951D02*
X0110798Y0038486D01*
X0111566Y0040020D02*
X0110798Y0040788D01*
X0110798Y0042322D01*
X0111566Y0043090D01*
X0112333Y0043090D01*
X0113100Y0042322D01*
X0113100Y0040788D01*
X0113868Y0040020D01*
X0114635Y0040020D01*
X0115402Y0040788D01*
X0115402Y0042322D01*
X0114635Y0043090D01*
X0118298Y0042322D02*
X0118298Y0040788D01*
X0119066Y0040020D01*
X0120600Y0040020D01*
X0121368Y0040788D01*
X0121368Y0042322D01*
X0120600Y0043090D01*
X0119066Y0043090D01*
X0118298Y0042322D01*
X0119066Y0038486D02*
X0119833Y0037718D01*
X0119833Y0036184D01*
X0120600Y0035416D01*
X0121368Y0036184D01*
X0121368Y0038486D01*
X0119066Y0038486D02*
X0118298Y0037718D01*
X0118298Y0035416D01*
X0118298Y0033882D02*
X0120600Y0033882D01*
X0121368Y0033115D01*
X0120600Y0032347D01*
X0118298Y0032347D01*
X0118298Y0030813D02*
X0121368Y0030813D01*
X0121368Y0031580D01*
X0120600Y0032347D01*
X0107902Y0037718D02*
X0107902Y0039253D01*
X0107902Y0038486D02*
X0104066Y0038486D01*
X0103298Y0037718D01*
X0103298Y0036951D01*
X0104066Y0036184D01*
X0106368Y0034649D02*
X0106368Y0033882D01*
X0104833Y0032347D01*
X0103298Y0032347D02*
X0106368Y0032347D01*
X0105600Y0030813D02*
X0106368Y0030045D01*
X0106368Y0028511D01*
X0105600Y0027743D01*
X0104066Y0027743D01*
X0103298Y0028511D01*
X0103298Y0030045D01*
X0104066Y0030813D01*
X0105600Y0030813D01*
X0105600Y0026209D02*
X0106368Y0025441D01*
X0106368Y0023907D01*
X0105600Y0023139D01*
X0104066Y0023139D01*
X0103298Y0023907D01*
X0103298Y0025441D01*
X0104066Y0026209D01*
X0105600Y0026209D01*
X0104066Y0040788D02*
X0104833Y0041555D01*
X0104833Y0043857D01*
X0105600Y0043857D02*
X0103298Y0043857D01*
X0103298Y0041555D01*
X0104066Y0040788D01*
X0106368Y0041555D02*
X0106368Y0043090D01*
X0105600Y0043857D01*
X0106368Y0046159D02*
X0105600Y0046926D01*
M02*
