%
M48
M72
T01C0.0236
T02C0.0350
T03C0.0400
%
T01
X1875Y652
X4119Y1755
X6954Y1164
X10024Y1164
X13371Y3763
X13135Y4550
X13135Y5023
X13135Y5495
X13213Y7149
X12308Y8015
X13568Y8133
X15418Y8566
X17426Y9235
X18174Y7542
X16245Y7345
X16639Y5574
X17820Y3448
X9237Y8448
X8450Y8645
X10261Y9117
X5694Y6873
X5497Y7542
X4119Y8054
X2583Y8802
X851Y7503
X2505Y7070
X772Y5377
X3150Y4826
X2898Y3960
X2898Y3487
X4749Y3526
X5261Y4038
X5576Y4550
T02
X16143Y8605
X18143Y8205
X18143Y9005
T03
X17898Y6519
X16898Y6519
X15898Y6519
X14898Y6519
X13898Y6519
X13961Y4582
X14961Y4582
X15961Y4582
X16961Y4582
X16977Y1026
X15977Y1026
X14977Y1026
X13977Y1026
X1135Y1129
X1135Y2129
X1135Y3129
X1135Y4129
X5284Y8802
X6284Y8802
M30
