G75*
%MOIN*%
%OFA0B0*%
%FSLAX25Y25*%
%IPPOS*%
%LPD*%
%AMOC8*
5,1,8,0,0,1.08239X$1,22.5*
%
%ADD10C,0.08000*%
%ADD11C,0.04100*%
%ADD12R,0.08000X0.08000*%
%ADD13C,0.04362*%
D10*
X0011346Y0011288D03*
X0011346Y0021288D03*
X0011346Y0031288D03*
X0052843Y0088020D03*
X0062843Y0088020D03*
X0138984Y0065186D03*
X0148984Y0065186D03*
X0158984Y0065186D03*
X0168984Y0065186D03*
X0178984Y0065186D03*
X0169614Y0045816D03*
X0159614Y0045816D03*
X0149614Y0045816D03*
X0149772Y0010265D03*
X0159772Y0010265D03*
X0169772Y0010265D03*
D11*
X0181425Y0082052D03*
X0181425Y0090052D03*
X0161425Y0086052D03*
D12*
X0139614Y0045816D03*
X0139772Y0010265D03*
X0011346Y0041288D03*
D13*
X0018748Y0006524D03*
X0041189Y0017548D03*
X0069535Y0011643D03*
X0100244Y0011643D03*
X0133709Y0037627D03*
X0131346Y0045501D03*
X0131346Y0050225D03*
X0131346Y0054950D03*
X0132134Y0071485D03*
X0123079Y0080146D03*
X0135677Y0081328D03*
X0154181Y0085658D03*
X0174260Y0092351D03*
X0181740Y0075422D03*
X0162449Y0073454D03*
X0166386Y0055737D03*
X0178197Y0034477D03*
X0092370Y0084477D03*
X0084496Y0086446D03*
X0102606Y0091170D03*
X0056937Y0068729D03*
X0054969Y0075422D03*
X0041189Y0080540D03*
X0025835Y0088020D03*
X0008512Y0075028D03*
X0025047Y0070698D03*
X0007724Y0053769D03*
X0031504Y0048257D03*
X0028984Y0039595D03*
X0028984Y0034871D03*
X0047488Y0035265D03*
X0052606Y0040383D03*
X0055756Y0045501D03*
M02*
