G75*
%MOIN*%
%OFA0B0*%
%FSLAX25Y25*%
%IPPOS*%
%LPD*%
%AMOC8*
5,1,8,0,0,1.08239X$1,22.5*
%
%ADD10R,0.03150X0.04724*%
%ADD11R,0.04724X0.03150*%
%ADD12R,0.02756X0.01575*%
%ADD13C,0.07400*%
%ADD14C,0.03100*%
%ADD15R,0.07400X0.07400*%
%ADD16R,0.04724X0.04724*%
%ADD17R,0.01575X0.02756*%
%ADD18R,0.06600X0.01100*%
%ADD19R,0.01100X0.06600*%
%ADD20R,0.05118X0.06299*%
%ADD21R,0.06299X0.05118*%
%ADD22R,0.03600X0.01600*%
%ADD23C,0.01600*%
%ADD24C,0.03762*%
%ADD25C,0.01000*%
D10*
X0023315Y0019910D03*
X0030402Y0019910D03*
X0076622Y0007706D03*
X0083709Y0007706D03*
X0108906Y0007312D03*
X0115992Y0007312D03*
X0144575Y0077784D03*
X0151661Y0077784D03*
X0114811Y0091170D03*
X0107724Y0091170D03*
D11*
X0054575Y0064005D03*
X0054575Y0056918D03*
X0023866Y0042548D03*
X0023866Y0035461D03*
D12*
X0033551Y0036209D03*
X0033551Y0038769D03*
X0033551Y0041328D03*
X0040244Y0041328D03*
X0040244Y0036209D03*
D13*
X0011346Y0031288D03*
X0011346Y0021288D03*
X0011346Y0011288D03*
X0138984Y0065186D03*
X0148984Y0065186D03*
X0158984Y0065186D03*
X0168984Y0065186D03*
X0178984Y0065186D03*
X0169614Y0045816D03*
X0159614Y0045816D03*
X0149614Y0045816D03*
X0149772Y0010265D03*
X0159772Y0010265D03*
X0169772Y0010265D03*
X0062843Y0088020D03*
X0052843Y0088020D03*
D14*
X0166425Y0088552D03*
X0171425Y0088552D03*
X0176425Y0088552D03*
X0176425Y0083552D03*
X0171425Y0083552D03*
X0166425Y0083552D03*
D15*
X0139614Y0045816D03*
X0139772Y0010265D03*
X0011346Y0041288D03*
D16*
X0009181Y0080934D03*
X0017449Y0080934D03*
D17*
X0042370Y0031013D03*
X0047488Y0031013D03*
X0047488Y0024320D03*
X0044929Y0024320D03*
X0042370Y0024320D03*
D18*
X0064181Y0024775D03*
X0064181Y0026675D03*
X0064181Y0028675D03*
X0064181Y0030675D03*
X0064181Y0032675D03*
X0064181Y0034575D03*
X0064181Y0036575D03*
X0064181Y0038575D03*
X0064181Y0040475D03*
X0064181Y0042475D03*
X0064181Y0044475D03*
X0064181Y0046375D03*
X0064181Y0048375D03*
X0064181Y0050375D03*
X0064181Y0052275D03*
X0064181Y0054275D03*
X0064181Y0056275D03*
X0064181Y0058175D03*
X0064181Y0060175D03*
X0064181Y0062175D03*
X0064181Y0064075D03*
X0064181Y0066075D03*
X0064181Y0068075D03*
X0064181Y0070075D03*
X0064181Y0071975D03*
X0124181Y0071975D03*
X0124181Y0070075D03*
X0124181Y0068075D03*
X0124181Y0066075D03*
X0124181Y0064075D03*
X0124181Y0062175D03*
X0124181Y0060175D03*
X0124181Y0058175D03*
X0124181Y0056275D03*
X0124181Y0054275D03*
X0124181Y0052275D03*
X0124181Y0050375D03*
X0124181Y0048375D03*
X0124181Y0046375D03*
X0124181Y0044475D03*
X0124181Y0042475D03*
X0124181Y0040475D03*
X0124181Y0038575D03*
X0124181Y0036575D03*
X0124181Y0034575D03*
X0124181Y0032675D03*
X0124181Y0030675D03*
X0124181Y0028675D03*
X0124181Y0026675D03*
X0124181Y0024775D03*
D19*
X0117781Y0018375D03*
X0115881Y0018375D03*
X0113881Y0018375D03*
X0111881Y0018375D03*
X0109881Y0018375D03*
X0107981Y0018375D03*
X0105981Y0018375D03*
X0103981Y0018375D03*
X0102081Y0018375D03*
X0100081Y0018375D03*
X0098081Y0018375D03*
X0096181Y0018375D03*
X0094181Y0018375D03*
X0092181Y0018375D03*
X0090281Y0018375D03*
X0088281Y0018375D03*
X0086281Y0018375D03*
X0084381Y0018375D03*
X0082381Y0018375D03*
X0080381Y0018375D03*
X0078481Y0018375D03*
X0076481Y0018375D03*
X0074481Y0018375D03*
X0072481Y0018375D03*
X0070581Y0018375D03*
X0070581Y0078375D03*
X0072481Y0078375D03*
X0074481Y0078375D03*
X0076481Y0078375D03*
X0078481Y0078375D03*
X0080381Y0078375D03*
X0082381Y0078375D03*
X0084381Y0078375D03*
X0086281Y0078375D03*
X0088281Y0078375D03*
X0090281Y0078375D03*
X0092181Y0078375D03*
X0094181Y0078375D03*
X0096181Y0078375D03*
X0098081Y0078375D03*
X0100081Y0078375D03*
X0102081Y0078375D03*
X0103981Y0078375D03*
X0105981Y0078375D03*
X0107981Y0078375D03*
X0109881Y0078375D03*
X0111881Y0078375D03*
X0113881Y0078375D03*
X0115881Y0078375D03*
X0117781Y0078375D03*
D20*
X0121740Y0089713D03*
X0129220Y0089713D03*
X0047291Y0067902D03*
X0039811Y0067902D03*
X0039811Y0059398D03*
X0047291Y0059398D03*
X0047291Y0050894D03*
X0039811Y0050894D03*
X0022370Y0051524D03*
X0014890Y0051524D03*
X0025874Y0028099D03*
X0033354Y0028099D03*
X0032528Y0008690D03*
X0025047Y0008690D03*
X0043000Y0008690D03*
X0050480Y0008690D03*
X0033079Y0080619D03*
X0025598Y0080619D03*
D21*
X0018669Y0068572D03*
X0009772Y0068572D03*
X0009772Y0061091D03*
X0018669Y0061091D03*
X0031031Y0063847D03*
X0031031Y0056367D03*
D22*
X0167477Y0073357D03*
X0174877Y0073357D03*
X0174877Y0078457D03*
X0167477Y0078457D03*
D23*
X0004119Y0093988D02*
X0004119Y0004100D01*
X0016532Y0004100D01*
X0015966Y0004666D01*
X0015467Y0005872D01*
X0015467Y0007177D01*
X0015966Y0008383D01*
X0016889Y0009306D01*
X0018095Y0009805D01*
X0018918Y0009805D01*
X0020002Y0010890D01*
X0021088Y0010890D01*
X0021088Y0012419D01*
X0021908Y0013239D01*
X0028186Y0013239D01*
X0028787Y0012638D01*
X0029389Y0013239D01*
X0035667Y0013239D01*
X0036487Y0012419D01*
X0036487Y0010890D01*
X0039041Y0010890D01*
X0039041Y0012419D01*
X0039861Y0013239D01*
X0040957Y0013239D01*
X0040957Y0014267D01*
X0040536Y0014267D01*
X0039330Y0014766D01*
X0038407Y0015689D01*
X0037908Y0016895D01*
X0037908Y0017710D01*
X0033376Y0017710D01*
X0033376Y0016968D01*
X0032556Y0016148D01*
X0028247Y0016148D01*
X0027427Y0016968D01*
X0027427Y0022852D01*
X0028124Y0023550D01*
X0025592Y0023550D01*
X0026290Y0022852D01*
X0026290Y0016968D01*
X0025470Y0016148D01*
X0021160Y0016148D01*
X0020340Y0016968D01*
X0020340Y0017171D01*
X0016161Y0012992D01*
X0016446Y0012303D01*
X0016446Y0010274D01*
X0015670Y0008399D01*
X0014235Y0006965D01*
X0012361Y0006188D01*
X0010332Y0006188D01*
X0008458Y0006965D01*
X0007023Y0008399D01*
X0006246Y0010274D01*
X0006246Y0012303D01*
X0007023Y0014177D01*
X0008458Y0015612D01*
X0010091Y0016288D01*
X0008458Y0016965D01*
X0007023Y0018399D01*
X0006246Y0020274D01*
X0006246Y0022303D01*
X0007023Y0024177D01*
X0008458Y0025612D01*
X0010091Y0026288D01*
X0008458Y0026965D01*
X0007023Y0028399D01*
X0006246Y0030274D01*
X0006246Y0032303D01*
X0007023Y0034177D01*
X0008458Y0035612D01*
X0009849Y0036188D01*
X0007067Y0036188D01*
X0006246Y0037008D01*
X0006246Y0045568D01*
X0007067Y0046388D01*
X0015626Y0046388D01*
X0016446Y0045568D01*
X0016446Y0037661D01*
X0020149Y0037661D01*
X0020924Y0038436D01*
X0025913Y0038436D01*
X0025703Y0038943D01*
X0025703Y0039573D01*
X0020924Y0039573D01*
X0020104Y0040393D01*
X0020104Y0044703D01*
X0020170Y0044769D01*
X0020170Y0046975D01*
X0019231Y0046975D01*
X0018630Y0047576D01*
X0018029Y0046975D01*
X0011751Y0046975D01*
X0010931Y0047795D01*
X0010931Y0055254D01*
X0011557Y0055880D01*
X0011430Y0056007D01*
X0010304Y0057132D01*
X0006042Y0057132D01*
X0005222Y0057952D01*
X0005222Y0064230D01*
X0005547Y0064555D01*
X0005517Y0064572D01*
X0005182Y0064907D01*
X0004945Y0065318D01*
X0004822Y0065776D01*
X0004822Y0068092D01*
X0009292Y0068092D01*
X0009292Y0069051D01*
X0004822Y0069051D01*
X0004822Y0071368D01*
X0004945Y0071825D01*
X0005182Y0072236D01*
X0005517Y0072571D01*
X0005927Y0072808D01*
X0006057Y0072843D01*
X0005730Y0073170D01*
X0005231Y0074376D01*
X0005231Y0075681D01*
X0005730Y0076887D01*
X0006127Y0077284D01*
X0005419Y0077992D01*
X0005419Y0083876D01*
X0006239Y0084696D01*
X0012123Y0084696D01*
X0012943Y0083876D01*
X0012943Y0077992D01*
X0012123Y0077172D01*
X0011009Y0077172D01*
X0011293Y0076887D01*
X0011793Y0075681D01*
X0011793Y0074376D01*
X0011293Y0073170D01*
X0011054Y0072931D01*
X0013158Y0072931D01*
X0013616Y0072808D01*
X0014026Y0072571D01*
X0014362Y0072236D01*
X0014465Y0072056D01*
X0014940Y0072531D01*
X0016942Y0072531D01*
X0016942Y0073577D01*
X0018230Y0074866D01*
X0020199Y0076835D01*
X0021694Y0076835D01*
X0021639Y0076889D01*
X0021639Y0078719D01*
X0021211Y0078719D01*
X0021211Y0077992D01*
X0020391Y0077172D01*
X0014507Y0077172D01*
X0013687Y0077992D01*
X0013687Y0083876D01*
X0014507Y0084696D01*
X0020391Y0084696D01*
X0021211Y0083876D01*
X0021211Y0082519D01*
X0021639Y0082519D01*
X0021639Y0084348D01*
X0022459Y0085168D01*
X0028737Y0085168D01*
X0029339Y0084567D01*
X0029940Y0085168D01*
X0036218Y0085168D01*
X0037038Y0084348D01*
X0037038Y0082819D01*
X0038828Y0082819D01*
X0039330Y0083322D01*
X0040536Y0083821D01*
X0041842Y0083821D01*
X0043048Y0083322D01*
X0043971Y0082399D01*
X0044470Y0081193D01*
X0044470Y0079888D01*
X0043971Y0078682D01*
X0043389Y0078100D01*
X0043389Y0076835D01*
X0046825Y0076835D01*
X0048399Y0075260D01*
X0049688Y0073971D01*
X0049688Y0072452D01*
X0050430Y0072452D01*
X0051250Y0071632D01*
X0051250Y0066597D01*
X0051633Y0066980D01*
X0052675Y0066980D01*
X0052675Y0067154D01*
X0053656Y0068135D01*
X0053656Y0069382D01*
X0054155Y0070588D01*
X0055078Y0071511D01*
X0056284Y0072010D01*
X0057590Y0072010D01*
X0058796Y0071511D01*
X0059481Y0070825D01*
X0059481Y0073105D01*
X0060301Y0073925D01*
X0068061Y0073925D01*
X0068881Y0073105D01*
X0068881Y0059870D01*
X0068921Y0059830D01*
X0069158Y0059420D01*
X0069281Y0058962D01*
X0069281Y0058175D01*
X0068111Y0058175D01*
X0068111Y0058175D01*
X0069281Y0058175D01*
X0069281Y0057388D01*
X0069158Y0056930D01*
X0068921Y0056520D01*
X0068881Y0056479D01*
X0068881Y0023645D01*
X0068061Y0022825D01*
X0060301Y0022825D01*
X0059481Y0023645D01*
X0059481Y0040575D01*
X0057995Y0040575D01*
X0056350Y0042220D01*
X0055397Y0042220D01*
X0055887Y0041035D01*
X0055887Y0039730D01*
X0055388Y0038524D01*
X0054465Y0037601D01*
X0053259Y0037102D01*
X0051954Y0037102D01*
X0050748Y0037601D01*
X0049866Y0038483D01*
X0048293Y0038483D01*
X0049347Y0038046D01*
X0050270Y0037123D01*
X0050769Y0035917D01*
X0050769Y0034612D01*
X0050270Y0033406D01*
X0049676Y0032812D01*
X0049676Y0029055D01*
X0048855Y0028235D01*
X0046121Y0028235D01*
X0045301Y0029055D01*
X0045301Y0032812D01*
X0044707Y0033406D01*
X0044207Y0034612D01*
X0044207Y0035917D01*
X0044707Y0037123D01*
X0045630Y0038046D01*
X0046684Y0038483D01*
X0045204Y0038483D01*
X0043022Y0036300D01*
X0043022Y0034842D01*
X0042370Y0034191D01*
X0043394Y0034191D01*
X0043852Y0034068D01*
X0044263Y0033831D01*
X0044598Y0033496D01*
X0044835Y0033085D01*
X0044957Y0032628D01*
X0044957Y0031013D01*
X0042370Y0031013D01*
X0042370Y0031013D01*
X0039783Y0031013D01*
X0039783Y0032628D01*
X0039905Y0033085D01*
X0040142Y0033496D01*
X0040477Y0033831D01*
X0040809Y0034022D01*
X0038286Y0034022D01*
X0037466Y0034842D01*
X0037466Y0037577D01*
X0038286Y0038397D01*
X0039745Y0038397D01*
X0040088Y0038740D01*
X0038629Y0038740D01*
X0038171Y0038863D01*
X0037761Y0039100D01*
X0037426Y0039435D01*
X0037189Y0039845D01*
X0037066Y0040303D01*
X0037066Y0041327D01*
X0040244Y0041327D01*
X0040244Y0041328D01*
X0040244Y0043915D01*
X0038629Y0043915D01*
X0038171Y0043792D01*
X0037761Y0043555D01*
X0037426Y0043220D01*
X0037189Y0042810D01*
X0037066Y0042352D01*
X0037066Y0041328D01*
X0040244Y0041328D01*
X0040244Y0041328D01*
X0040244Y0043915D01*
X0041859Y0043915D01*
X0042317Y0043792D01*
X0042727Y0043555D01*
X0043062Y0043220D01*
X0043299Y0042810D01*
X0043422Y0042352D01*
X0043422Y0042074D01*
X0043630Y0042283D01*
X0049866Y0042283D01*
X0050748Y0043164D01*
X0051954Y0043664D01*
X0052965Y0043664D01*
X0052475Y0044848D01*
X0052475Y0046153D01*
X0052974Y0047359D01*
X0053897Y0048282D01*
X0055103Y0048782D01*
X0056409Y0048782D01*
X0057614Y0048282D01*
X0058537Y0047359D01*
X0059037Y0046153D01*
X0059037Y0044907D01*
X0059481Y0044463D01*
X0059481Y0056479D01*
X0059441Y0056520D01*
X0059204Y0056930D01*
X0059081Y0057388D01*
X0059081Y0058175D01*
X0060251Y0058175D01*
X0059081Y0058175D01*
X0059081Y0058275D01*
X0058799Y0058275D01*
X0058737Y0058337D01*
X0058737Y0056918D01*
X0054575Y0056918D01*
X0054575Y0056918D01*
X0054575Y0053543D01*
X0057174Y0053543D01*
X0057632Y0053666D01*
X0058042Y0053903D01*
X0058377Y0054238D01*
X0058614Y0054649D01*
X0058737Y0055106D01*
X0058737Y0056918D01*
X0054575Y0056918D01*
X0054575Y0056918D01*
X0054575Y0056918D01*
X0054575Y0060293D01*
X0057006Y0060293D01*
X0057006Y0061030D01*
X0051633Y0061030D01*
X0051250Y0061412D01*
X0051250Y0060016D01*
X0051518Y0060170D01*
X0051976Y0060293D01*
X0054575Y0060293D01*
X0054575Y0056918D01*
X0054575Y0053543D01*
X0051976Y0053543D01*
X0051518Y0053666D01*
X0051250Y0053820D01*
X0051250Y0047165D01*
X0050430Y0046345D01*
X0044152Y0046345D01*
X0043551Y0046946D01*
X0042950Y0046345D01*
X0036672Y0046345D01*
X0035852Y0047165D01*
X0035852Y0048694D01*
X0035053Y0048694D01*
X0034785Y0048427D01*
X0034785Y0047604D01*
X0034286Y0046398D01*
X0033363Y0045475D01*
X0032763Y0045227D01*
X0034475Y0043515D01*
X0035509Y0043515D01*
X0036329Y0042695D01*
X0036329Y0034842D01*
X0035509Y0034022D01*
X0034475Y0034022D01*
X0034413Y0033960D01*
X0033124Y0032671D01*
X0031424Y0032671D01*
X0031402Y0032649D01*
X0036493Y0032649D01*
X0037313Y0031829D01*
X0037313Y0027251D01*
X0039398Y0025167D01*
X0039461Y0025231D01*
X0040183Y0025952D01*
X0040183Y0026278D01*
X0041003Y0027098D01*
X0048855Y0027098D01*
X0049676Y0026278D01*
X0049676Y0025244D01*
X0049688Y0025231D01*
X0049688Y0017424D01*
X0045503Y0013239D01*
X0046139Y0013239D01*
X0046464Y0012915D01*
X0046481Y0012945D01*
X0046816Y0013280D01*
X0047226Y0013517D01*
X0047684Y0013639D01*
X0050001Y0013639D01*
X0050001Y0009169D01*
X0050960Y0009169D01*
X0054839Y0009169D01*
X0054839Y0012076D01*
X0054717Y0012534D01*
X0054480Y0012945D01*
X0054145Y0013280D01*
X0053734Y0013517D01*
X0053276Y0013639D01*
X0050960Y0013639D01*
X0050960Y0009169D01*
X0050960Y0008210D01*
X0054839Y0008210D01*
X0054839Y0005303D01*
X0054717Y0004845D01*
X0054480Y0004435D01*
X0054145Y0004100D01*
X0073745Y0004100D01*
X0073607Y0004238D01*
X0073370Y0004649D01*
X0073247Y0005106D01*
X0073247Y0007705D01*
X0076622Y0007705D01*
X0076622Y0007706D01*
X0073247Y0007706D01*
X0073247Y0009743D01*
X0072276Y0009743D01*
X0071394Y0008861D01*
X0070188Y0008361D01*
X0068883Y0008361D01*
X0067677Y0008861D01*
X0066754Y0009784D01*
X0066254Y0010990D01*
X0066254Y0012295D01*
X0066754Y0013501D01*
X0067677Y0014424D01*
X0068631Y0014819D01*
X0068631Y0022255D01*
X0069451Y0023075D01*
X0074786Y0023075D01*
X0074826Y0023115D01*
X0075236Y0023352D01*
X0075694Y0023475D01*
X0076481Y0023475D01*
X0076481Y0018375D01*
X0076481Y0018375D01*
X0076481Y0023475D01*
X0077268Y0023475D01*
X0077726Y0023352D01*
X0078136Y0023115D01*
X0078177Y0023075D01*
X0114186Y0023075D01*
X0114226Y0023115D01*
X0114636Y0023352D01*
X0115094Y0023475D01*
X0115881Y0023475D01*
X0115881Y0022305D01*
X0115881Y0022305D01*
X0115881Y0023475D01*
X0116668Y0023475D01*
X0117126Y0023352D01*
X0117536Y0023115D01*
X0117577Y0023075D01*
X0118911Y0023075D01*
X0119731Y0022255D01*
X0119731Y0014495D01*
X0118911Y0013675D01*
X0117577Y0013675D01*
X0117536Y0013634D01*
X0117126Y0013397D01*
X0116668Y0013275D01*
X0115881Y0013275D01*
X0115881Y0014445D01*
X0115881Y0014445D01*
X0115881Y0013275D01*
X0115587Y0013275D01*
X0113583Y0011271D01*
X0113723Y0011351D01*
X0114180Y0011474D01*
X0115992Y0011474D01*
X0115992Y0007312D01*
X0115992Y0007312D01*
X0115992Y0007312D01*
X0112617Y0007312D01*
X0112617Y0009911D01*
X0112740Y0010369D01*
X0112821Y0010508D01*
X0112055Y0009743D01*
X0111880Y0009743D01*
X0111880Y0004370D01*
X0111611Y0004100D01*
X0112829Y0004100D01*
X0112740Y0004255D01*
X0112617Y0004713D01*
X0112617Y0007312D01*
X0115992Y0007312D01*
X0115992Y0011474D01*
X0117804Y0011474D01*
X0118262Y0011351D01*
X0118672Y0011114D01*
X0119007Y0010779D01*
X0119244Y0010369D01*
X0119367Y0009911D01*
X0119367Y0007312D01*
X0115992Y0007312D01*
X0115992Y0007312D01*
X0119367Y0007312D01*
X0119367Y0004713D01*
X0119244Y0004255D01*
X0119155Y0004100D01*
X0184558Y0004100D01*
X0184558Y0029096D01*
X0181350Y0025888D01*
X0180237Y0024775D01*
X0128881Y0024775D01*
X0128881Y0023645D01*
X0128061Y0022825D01*
X0120301Y0022825D01*
X0119481Y0023645D01*
X0119481Y0073105D01*
X0120301Y0073925D01*
X0128061Y0073925D01*
X0128881Y0073105D01*
X0128881Y0072206D01*
X0129352Y0073344D01*
X0130275Y0074267D01*
X0131481Y0074766D01*
X0132787Y0074766D01*
X0133992Y0074267D01*
X0134915Y0073344D01*
X0135415Y0072138D01*
X0135415Y0070832D01*
X0134915Y0069626D01*
X0133992Y0068703D01*
X0132926Y0068262D01*
X0134034Y0067154D01*
X0134034Y0066561D01*
X0134661Y0068075D01*
X0136095Y0069509D01*
X0137970Y0070286D01*
X0139999Y0070286D01*
X0141873Y0069509D01*
X0143308Y0068075D01*
X0143984Y0066442D01*
X0144661Y0068075D01*
X0146095Y0069509D01*
X0147970Y0070286D01*
X0149999Y0070286D01*
X0151873Y0069509D01*
X0153308Y0068075D01*
X0153984Y0066442D01*
X0154661Y0068075D01*
X0156095Y0069509D01*
X0157970Y0070286D01*
X0159999Y0070286D01*
X0161873Y0069509D01*
X0163308Y0068075D01*
X0163984Y0066442D01*
X0164661Y0068075D01*
X0166095Y0069509D01*
X0167970Y0070286D01*
X0169999Y0070286D01*
X0171873Y0069509D01*
X0173308Y0068075D01*
X0173774Y0066949D01*
X0173887Y0067297D01*
X0174280Y0068068D01*
X0174789Y0068769D01*
X0175401Y0069381D01*
X0176102Y0069890D01*
X0176873Y0070283D01*
X0177696Y0070550D01*
X0178551Y0070686D01*
X0178784Y0070686D01*
X0178784Y0065386D01*
X0179184Y0065386D01*
X0179184Y0070686D01*
X0179417Y0070686D01*
X0180272Y0070550D01*
X0181096Y0070283D01*
X0181867Y0069890D01*
X0182567Y0069381D01*
X0183179Y0068769D01*
X0183688Y0068068D01*
X0184081Y0067297D01*
X0184349Y0066474D01*
X0184484Y0065619D01*
X0184484Y0065386D01*
X0179184Y0065386D01*
X0179184Y0064986D01*
X0179184Y0059686D01*
X0179417Y0059686D01*
X0180272Y0059821D01*
X0181096Y0060089D01*
X0181867Y0060482D01*
X0182567Y0060991D01*
X0183179Y0061603D01*
X0183688Y0062303D01*
X0184081Y0063075D01*
X0184349Y0063898D01*
X0184484Y0064753D01*
X0184484Y0064986D01*
X0179184Y0064986D01*
X0178784Y0064986D01*
X0178784Y0059686D01*
X0178551Y0059686D01*
X0177696Y0059821D01*
X0176873Y0060089D01*
X0176102Y0060482D01*
X0175401Y0060991D01*
X0174789Y0061603D01*
X0174280Y0062303D01*
X0173887Y0063075D01*
X0173774Y0063423D01*
X0173308Y0062297D01*
X0171873Y0060862D01*
X0170884Y0060453D01*
X0170884Y0057548D01*
X0169667Y0056331D01*
X0169667Y0055084D01*
X0169257Y0054094D01*
X0179771Y0054094D01*
X0180884Y0052981D01*
X0180884Y0052981D01*
X0184102Y0049763D01*
X0184102Y0049763D01*
X0184558Y0049307D01*
X0184558Y0073652D01*
X0184522Y0073563D01*
X0183599Y0072640D01*
X0182393Y0072141D01*
X0181087Y0072141D01*
X0179882Y0072640D01*
X0178959Y0073563D01*
X0178459Y0074769D01*
X0178459Y0076016D01*
X0177919Y0076557D01*
X0177557Y0076557D01*
X0177257Y0076257D01*
X0172497Y0076257D01*
X0172197Y0076557D01*
X0170157Y0076557D01*
X0169857Y0076257D01*
X0165097Y0076257D01*
X0164349Y0077005D01*
X0164349Y0076194D01*
X0165042Y0075501D01*
X0165097Y0075557D01*
X0169857Y0075557D01*
X0170677Y0074737D01*
X0170677Y0071977D01*
X0169857Y0071157D01*
X0165097Y0071157D01*
X0164945Y0071309D01*
X0164307Y0070672D01*
X0163101Y0070172D01*
X0161796Y0070172D01*
X0160590Y0070672D01*
X0159709Y0071554D01*
X0154267Y0071554D01*
X0153569Y0071490D01*
X0153493Y0071554D01*
X0153394Y0071554D01*
X0152899Y0072049D01*
X0152360Y0072498D01*
X0152351Y0072596D01*
X0152281Y0072667D01*
X0152281Y0073367D01*
X0152222Y0074022D01*
X0149507Y0074022D01*
X0148687Y0074842D01*
X0148687Y0079821D01*
X0147550Y0079821D01*
X0147550Y0074842D01*
X0146730Y0074022D01*
X0142420Y0074022D01*
X0141600Y0074842D01*
X0141600Y0075884D01*
X0138433Y0075884D01*
X0137320Y0076997D01*
X0136271Y0078046D01*
X0135025Y0078046D01*
X0133819Y0078546D01*
X0132896Y0079469D01*
X0132396Y0080675D01*
X0132396Y0081980D01*
X0132896Y0083186D01*
X0133777Y0084068D01*
X0133777Y0087813D01*
X0133180Y0087813D01*
X0133180Y0085984D01*
X0132359Y0085164D01*
X0126082Y0085164D01*
X0125757Y0085488D01*
X0125740Y0085459D01*
X0125404Y0085123D01*
X0124994Y0084886D01*
X0124536Y0084764D01*
X0122220Y0084764D01*
X0122220Y0089234D01*
X0121261Y0089234D01*
X0121261Y0084764D01*
X0118944Y0084764D01*
X0118486Y0084886D01*
X0118076Y0085123D01*
X0117741Y0085459D01*
X0117504Y0085869D01*
X0117381Y0086327D01*
X0117381Y0087304D01*
X0117081Y0087131D01*
X0116623Y0087008D01*
X0114811Y0087008D01*
X0114811Y0091170D01*
X0114811Y0091170D01*
X0114811Y0087008D01*
X0114574Y0087008D01*
X0115781Y0085800D01*
X0115781Y0083475D01*
X0115881Y0083475D01*
X0115881Y0082305D01*
X0115881Y0082305D01*
X0115881Y0083475D01*
X0116668Y0083475D01*
X0117126Y0083352D01*
X0117536Y0083115D01*
X0117577Y0083075D01*
X0118911Y0083075D01*
X0119731Y0082255D01*
X0119731Y0080275D01*
X0119798Y0080275D01*
X0119798Y0080799D01*
X0120297Y0082005D01*
X0121220Y0082928D01*
X0122426Y0083428D01*
X0123731Y0083428D01*
X0124937Y0082928D01*
X0125860Y0082005D01*
X0126360Y0080799D01*
X0126360Y0079494D01*
X0125860Y0078288D01*
X0124937Y0077365D01*
X0123731Y0076865D01*
X0122485Y0076865D01*
X0122094Y0076475D01*
X0119731Y0076475D01*
X0119731Y0074495D01*
X0118911Y0073675D01*
X0117577Y0073675D01*
X0117536Y0073634D01*
X0117126Y0073397D01*
X0116668Y0073275D01*
X0115881Y0073275D01*
X0115881Y0074445D01*
X0115881Y0074445D01*
X0115881Y0073275D01*
X0115094Y0073275D01*
X0114636Y0073397D01*
X0114226Y0073634D01*
X0114186Y0073675D01*
X0069451Y0073675D01*
X0068631Y0074495D01*
X0068631Y0082255D01*
X0069451Y0083075D01*
X0089400Y0083075D01*
X0089089Y0083825D01*
X0089089Y0085130D01*
X0089588Y0086336D01*
X0089767Y0086514D01*
X0087777Y0086514D01*
X0087777Y0085793D01*
X0087278Y0084587D01*
X0086355Y0083664D01*
X0085149Y0083165D01*
X0083843Y0083165D01*
X0082637Y0083664D01*
X0081714Y0084587D01*
X0081215Y0085793D01*
X0081215Y0087098D01*
X0081714Y0088304D01*
X0082637Y0089227D01*
X0083843Y0089727D01*
X0085090Y0089727D01*
X0085678Y0090314D01*
X0095913Y0090314D01*
X0097026Y0089201D01*
X0097881Y0088346D01*
X0100851Y0088346D01*
X0100748Y0088388D01*
X0099825Y0089311D01*
X0099325Y0090517D01*
X0099325Y0091823D01*
X0099825Y0093029D01*
X0100748Y0093952D01*
X0100836Y0093988D01*
X0004119Y0093988D01*
X0004119Y0092915D02*
X0051332Y0092915D01*
X0051828Y0093120D02*
X0049954Y0092344D01*
X0048519Y0090909D01*
X0047743Y0089035D01*
X0047743Y0087006D01*
X0048519Y0085132D01*
X0049954Y0083697D01*
X0051828Y0082920D01*
X0053857Y0082920D01*
X0055731Y0083697D01*
X0057166Y0085132D01*
X0057843Y0086765D01*
X0058519Y0085132D01*
X0059954Y0083697D01*
X0061828Y0082920D01*
X0063857Y0082920D01*
X0065731Y0083697D01*
X0067166Y0085132D01*
X0067943Y0087006D01*
X0067943Y0089035D01*
X0067166Y0090909D01*
X0065731Y0092344D01*
X0063857Y0093120D01*
X0061828Y0093120D01*
X0059954Y0092344D01*
X0058519Y0090909D01*
X0057843Y0089276D01*
X0057166Y0090909D01*
X0055731Y0092344D01*
X0053857Y0093120D01*
X0051828Y0093120D01*
X0054353Y0092915D02*
X0061332Y0092915D01*
X0058926Y0091317D02*
X0056759Y0091317D01*
X0057660Y0089718D02*
X0058026Y0089718D01*
X0057943Y0086521D02*
X0057742Y0086521D01*
X0056957Y0084923D02*
X0058728Y0084923D01*
X0060854Y0083324D02*
X0054831Y0083324D01*
X0050854Y0083324D02*
X0043042Y0083324D01*
X0044249Y0081726D02*
X0068631Y0081726D01*
X0068631Y0080127D02*
X0044470Y0080127D01*
X0043818Y0078529D02*
X0068631Y0078529D01*
X0068631Y0076930D02*
X0043389Y0076930D01*
X0041189Y0074635D02*
X0041189Y0080540D01*
X0041110Y0080619D01*
X0033079Y0080619D01*
X0037038Y0083324D02*
X0039336Y0083324D01*
X0036464Y0084923D02*
X0048728Y0084923D01*
X0047943Y0086521D02*
X0004119Y0086521D01*
X0004119Y0088120D02*
X0047743Y0088120D01*
X0048026Y0089718D02*
X0004119Y0089718D01*
X0004119Y0091317D02*
X0048926Y0091317D01*
X0064353Y0092915D02*
X0099778Y0092915D01*
X0099325Y0091317D02*
X0066759Y0091317D01*
X0067660Y0089718D02*
X0083823Y0089718D01*
X0081638Y0088120D02*
X0067943Y0088120D01*
X0067742Y0086521D02*
X0081215Y0086521D01*
X0081575Y0084923D02*
X0066957Y0084923D01*
X0064831Y0083324D02*
X0083458Y0083324D01*
X0085534Y0083324D02*
X0089296Y0083324D01*
X0089089Y0084923D02*
X0087417Y0084923D01*
X0096509Y0089718D02*
X0099656Y0089718D01*
X0110699Y0089718D02*
X0111436Y0089718D01*
X0111436Y0088571D02*
X0111497Y0088346D01*
X0110699Y0088346D01*
X0110699Y0093988D01*
X0111495Y0093988D01*
X0111436Y0093769D01*
X0111436Y0091170D01*
X0111436Y0088571D01*
X0114811Y0088120D02*
X0114811Y0088120D01*
X0115060Y0086521D02*
X0117381Y0086521D01*
X0118424Y0084923D02*
X0115781Y0084923D01*
X0115881Y0083324D02*
X0115881Y0083324D01*
X0117174Y0083324D02*
X0122176Y0083324D01*
X0123981Y0083324D02*
X0133034Y0083324D01*
X0132396Y0081726D02*
X0125976Y0081726D01*
X0126360Y0080127D02*
X0132623Y0080127D01*
X0133861Y0078529D02*
X0125960Y0078529D01*
X0123888Y0076930D02*
X0137388Y0076930D01*
X0134526Y0073733D02*
X0152248Y0073733D01*
X0152796Y0072134D02*
X0135415Y0072134D01*
X0135292Y0070536D02*
X0160918Y0070536D01*
X0162445Y0068937D02*
X0165523Y0068937D01*
X0163979Y0070536D02*
X0177652Y0070536D01*
X0177372Y0070879D02*
X0176914Y0070757D01*
X0174877Y0070757D01*
X0174877Y0073357D01*
X0174877Y0075957D01*
X0172840Y0075957D01*
X0172382Y0075834D01*
X0171972Y0075597D01*
X0171637Y0075262D01*
X0171400Y0074851D01*
X0171277Y0074394D01*
X0171277Y0073357D01*
X0174877Y0073357D01*
X0174877Y0073357D01*
X0174877Y0073357D01*
X0174877Y0075957D01*
X0176914Y0075957D01*
X0177372Y0075834D01*
X0177782Y0075597D01*
X0178118Y0075262D01*
X0178354Y0074851D01*
X0178477Y0074394D01*
X0178477Y0073357D01*
X0174877Y0073357D01*
X0174877Y0073357D01*
X0171277Y0073357D01*
X0171277Y0072320D01*
X0171400Y0071862D01*
X0171637Y0071451D01*
X0171972Y0071116D01*
X0172382Y0070879D01*
X0172840Y0070757D01*
X0174877Y0070757D01*
X0174877Y0073357D01*
X0174877Y0073357D01*
X0178477Y0073357D01*
X0178477Y0072320D01*
X0178354Y0071862D01*
X0178118Y0071451D01*
X0177782Y0071116D01*
X0177372Y0070879D01*
X0178784Y0070536D02*
X0179184Y0070536D01*
X0180316Y0070536D02*
X0184558Y0070536D01*
X0184558Y0068937D02*
X0183011Y0068937D01*
X0184060Y0067339D02*
X0184558Y0067339D01*
X0184558Y0065740D02*
X0184465Y0065740D01*
X0184387Y0064142D02*
X0184558Y0064142D01*
X0184558Y0062543D02*
X0183811Y0062543D01*
X0184558Y0060945D02*
X0182504Y0060945D01*
X0184558Y0059346D02*
X0170884Y0059346D01*
X0170884Y0057748D02*
X0184558Y0057748D01*
X0184558Y0056149D02*
X0169667Y0056149D01*
X0169446Y0054551D02*
X0184558Y0054551D01*
X0184558Y0052952D02*
X0180913Y0052952D01*
X0182511Y0051354D02*
X0184558Y0051354D01*
X0184558Y0049755D02*
X0184110Y0049755D01*
X0169614Y0045816D02*
X0169535Y0045737D01*
X0171956Y0060945D02*
X0175464Y0060945D01*
X0174158Y0062543D02*
X0173410Y0062543D01*
X0178784Y0062543D02*
X0179184Y0062543D01*
X0179184Y0060945D02*
X0178784Y0060945D01*
X0178784Y0064142D02*
X0179184Y0064142D01*
X0179184Y0065740D02*
X0178784Y0065740D01*
X0178784Y0067339D02*
X0179184Y0067339D01*
X0179184Y0068937D02*
X0178784Y0068937D01*
X0174958Y0068937D02*
X0172445Y0068937D01*
X0173613Y0067339D02*
X0173909Y0067339D01*
X0174877Y0072134D02*
X0174877Y0072134D01*
X0174877Y0073733D02*
X0174877Y0073733D01*
X0174877Y0075332D02*
X0174877Y0075332D01*
X0171706Y0075332D02*
X0170082Y0075332D01*
X0170677Y0073733D02*
X0171277Y0073733D01*
X0171327Y0072134D02*
X0170677Y0072134D01*
X0178428Y0072134D02*
X0184558Y0072134D01*
X0178888Y0073733D02*
X0178477Y0073733D01*
X0178459Y0075332D02*
X0178048Y0075332D01*
X0164424Y0076930D02*
X0164349Y0076930D01*
X0155523Y0068937D02*
X0152445Y0068937D01*
X0153613Y0067339D02*
X0154356Y0067339D01*
X0145523Y0068937D02*
X0142445Y0068937D01*
X0143613Y0067339D02*
X0144356Y0067339D01*
X0135523Y0068937D02*
X0134226Y0068937D01*
X0134356Y0067339D02*
X0133849Y0067339D01*
X0129742Y0073733D02*
X0128253Y0073733D01*
X0120109Y0073733D02*
X0118969Y0073733D01*
X0119731Y0075332D02*
X0141600Y0075332D01*
X0147550Y0075332D02*
X0148687Y0075332D01*
X0148687Y0076930D02*
X0147550Y0076930D01*
X0147550Y0078529D02*
X0148687Y0078529D01*
X0133777Y0084923D02*
X0125057Y0084923D01*
X0122220Y0084923D02*
X0121261Y0084923D01*
X0121261Y0086521D02*
X0122220Y0086521D01*
X0122220Y0088120D02*
X0121261Y0088120D01*
X0114811Y0089718D02*
X0114811Y0089718D01*
X0114811Y0091170D02*
X0111436Y0091170D01*
X0114811Y0091170D01*
X0114811Y0091170D01*
X0111436Y0091317D02*
X0110699Y0091317D01*
X0110699Y0092915D02*
X0111436Y0092915D01*
X0119731Y0081726D02*
X0120181Y0081726D01*
X0133180Y0086521D02*
X0133777Y0086521D01*
X0115881Y0073733D02*
X0115881Y0073733D01*
X0119481Y0072134D02*
X0068881Y0072134D01*
X0068881Y0070536D02*
X0119481Y0070536D01*
X0119481Y0068937D02*
X0068881Y0068937D01*
X0068881Y0067339D02*
X0119481Y0067339D01*
X0119481Y0065740D02*
X0068881Y0065740D01*
X0068881Y0064142D02*
X0119481Y0064142D01*
X0119481Y0062543D02*
X0068881Y0062543D01*
X0068881Y0060945D02*
X0119481Y0060945D01*
X0119481Y0059346D02*
X0069178Y0059346D01*
X0069281Y0057748D02*
X0119481Y0057748D01*
X0119481Y0056149D02*
X0068881Y0056149D01*
X0068881Y0054551D02*
X0119481Y0054551D01*
X0119481Y0052952D02*
X0068881Y0052952D01*
X0068881Y0051354D02*
X0119481Y0051354D01*
X0119481Y0049755D02*
X0068881Y0049755D01*
X0068881Y0048157D02*
X0119481Y0048157D01*
X0119481Y0046558D02*
X0068881Y0046558D01*
X0068881Y0044960D02*
X0119481Y0044960D01*
X0119481Y0043361D02*
X0068881Y0043361D01*
X0068881Y0041763D02*
X0119481Y0041763D01*
X0119481Y0040164D02*
X0068881Y0040164D01*
X0068881Y0038566D02*
X0119481Y0038566D01*
X0119481Y0036967D02*
X0068881Y0036967D01*
X0068881Y0035369D02*
X0119481Y0035369D01*
X0119481Y0033770D02*
X0068881Y0033770D01*
X0068881Y0032172D02*
X0119481Y0032172D01*
X0119481Y0030573D02*
X0068881Y0030573D01*
X0068881Y0028975D02*
X0119481Y0028975D01*
X0119481Y0027376D02*
X0068881Y0027376D01*
X0068881Y0025778D02*
X0119481Y0025778D01*
X0119481Y0024179D02*
X0068881Y0024179D01*
X0068957Y0022581D02*
X0049688Y0022581D01*
X0049688Y0024179D02*
X0059481Y0024179D01*
X0059481Y0025778D02*
X0049676Y0025778D01*
X0047488Y0024320D02*
X0047488Y0018335D01*
X0043157Y0014005D01*
X0043157Y0008847D01*
X0043000Y0008690D01*
X0032528Y0008690D01*
X0036487Y0011391D02*
X0039041Y0011391D01*
X0039611Y0012990D02*
X0035916Y0012990D01*
X0039761Y0014588D02*
X0017758Y0014588D01*
X0016162Y0012990D02*
X0021659Y0012990D01*
X0021088Y0011391D02*
X0016446Y0011391D01*
X0016247Y0009793D02*
X0018064Y0009793D01*
X0015888Y0008194D02*
X0015465Y0008194D01*
X0015467Y0006596D02*
X0013344Y0006596D01*
X0015829Y0004997D02*
X0004119Y0004997D01*
X0004119Y0006596D02*
X0009349Y0006596D01*
X0007228Y0008194D02*
X0004119Y0008194D01*
X0004119Y0009793D02*
X0006446Y0009793D01*
X0006246Y0011391D02*
X0004119Y0011391D01*
X0004119Y0012990D02*
X0006531Y0012990D01*
X0007434Y0014588D02*
X0004119Y0014588D01*
X0004119Y0016187D02*
X0009845Y0016187D01*
X0007637Y0017785D02*
X0004119Y0017785D01*
X0004119Y0019384D02*
X0006615Y0019384D01*
X0006246Y0020982D02*
X0004119Y0020982D01*
X0004119Y0022581D02*
X0006362Y0022581D01*
X0007025Y0024179D02*
X0004119Y0024179D01*
X0004119Y0025778D02*
X0008858Y0025778D01*
X0008046Y0027376D02*
X0004119Y0027376D01*
X0004119Y0028975D02*
X0006785Y0028975D01*
X0006246Y0030573D02*
X0004119Y0030573D01*
X0004119Y0032172D02*
X0006246Y0032172D01*
X0006854Y0033770D02*
X0004119Y0033770D01*
X0004119Y0035369D02*
X0008215Y0035369D01*
X0006287Y0036967D02*
X0004119Y0036967D01*
X0004119Y0038566D02*
X0006246Y0038566D01*
X0006246Y0040164D02*
X0004119Y0040164D01*
X0004119Y0041763D02*
X0006246Y0041763D01*
X0006246Y0043361D02*
X0004119Y0043361D01*
X0004119Y0044960D02*
X0006246Y0044960D01*
X0004119Y0046558D02*
X0020170Y0046558D01*
X0020170Y0044960D02*
X0016446Y0044960D01*
X0016446Y0043361D02*
X0020104Y0043361D01*
X0022370Y0044044D02*
X0022370Y0051524D01*
X0026329Y0051354D02*
X0029304Y0051354D01*
X0029304Y0050697D02*
X0028722Y0050115D01*
X0028223Y0048909D01*
X0028223Y0047604D01*
X0028672Y0046520D01*
X0027679Y0046520D01*
X0026682Y0045523D01*
X0024570Y0045523D01*
X0024570Y0046975D01*
X0025509Y0046975D01*
X0026329Y0047795D01*
X0026329Y0055254D01*
X0025509Y0056074D01*
X0019231Y0056074D01*
X0018630Y0055473D01*
X0018029Y0056074D01*
X0017090Y0056074D01*
X0017090Y0056401D01*
X0017822Y0057132D01*
X0022399Y0057132D01*
X0023219Y0057952D01*
X0023219Y0064230D01*
X0022618Y0064831D01*
X0023219Y0065433D01*
X0023219Y0071711D01*
X0022495Y0072435D01*
X0036655Y0072435D01*
X0035852Y0071632D01*
X0035852Y0067112D01*
X0035621Y0067512D01*
X0035286Y0067847D01*
X0034876Y0068084D01*
X0034418Y0068206D01*
X0031511Y0068206D01*
X0031511Y0064327D01*
X0030552Y0064327D01*
X0030552Y0068206D01*
X0027645Y0068206D01*
X0027187Y0068084D01*
X0026777Y0067847D01*
X0026442Y0067512D01*
X0026205Y0067101D01*
X0026082Y0066643D01*
X0026082Y0064327D01*
X0030552Y0064327D01*
X0030552Y0063368D01*
X0026082Y0063368D01*
X0026082Y0061051D01*
X0026205Y0060593D01*
X0026442Y0060183D01*
X0026777Y0059848D01*
X0026807Y0059831D01*
X0026482Y0059506D01*
X0026482Y0053228D01*
X0027302Y0052408D01*
X0029304Y0052408D01*
X0029304Y0050697D01*
X0028573Y0049755D02*
X0026329Y0049755D01*
X0026329Y0048157D02*
X0028223Y0048157D01*
X0028656Y0046558D02*
X0024570Y0046558D01*
X0026819Y0042548D02*
X0028591Y0044320D01*
X0030559Y0044320D01*
X0033551Y0041328D01*
X0036329Y0041763D02*
X0037066Y0041763D01*
X0037103Y0040164D02*
X0036329Y0040164D01*
X0036329Y0038566D02*
X0039913Y0038566D01*
X0037466Y0036967D02*
X0036329Y0036967D01*
X0036329Y0035369D02*
X0037466Y0035369D01*
X0040417Y0033770D02*
X0034223Y0033770D01*
X0032213Y0034871D02*
X0028984Y0034871D01*
X0032213Y0034871D02*
X0033551Y0036209D01*
X0036970Y0032172D02*
X0039783Y0032172D01*
X0039783Y0031013D02*
X0039783Y0029398D01*
X0039905Y0028940D01*
X0040142Y0028529D01*
X0040477Y0028194D01*
X0040888Y0027957D01*
X0041346Y0027835D01*
X0042370Y0027835D01*
X0042370Y0031012D01*
X0042370Y0031012D01*
X0042370Y0027835D01*
X0043394Y0027835D01*
X0043852Y0027957D01*
X0044263Y0028194D01*
X0044598Y0028529D01*
X0044835Y0028940D01*
X0044957Y0029398D01*
X0044957Y0031013D01*
X0042370Y0031013D01*
X0042370Y0031013D01*
X0039783Y0031013D01*
X0039783Y0030573D02*
X0037313Y0030573D01*
X0037313Y0028975D02*
X0039896Y0028975D01*
X0042370Y0028975D02*
X0042370Y0028975D01*
X0044844Y0028975D02*
X0045381Y0028975D01*
X0045301Y0030573D02*
X0044957Y0030573D01*
X0044957Y0032172D02*
X0045301Y0032172D01*
X0044556Y0033770D02*
X0044323Y0033770D01*
X0044207Y0035369D02*
X0043022Y0035369D01*
X0043689Y0036967D02*
X0044642Y0036967D01*
X0050334Y0036967D02*
X0059481Y0036967D01*
X0059481Y0035369D02*
X0050769Y0035369D01*
X0050421Y0033770D02*
X0059481Y0033770D01*
X0059481Y0032172D02*
X0049676Y0032172D01*
X0049676Y0030573D02*
X0059481Y0030573D01*
X0059481Y0028975D02*
X0049596Y0028975D01*
X0042370Y0030573D02*
X0042370Y0030573D01*
X0037313Y0027376D02*
X0059481Y0027376D01*
X0068631Y0020982D02*
X0049688Y0020982D01*
X0049688Y0019384D02*
X0068631Y0019384D01*
X0068631Y0017785D02*
X0049688Y0017785D01*
X0048451Y0016187D02*
X0068631Y0016187D01*
X0068073Y0014588D02*
X0046852Y0014588D01*
X0046526Y0012990D02*
X0046389Y0012990D01*
X0050001Y0012990D02*
X0050960Y0012990D01*
X0054435Y0012990D02*
X0066542Y0012990D01*
X0066254Y0011391D02*
X0054839Y0011391D01*
X0054839Y0009793D02*
X0066750Y0009793D01*
X0073247Y0008194D02*
X0054839Y0008194D01*
X0054839Y0006596D02*
X0073247Y0006596D01*
X0073277Y0004997D02*
X0054757Y0004997D01*
X0050960Y0009793D02*
X0050001Y0009793D01*
X0050001Y0011391D02*
X0050960Y0011391D01*
X0038201Y0016187D02*
X0032595Y0016187D01*
X0028208Y0016187D02*
X0025508Y0016187D01*
X0026290Y0017785D02*
X0027427Y0017785D01*
X0027427Y0019384D02*
X0026290Y0019384D01*
X0023315Y0019910D02*
X0019969Y0019910D01*
X0011346Y0011288D01*
X0018748Y0006524D02*
X0020913Y0008690D01*
X0025047Y0008690D01*
X0028436Y0012990D02*
X0029139Y0012990D01*
X0021122Y0016187D02*
X0019356Y0016187D01*
X0026290Y0020982D02*
X0027427Y0020982D01*
X0027427Y0022581D02*
X0026290Y0022581D01*
X0030402Y0019910D02*
X0037252Y0019910D01*
X0040008Y0022666D01*
X0038787Y0022666D01*
X0033354Y0028099D01*
X0038787Y0025778D02*
X0040008Y0025778D01*
X0041661Y0024320D02*
X0042370Y0024320D01*
X0041661Y0024320D02*
X0040008Y0022666D01*
X0025874Y0028099D02*
X0018157Y0028099D01*
X0011346Y0021288D01*
X0011346Y0031288D02*
X0015520Y0035461D01*
X0023866Y0035461D01*
X0025859Y0038566D02*
X0016446Y0038566D01*
X0016446Y0040164D02*
X0020333Y0040164D01*
X0020104Y0041763D02*
X0016446Y0041763D01*
X0022370Y0044044D02*
X0023866Y0042548D01*
X0026819Y0042548D01*
X0033030Y0044960D02*
X0052475Y0044960D01*
X0051223Y0043361D02*
X0042921Y0043361D01*
X0040244Y0043361D02*
X0040244Y0043361D01*
X0040244Y0041763D02*
X0040244Y0041763D01*
X0037567Y0043361D02*
X0035663Y0043361D01*
X0036459Y0046558D02*
X0034352Y0046558D01*
X0034785Y0048157D02*
X0035852Y0048157D01*
X0034142Y0050894D02*
X0039811Y0050894D01*
X0034142Y0050894D02*
X0031504Y0048257D01*
X0031504Y0055894D01*
X0031031Y0056367D01*
X0026482Y0056149D02*
X0017090Y0056149D01*
X0014890Y0055658D02*
X0013630Y0056918D01*
X0014496Y0056918D01*
X0018669Y0061091D01*
X0023219Y0060945D02*
X0026110Y0060945D01*
X0026082Y0062543D02*
X0023219Y0062543D01*
X0023219Y0064142D02*
X0030552Y0064142D01*
X0031511Y0064142D02*
X0035883Y0064142D01*
X0035852Y0064173D02*
X0036374Y0063650D01*
X0035981Y0063257D01*
X0035981Y0063368D01*
X0031511Y0063368D01*
X0031511Y0064327D01*
X0035852Y0064327D01*
X0035852Y0064173D01*
X0035852Y0067339D02*
X0035721Y0067339D01*
X0035852Y0068937D02*
X0023219Y0068937D01*
X0023219Y0070536D02*
X0035852Y0070536D01*
X0036355Y0072134D02*
X0022795Y0072134D01*
X0021110Y0074635D02*
X0019142Y0072666D01*
X0019142Y0069044D01*
X0018669Y0068572D01*
X0018748Y0068572D01*
X0023219Y0067339D02*
X0026342Y0067339D01*
X0026082Y0065740D02*
X0023219Y0065740D01*
X0030552Y0065740D02*
X0031511Y0065740D01*
X0031511Y0067339D02*
X0030552Y0067339D01*
X0039811Y0067902D02*
X0039811Y0059398D01*
X0047291Y0059398D02*
X0047291Y0050894D01*
X0051250Y0051354D02*
X0059481Y0051354D01*
X0059481Y0052952D02*
X0051250Y0052952D01*
X0054575Y0054551D02*
X0054575Y0054551D01*
X0054575Y0056149D02*
X0054575Y0056149D01*
X0054575Y0057748D02*
X0054575Y0057748D01*
X0054575Y0059346D02*
X0054575Y0059346D01*
X0057006Y0060945D02*
X0051250Y0060945D01*
X0058737Y0057748D02*
X0059081Y0057748D01*
X0060251Y0058175D02*
X0060251Y0058175D01*
X0059481Y0056149D02*
X0058737Y0056149D01*
X0058558Y0054551D02*
X0059481Y0054551D01*
X0059481Y0049755D02*
X0051250Y0049755D01*
X0051250Y0048157D02*
X0053772Y0048157D01*
X0052643Y0046558D02*
X0050644Y0046558D01*
X0043939Y0046558D02*
X0043163Y0046558D01*
X0055586Y0041763D02*
X0056807Y0041763D01*
X0055887Y0040164D02*
X0059481Y0040164D01*
X0059481Y0038566D02*
X0055405Y0038566D01*
X0059037Y0044960D02*
X0059481Y0044960D01*
X0059481Y0046558D02*
X0058869Y0046558D01*
X0059481Y0048157D02*
X0057740Y0048157D01*
X0026757Y0052952D02*
X0026329Y0052952D01*
X0026329Y0054551D02*
X0026482Y0054551D01*
X0026482Y0057748D02*
X0023014Y0057748D01*
X0023219Y0059346D02*
X0026482Y0059346D01*
X0014890Y0055658D02*
X0014890Y0051524D01*
X0010931Y0051354D02*
X0004119Y0051354D01*
X0004119Y0052952D02*
X0010931Y0052952D01*
X0010931Y0054551D02*
X0004119Y0054551D01*
X0004119Y0056149D02*
X0011287Y0056149D01*
X0013630Y0056918D02*
X0009772Y0060776D01*
X0009772Y0061091D01*
X0005222Y0060945D02*
X0004119Y0060945D01*
X0004119Y0062543D02*
X0005222Y0062543D01*
X0005222Y0064142D02*
X0004119Y0064142D01*
X0004119Y0065740D02*
X0004831Y0065740D01*
X0004822Y0067339D02*
X0004119Y0067339D01*
X0004119Y0068937D02*
X0009292Y0068937D01*
X0004822Y0070536D02*
X0004119Y0070536D01*
X0004119Y0072134D02*
X0005123Y0072134D01*
X0005497Y0073733D02*
X0004119Y0073733D01*
X0004119Y0075332D02*
X0005231Y0075332D01*
X0005773Y0076930D02*
X0004119Y0076930D01*
X0004119Y0078529D02*
X0005419Y0078529D01*
X0005419Y0080127D02*
X0004119Y0080127D01*
X0004119Y0081726D02*
X0005419Y0081726D01*
X0005419Y0083324D02*
X0004119Y0083324D01*
X0004119Y0084923D02*
X0022214Y0084923D01*
X0021639Y0083324D02*
X0021211Y0083324D01*
X0021211Y0078529D02*
X0021639Y0078529D01*
X0021639Y0076930D02*
X0011250Y0076930D01*
X0011793Y0075332D02*
X0018696Y0075332D01*
X0017097Y0073733D02*
X0011527Y0073733D01*
X0014420Y0072134D02*
X0014544Y0072134D01*
X0021110Y0074635D02*
X0041189Y0074635D01*
X0045913Y0074635D01*
X0047488Y0073060D01*
X0047488Y0068099D01*
X0047291Y0067902D01*
X0051250Y0067339D02*
X0052860Y0067339D01*
X0053656Y0068937D02*
X0051250Y0068937D01*
X0051250Y0070536D02*
X0054134Y0070536D01*
X0050748Y0072134D02*
X0059481Y0072134D01*
X0060109Y0073733D02*
X0049688Y0073733D01*
X0048328Y0075332D02*
X0068631Y0075332D01*
X0068253Y0073733D02*
X0069393Y0073733D01*
X0029694Y0084923D02*
X0028983Y0084923D01*
X0013687Y0083324D02*
X0012943Y0083324D01*
X0012943Y0081726D02*
X0013687Y0081726D01*
X0013687Y0080127D02*
X0012943Y0080127D01*
X0012943Y0078529D02*
X0013687Y0078529D01*
X0005222Y0059346D02*
X0004119Y0059346D01*
X0004119Y0057748D02*
X0005427Y0057748D01*
X0004119Y0049755D02*
X0010931Y0049755D01*
X0010931Y0048157D02*
X0004119Y0048157D01*
X0076481Y0022581D02*
X0076481Y0022581D01*
X0076481Y0020982D02*
X0076481Y0020982D01*
X0076481Y0019384D02*
X0076481Y0019384D01*
X0080381Y0013675D02*
X0081251Y0013675D01*
X0082481Y0013675D01*
X0082481Y0011758D01*
X0082771Y0011468D01*
X0081554Y0011468D01*
X0080734Y0010648D01*
X0080734Y0004763D01*
X0081397Y0004100D01*
X0079499Y0004100D01*
X0079637Y0004238D01*
X0079874Y0004649D01*
X0079997Y0005106D01*
X0079997Y0007705D01*
X0076622Y0007705D01*
X0076622Y0007706D01*
X0079997Y0007706D01*
X0079997Y0010305D01*
X0079874Y0010762D01*
X0079778Y0010930D01*
X0080381Y0011533D01*
X0080381Y0013675D01*
X0080381Y0012990D02*
X0082481Y0012990D01*
X0081477Y0011391D02*
X0080239Y0011391D01*
X0079997Y0009793D02*
X0080734Y0009793D01*
X0080734Y0008194D02*
X0079997Y0008194D01*
X0079997Y0006596D02*
X0080734Y0006596D01*
X0080734Y0004997D02*
X0079968Y0004997D01*
X0111880Y0004997D02*
X0112617Y0004997D01*
X0112617Y0006596D02*
X0111880Y0006596D01*
X0111880Y0008194D02*
X0112617Y0008194D01*
X0112617Y0009793D02*
X0112105Y0009793D01*
X0113703Y0011391D02*
X0113871Y0011391D01*
X0115992Y0011391D02*
X0115992Y0011391D01*
X0118113Y0011391D02*
X0134672Y0011391D01*
X0134672Y0009793D02*
X0119367Y0009793D01*
X0119367Y0008194D02*
X0134672Y0008194D01*
X0134672Y0006596D02*
X0119367Y0006596D01*
X0119367Y0004997D02*
X0158185Y0004997D01*
X0158484Y0004900D02*
X0157660Y0005168D01*
X0156889Y0005561D01*
X0156189Y0006069D01*
X0155576Y0006682D01*
X0155068Y0007382D01*
X0154675Y0008153D01*
X0154562Y0008501D01*
X0154095Y0007376D01*
X0152661Y0005941D01*
X0150786Y0005165D01*
X0148757Y0005165D01*
X0146883Y0005941D01*
X0145448Y0007376D01*
X0144872Y0008767D01*
X0144872Y0005985D01*
X0144052Y0005165D01*
X0135492Y0005165D01*
X0134672Y0005985D01*
X0134672Y0014544D01*
X0135492Y0015365D01*
X0144052Y0015365D01*
X0144872Y0014544D01*
X0144872Y0011762D01*
X0145448Y0013153D01*
X0146883Y0014588D01*
X0148757Y0015365D01*
X0150786Y0015365D01*
X0152661Y0014588D01*
X0156365Y0014588D01*
X0156189Y0014460D02*
X0155576Y0013848D01*
X0155068Y0013147D01*
X0154675Y0012376D01*
X0154562Y0012028D01*
X0154095Y0013153D01*
X0152661Y0014588D01*
X0154163Y0012990D02*
X0154987Y0012990D01*
X0156189Y0014460D02*
X0156889Y0014969D01*
X0157660Y0015362D01*
X0158484Y0015629D01*
X0159339Y0015765D01*
X0159572Y0015765D01*
X0159572Y0010465D01*
X0159972Y0010465D01*
X0159972Y0015765D01*
X0160205Y0015765D01*
X0161060Y0015629D01*
X0161883Y0015362D01*
X0162654Y0014969D01*
X0163355Y0014460D01*
X0163967Y0013848D01*
X0164476Y0013147D01*
X0164869Y0012376D01*
X0164982Y0012028D01*
X0165448Y0013153D01*
X0166883Y0014588D01*
X0168757Y0015365D01*
X0170786Y0015365D01*
X0172661Y0014588D01*
X0184558Y0014588D01*
X0184558Y0012990D02*
X0174163Y0012990D01*
X0174095Y0013153D02*
X0172661Y0014588D01*
X0174095Y0013153D02*
X0174872Y0011279D01*
X0174872Y0009250D01*
X0174095Y0007376D01*
X0172661Y0005941D01*
X0170786Y0005165D01*
X0168757Y0005165D01*
X0166883Y0005941D01*
X0165448Y0007376D01*
X0164982Y0008501D01*
X0164869Y0008153D01*
X0164476Y0007382D01*
X0163967Y0006682D01*
X0163355Y0006069D01*
X0162654Y0005561D01*
X0161883Y0005168D01*
X0161060Y0004900D01*
X0160205Y0004765D01*
X0159972Y0004765D01*
X0159972Y0010064D01*
X0159572Y0010064D01*
X0159572Y0004765D01*
X0159339Y0004765D01*
X0158484Y0004900D01*
X0159572Y0004997D02*
X0159972Y0004997D01*
X0161358Y0004997D02*
X0184558Y0004997D01*
X0184558Y0006596D02*
X0173315Y0006596D01*
X0174434Y0008194D02*
X0184558Y0008194D01*
X0184558Y0009793D02*
X0174872Y0009793D01*
X0174825Y0011391D02*
X0184558Y0011391D01*
X0184558Y0016187D02*
X0119731Y0016187D01*
X0119731Y0017785D02*
X0184558Y0017785D01*
X0184558Y0019384D02*
X0119731Y0019384D01*
X0119731Y0020982D02*
X0184558Y0020982D01*
X0184558Y0022581D02*
X0119405Y0022581D01*
X0115881Y0022581D02*
X0115881Y0022581D01*
X0128881Y0024179D02*
X0184558Y0024179D01*
X0184558Y0025778D02*
X0181239Y0025778D01*
X0182838Y0027376D02*
X0184558Y0027376D01*
X0184558Y0028975D02*
X0184436Y0028975D01*
X0166883Y0014588D02*
X0163178Y0014588D01*
X0164556Y0012990D02*
X0165380Y0012990D01*
X0159972Y0012990D02*
X0159572Y0012990D01*
X0159572Y0014588D02*
X0159972Y0014588D01*
X0159972Y0011391D02*
X0159572Y0011391D01*
X0159572Y0009793D02*
X0159972Y0009793D01*
X0159972Y0008194D02*
X0159572Y0008194D01*
X0159572Y0006596D02*
X0159972Y0006596D01*
X0163881Y0006596D02*
X0166228Y0006596D01*
X0165109Y0008194D02*
X0164882Y0008194D01*
X0155663Y0006596D02*
X0153315Y0006596D01*
X0154434Y0008194D02*
X0154661Y0008194D01*
X0146228Y0006596D02*
X0144872Y0006596D01*
X0144872Y0008194D02*
X0145109Y0008194D01*
X0144872Y0012990D02*
X0145380Y0012990D01*
X0144828Y0014588D02*
X0146883Y0014588D01*
X0134715Y0014588D02*
X0119731Y0014588D01*
X0115302Y0012990D02*
X0134672Y0012990D01*
X0115992Y0009793D02*
X0115992Y0009793D01*
X0115992Y0008194D02*
X0115992Y0008194D01*
X0163613Y0067339D02*
X0164356Y0067339D01*
D24*
X0162449Y0073454D03*
X0181740Y0075422D03*
X0154181Y0085658D03*
X0135677Y0081328D03*
X0123079Y0080146D03*
X0132134Y0071485D03*
X0131346Y0054950D03*
X0131346Y0050225D03*
X0131346Y0045501D03*
X0133709Y0037627D03*
X0166386Y0055737D03*
X0178197Y0034477D03*
X0100244Y0011643D03*
X0069535Y0011643D03*
X0041189Y0017548D03*
X0018748Y0006524D03*
X0028984Y0034871D03*
X0028984Y0039595D03*
X0031504Y0048257D03*
X0052606Y0040383D03*
X0055756Y0045501D03*
X0047488Y0035265D03*
X0007724Y0053769D03*
X0025047Y0070698D03*
X0008512Y0075028D03*
X0025835Y0088020D03*
X0041189Y0080540D03*
X0054969Y0075422D03*
X0056937Y0068729D03*
X0084496Y0086446D03*
X0092370Y0084477D03*
X0102606Y0091170D03*
X0174260Y0092351D03*
D25*
X0176425Y0090186D01*
X0176425Y0088552D01*
X0171425Y0088552D02*
X0168020Y0091957D01*
X0160874Y0091957D01*
X0154575Y0085658D01*
X0154181Y0085658D01*
X0162843Y0081721D02*
X0164024Y0082902D01*
X0165776Y0082902D01*
X0166425Y0083552D01*
X0162843Y0081721D02*
X0136071Y0081721D01*
X0135677Y0081328D01*
X0135677Y0089713D01*
X0129220Y0089713D01*
X0135677Y0088296D02*
X0135677Y0081328D01*
X0139220Y0077784D01*
X0144575Y0077784D01*
X0151661Y0077784D02*
X0153787Y0077784D01*
X0154181Y0073454D01*
X0162449Y0073454D01*
X0162449Y0078572D01*
X0164417Y0080540D01*
X0173413Y0080540D01*
X0176425Y0083552D01*
X0174877Y0078457D02*
X0167477Y0078457D01*
X0178706Y0078457D01*
X0181740Y0075422D01*
X0167477Y0073454D02*
X0167477Y0073357D01*
X0167477Y0073454D02*
X0162449Y0073454D01*
X0158984Y0065186D02*
X0158984Y0057391D01*
X0157331Y0055737D01*
X0136071Y0055737D01*
X0132134Y0059674D01*
X0132134Y0066367D01*
X0130426Y0068075D01*
X0124181Y0068075D01*
X0124181Y0070075D02*
X0130724Y0070075D01*
X0132134Y0071485D01*
X0123079Y0080146D02*
X0121307Y0078375D01*
X0117781Y0078375D01*
X0115881Y0078375D02*
X0115881Y0090100D01*
X0114811Y0091170D01*
X0107724Y0091170D02*
X0102606Y0091170D01*
X0097094Y0086446D02*
X0095126Y0088414D01*
X0086465Y0088414D01*
X0084496Y0086446D01*
X0092370Y0084477D02*
X0110480Y0084477D01*
X0111881Y0083076D01*
X0111881Y0078375D01*
X0113881Y0078375D02*
X0113881Y0085013D01*
X0112449Y0086446D01*
X0097094Y0086446D01*
X0058906Y0066761D02*
X0056937Y0068729D01*
X0054575Y0066367D01*
X0054575Y0064005D01*
X0058906Y0066761D02*
X0058906Y0060855D01*
X0059586Y0060175D01*
X0064181Y0060175D01*
X0064181Y0060068D01*
X0064181Y0058175D02*
X0064106Y0058099D01*
X0060087Y0058099D01*
X0058906Y0056918D01*
X0054575Y0056918D01*
X0055756Y0045501D02*
X0058782Y0042475D01*
X0064181Y0042475D01*
X0052606Y0040383D02*
X0044417Y0040383D01*
X0040244Y0036209D01*
X0033551Y0038769D02*
X0029811Y0038769D01*
X0028984Y0039595D01*
X0047488Y0035265D02*
X0047488Y0031013D01*
X0044929Y0024320D02*
X0044929Y0021288D01*
X0041189Y0017548D01*
X0069535Y0011643D02*
X0077803Y0011643D01*
X0078481Y0012320D01*
X0078481Y0018375D01*
X0084381Y0018375D02*
X0084381Y0012545D01*
X0085283Y0011643D01*
X0087646Y0011643D01*
X0083709Y0007706D01*
X0084381Y0008378D01*
X0087646Y0011643D02*
X0100244Y0011643D01*
X0093157Y0011643D01*
X0090281Y0014519D01*
X0090281Y0018375D01*
X0100244Y0011643D02*
X0104575Y0011643D01*
X0108906Y0007312D01*
X0111268Y0011643D02*
X0104575Y0011643D01*
X0111268Y0011643D02*
X0113881Y0014256D01*
X0113881Y0018375D01*
X0115881Y0018375D02*
X0115881Y0007423D01*
X0115992Y0007312D01*
X0124253Y0026603D02*
X0124181Y0026675D01*
X0179450Y0026675D01*
X0183315Y0030540D01*
X0183315Y0047863D01*
X0178984Y0052194D01*
X0165992Y0052194D01*
X0159614Y0045816D01*
X0169535Y0045737D02*
X0169535Y0037627D01*
X0162583Y0030675D01*
X0124181Y0030675D01*
X0124181Y0032675D02*
X0136473Y0032675D01*
X0149614Y0045816D01*
X0133709Y0037627D02*
X0132657Y0036575D01*
X0124181Y0036575D01*
X0124181Y0038575D02*
X0129539Y0038575D01*
X0131740Y0040776D01*
X0131740Y0045107D01*
X0131346Y0045501D01*
X0131346Y0050225D02*
X0131197Y0050375D01*
X0124181Y0050375D01*
X0124181Y0052275D02*
X0128278Y0052275D01*
X0130953Y0054950D01*
X0131346Y0054950D01*
X0166386Y0055737D02*
X0168984Y0058335D01*
X0168984Y0065186D01*
X0178197Y0034477D02*
X0178197Y0031328D01*
X0175441Y0028572D01*
X0124284Y0028572D01*
X0124181Y0028675D01*
X0033079Y0077942D02*
X0033079Y0080619D01*
X0025598Y0080619D02*
X0017449Y0080619D01*
X0017449Y0080934D01*
X0009181Y0080934D02*
X0008512Y0080265D01*
X0008512Y0075028D01*
X0008512Y0080934D02*
X0009181Y0080934D01*
M02*
