G75*
%MOIN*%
%OFA0B0*%
%FSLAX25Y25*%
%IPPOS*%
%LPD*%
%AMOC8*
5,1,8,0,0,1.08239X$1,22.5*
%
%ADD10C,0.00000*%
D10*
X0001819Y0001800D02*
X0001819Y0096288D01*
X0186858Y0096288D01*
X0186858Y0001800D01*
X0001819Y0001800D01*
X0159675Y0086052D02*
X0159677Y0086135D01*
X0159683Y0086218D01*
X0159693Y0086301D01*
X0159707Y0086383D01*
X0159724Y0086465D01*
X0159746Y0086545D01*
X0159771Y0086624D01*
X0159800Y0086702D01*
X0159833Y0086779D01*
X0159870Y0086854D01*
X0159909Y0086927D01*
X0159953Y0086998D01*
X0159999Y0087067D01*
X0160049Y0087134D01*
X0160102Y0087198D01*
X0160158Y0087260D01*
X0160217Y0087319D01*
X0160279Y0087375D01*
X0160343Y0087428D01*
X0160410Y0087478D01*
X0160479Y0087524D01*
X0160550Y0087568D01*
X0160623Y0087607D01*
X0160698Y0087644D01*
X0160775Y0087677D01*
X0160853Y0087706D01*
X0160932Y0087731D01*
X0161012Y0087753D01*
X0161094Y0087770D01*
X0161176Y0087784D01*
X0161259Y0087794D01*
X0161342Y0087800D01*
X0161425Y0087802D01*
X0161508Y0087800D01*
X0161591Y0087794D01*
X0161674Y0087784D01*
X0161756Y0087770D01*
X0161838Y0087753D01*
X0161918Y0087731D01*
X0161997Y0087706D01*
X0162075Y0087677D01*
X0162152Y0087644D01*
X0162227Y0087607D01*
X0162300Y0087568D01*
X0162371Y0087524D01*
X0162440Y0087478D01*
X0162507Y0087428D01*
X0162571Y0087375D01*
X0162633Y0087319D01*
X0162692Y0087260D01*
X0162748Y0087198D01*
X0162801Y0087134D01*
X0162851Y0087067D01*
X0162897Y0086998D01*
X0162941Y0086927D01*
X0162980Y0086854D01*
X0163017Y0086779D01*
X0163050Y0086702D01*
X0163079Y0086624D01*
X0163104Y0086545D01*
X0163126Y0086465D01*
X0163143Y0086383D01*
X0163157Y0086301D01*
X0163167Y0086218D01*
X0163173Y0086135D01*
X0163175Y0086052D01*
X0163173Y0085969D01*
X0163167Y0085886D01*
X0163157Y0085803D01*
X0163143Y0085721D01*
X0163126Y0085639D01*
X0163104Y0085559D01*
X0163079Y0085480D01*
X0163050Y0085402D01*
X0163017Y0085325D01*
X0162980Y0085250D01*
X0162941Y0085177D01*
X0162897Y0085106D01*
X0162851Y0085037D01*
X0162801Y0084970D01*
X0162748Y0084906D01*
X0162692Y0084844D01*
X0162633Y0084785D01*
X0162571Y0084729D01*
X0162507Y0084676D01*
X0162440Y0084626D01*
X0162371Y0084580D01*
X0162300Y0084536D01*
X0162227Y0084497D01*
X0162152Y0084460D01*
X0162075Y0084427D01*
X0161997Y0084398D01*
X0161918Y0084373D01*
X0161838Y0084351D01*
X0161756Y0084334D01*
X0161674Y0084320D01*
X0161591Y0084310D01*
X0161508Y0084304D01*
X0161425Y0084302D01*
X0161342Y0084304D01*
X0161259Y0084310D01*
X0161176Y0084320D01*
X0161094Y0084334D01*
X0161012Y0084351D01*
X0160932Y0084373D01*
X0160853Y0084398D01*
X0160775Y0084427D01*
X0160698Y0084460D01*
X0160623Y0084497D01*
X0160550Y0084536D01*
X0160479Y0084580D01*
X0160410Y0084626D01*
X0160343Y0084676D01*
X0160279Y0084729D01*
X0160217Y0084785D01*
X0160158Y0084844D01*
X0160102Y0084906D01*
X0160049Y0084970D01*
X0159999Y0085037D01*
X0159953Y0085106D01*
X0159909Y0085177D01*
X0159870Y0085250D01*
X0159833Y0085325D01*
X0159800Y0085402D01*
X0159771Y0085480D01*
X0159746Y0085559D01*
X0159724Y0085639D01*
X0159707Y0085721D01*
X0159693Y0085803D01*
X0159683Y0085886D01*
X0159677Y0085969D01*
X0159675Y0086052D01*
X0179675Y0090052D02*
X0179677Y0090135D01*
X0179683Y0090218D01*
X0179693Y0090301D01*
X0179707Y0090383D01*
X0179724Y0090465D01*
X0179746Y0090545D01*
X0179771Y0090624D01*
X0179800Y0090702D01*
X0179833Y0090779D01*
X0179870Y0090854D01*
X0179909Y0090927D01*
X0179953Y0090998D01*
X0179999Y0091067D01*
X0180049Y0091134D01*
X0180102Y0091198D01*
X0180158Y0091260D01*
X0180217Y0091319D01*
X0180279Y0091375D01*
X0180343Y0091428D01*
X0180410Y0091478D01*
X0180479Y0091524D01*
X0180550Y0091568D01*
X0180623Y0091607D01*
X0180698Y0091644D01*
X0180775Y0091677D01*
X0180853Y0091706D01*
X0180932Y0091731D01*
X0181012Y0091753D01*
X0181094Y0091770D01*
X0181176Y0091784D01*
X0181259Y0091794D01*
X0181342Y0091800D01*
X0181425Y0091802D01*
X0181508Y0091800D01*
X0181591Y0091794D01*
X0181674Y0091784D01*
X0181756Y0091770D01*
X0181838Y0091753D01*
X0181918Y0091731D01*
X0181997Y0091706D01*
X0182075Y0091677D01*
X0182152Y0091644D01*
X0182227Y0091607D01*
X0182300Y0091568D01*
X0182371Y0091524D01*
X0182440Y0091478D01*
X0182507Y0091428D01*
X0182571Y0091375D01*
X0182633Y0091319D01*
X0182692Y0091260D01*
X0182748Y0091198D01*
X0182801Y0091134D01*
X0182851Y0091067D01*
X0182897Y0090998D01*
X0182941Y0090927D01*
X0182980Y0090854D01*
X0183017Y0090779D01*
X0183050Y0090702D01*
X0183079Y0090624D01*
X0183104Y0090545D01*
X0183126Y0090465D01*
X0183143Y0090383D01*
X0183157Y0090301D01*
X0183167Y0090218D01*
X0183173Y0090135D01*
X0183175Y0090052D01*
X0183173Y0089969D01*
X0183167Y0089886D01*
X0183157Y0089803D01*
X0183143Y0089721D01*
X0183126Y0089639D01*
X0183104Y0089559D01*
X0183079Y0089480D01*
X0183050Y0089402D01*
X0183017Y0089325D01*
X0182980Y0089250D01*
X0182941Y0089177D01*
X0182897Y0089106D01*
X0182851Y0089037D01*
X0182801Y0088970D01*
X0182748Y0088906D01*
X0182692Y0088844D01*
X0182633Y0088785D01*
X0182571Y0088729D01*
X0182507Y0088676D01*
X0182440Y0088626D01*
X0182371Y0088580D01*
X0182300Y0088536D01*
X0182227Y0088497D01*
X0182152Y0088460D01*
X0182075Y0088427D01*
X0181997Y0088398D01*
X0181918Y0088373D01*
X0181838Y0088351D01*
X0181756Y0088334D01*
X0181674Y0088320D01*
X0181591Y0088310D01*
X0181508Y0088304D01*
X0181425Y0088302D01*
X0181342Y0088304D01*
X0181259Y0088310D01*
X0181176Y0088320D01*
X0181094Y0088334D01*
X0181012Y0088351D01*
X0180932Y0088373D01*
X0180853Y0088398D01*
X0180775Y0088427D01*
X0180698Y0088460D01*
X0180623Y0088497D01*
X0180550Y0088536D01*
X0180479Y0088580D01*
X0180410Y0088626D01*
X0180343Y0088676D01*
X0180279Y0088729D01*
X0180217Y0088785D01*
X0180158Y0088844D01*
X0180102Y0088906D01*
X0180049Y0088970D01*
X0179999Y0089037D01*
X0179953Y0089106D01*
X0179909Y0089177D01*
X0179870Y0089250D01*
X0179833Y0089325D01*
X0179800Y0089402D01*
X0179771Y0089480D01*
X0179746Y0089559D01*
X0179724Y0089639D01*
X0179707Y0089721D01*
X0179693Y0089803D01*
X0179683Y0089886D01*
X0179677Y0089969D01*
X0179675Y0090052D01*
X0179675Y0082052D02*
X0179677Y0082135D01*
X0179683Y0082218D01*
X0179693Y0082301D01*
X0179707Y0082383D01*
X0179724Y0082465D01*
X0179746Y0082545D01*
X0179771Y0082624D01*
X0179800Y0082702D01*
X0179833Y0082779D01*
X0179870Y0082854D01*
X0179909Y0082927D01*
X0179953Y0082998D01*
X0179999Y0083067D01*
X0180049Y0083134D01*
X0180102Y0083198D01*
X0180158Y0083260D01*
X0180217Y0083319D01*
X0180279Y0083375D01*
X0180343Y0083428D01*
X0180410Y0083478D01*
X0180479Y0083524D01*
X0180550Y0083568D01*
X0180623Y0083607D01*
X0180698Y0083644D01*
X0180775Y0083677D01*
X0180853Y0083706D01*
X0180932Y0083731D01*
X0181012Y0083753D01*
X0181094Y0083770D01*
X0181176Y0083784D01*
X0181259Y0083794D01*
X0181342Y0083800D01*
X0181425Y0083802D01*
X0181508Y0083800D01*
X0181591Y0083794D01*
X0181674Y0083784D01*
X0181756Y0083770D01*
X0181838Y0083753D01*
X0181918Y0083731D01*
X0181997Y0083706D01*
X0182075Y0083677D01*
X0182152Y0083644D01*
X0182227Y0083607D01*
X0182300Y0083568D01*
X0182371Y0083524D01*
X0182440Y0083478D01*
X0182507Y0083428D01*
X0182571Y0083375D01*
X0182633Y0083319D01*
X0182692Y0083260D01*
X0182748Y0083198D01*
X0182801Y0083134D01*
X0182851Y0083067D01*
X0182897Y0082998D01*
X0182941Y0082927D01*
X0182980Y0082854D01*
X0183017Y0082779D01*
X0183050Y0082702D01*
X0183079Y0082624D01*
X0183104Y0082545D01*
X0183126Y0082465D01*
X0183143Y0082383D01*
X0183157Y0082301D01*
X0183167Y0082218D01*
X0183173Y0082135D01*
X0183175Y0082052D01*
X0183173Y0081969D01*
X0183167Y0081886D01*
X0183157Y0081803D01*
X0183143Y0081721D01*
X0183126Y0081639D01*
X0183104Y0081559D01*
X0183079Y0081480D01*
X0183050Y0081402D01*
X0183017Y0081325D01*
X0182980Y0081250D01*
X0182941Y0081177D01*
X0182897Y0081106D01*
X0182851Y0081037D01*
X0182801Y0080970D01*
X0182748Y0080906D01*
X0182692Y0080844D01*
X0182633Y0080785D01*
X0182571Y0080729D01*
X0182507Y0080676D01*
X0182440Y0080626D01*
X0182371Y0080580D01*
X0182300Y0080536D01*
X0182227Y0080497D01*
X0182152Y0080460D01*
X0182075Y0080427D01*
X0181997Y0080398D01*
X0181918Y0080373D01*
X0181838Y0080351D01*
X0181756Y0080334D01*
X0181674Y0080320D01*
X0181591Y0080310D01*
X0181508Y0080304D01*
X0181425Y0080302D01*
X0181342Y0080304D01*
X0181259Y0080310D01*
X0181176Y0080320D01*
X0181094Y0080334D01*
X0181012Y0080351D01*
X0180932Y0080373D01*
X0180853Y0080398D01*
X0180775Y0080427D01*
X0180698Y0080460D01*
X0180623Y0080497D01*
X0180550Y0080536D01*
X0180479Y0080580D01*
X0180410Y0080626D01*
X0180343Y0080676D01*
X0180279Y0080729D01*
X0180217Y0080785D01*
X0180158Y0080844D01*
X0180102Y0080906D01*
X0180049Y0080970D01*
X0179999Y0081037D01*
X0179953Y0081106D01*
X0179909Y0081177D01*
X0179870Y0081250D01*
X0179833Y0081325D01*
X0179800Y0081402D01*
X0179771Y0081480D01*
X0179746Y0081559D01*
X0179724Y0081639D01*
X0179707Y0081721D01*
X0179693Y0081803D01*
X0179683Y0081886D01*
X0179677Y0081969D01*
X0179675Y0082052D01*
M02*
